<?xml version="1.0" encoding="UTF-8"?>
<svg width="45px" height="46px" viewBox="0 0 45 46" version="1.1" xmlns="http://www.w3.org/2000/svg" xmlns:xlink="http://www.w3.org/1999/xlink">
    <!-- Generator: Sketch 56.2 (81672) - https://sketch.com -->
    <title>Group 3</title>
    <desc>Created with Sketch.</desc>
    <g id="Page-1" stroke="none" stroke-width="1" fill="none" fill-rule="evenodd">
        <g id="Group-3" transform="translate(0.129099, 0.597292)" fill="#FFC50A" fill-rule="nonzero">
            <g id="Group-2" transform="translate(0.000000, 0.000000)">
                <path d="M31.1709008,14.8027077 C30.4709008,14.0027077 29.5709008,13.2027077 28.6709008,12.6027077 C28.4709008,13.0027077 28.1709008,13.4027077 27.9709008,13.7027077 C28.8709008,14.3027077 29.7709008,15.1027077 30.3709008,15.9027077 L31.1709008,14.8027077 Z" id="Path"></path>
                <path d="M33.9709008,18.4027077 C34.3709008,19.4027077 34.5709008,20.5027077 34.6709008,21.6027077 C35.0709008,21.6027077 35.5709008,21.6027077 35.9709008,21.6027077 C35.8709008,20.5027077 35.6709008,19.4027077 35.3709008,18.4027077 C34.8709008,18.4027077 34.4709008,18.4027077 33.9709008,18.4027077 Z" id="Path"></path>
                <path d="M31.8709008,18.4027077 C32.2709008,19.4027077 32.5709008,20.5027077 32.6709008,21.6027077 C33.0709008,21.6027077 33.5709008,21.6027077 33.9709008,21.6027077 C33.8709008,20.5027077 33.6709008,19.4027077 33.2709008,18.4027077 C32.7709008,18.4027077 32.3709008,18.4027077 31.8709008,18.4027077 Z" id="Path"></path>
                <path d="M32.1709008,13.0027077 C31.3709008,12.2027077 30.5709008,11.5027077 29.6709008,10.9027077 C29.4709008,11.3027077 29.1709008,11.7027077 28.9709008,12.0027077 C29.8709008,12.6027077 30.7709008,13.3027077 31.4709008,14.1027077 L32.1709008,13.0027077 Z" id="Path"></path>
                <path d="M29.9709008,18.4027077 C30.4709008,19.4027077 30.8709008,20.5027077 30.9709008,21.6027077 C31.3709008,21.6027077 31.7709008,21.6027077 32.0709008,21.6027077 C31.9709008,20.5027077 31.6709008,19.4027077 31.2709008,18.4027077 C30.6709008,18.4027077 30.2709008,18.4027077 29.9709008,18.4027077 Z" id="Path"></path>
                <path d="M29.0709008,18.4027077 L29.2709008,18.0027077 C28.6709008,17.0027077 27.8709008,16.2027077 26.8709008,15.6027077 C26.6709008,16.0027077 26.3709008,16.4027077 26.1709008,16.7027077 C27.7709008,17.8027077 28.9709008,19.6027077 29.1709008,21.7027077 C29.5709008,21.7027077 29.9709008,21.7027077 30.4709008,21.7027077 C30.3709008,20.5027077 29.9709008,19.4027077 29.4709008,18.5027077 C29.2709008,18.4027077 29.0709008,18.4027077 29.0709008,18.4027077 Z" id="Path"></path>
                <path d="M25.3709008,18.2027077 C25.3709008,18.3027077 25.2709008,18.3027077 25.2709008,18.3027077 C23.5709008,21.1027077 27.2709008,21.5027077 27.2709008,21.5027077 C27.2709008,21.5027077 27.3709008,21.5027077 27.4709008,21.5027077 C27.2709008,20.2027077 26.4709008,19.0027077 25.3709008,18.2027077 Z" id="Path"></path>
                <path d="M35.9709008,18.4027077 C36.2709008,19.4027077 36.4709008,20.5027077 36.5709008,21.6027077 C37.0709008,21.6027077 37.4709008,21.6027077 37.9709008,21.6027077 C37.8709008,20.5027077 37.7709008,19.4027077 37.4709008,18.4027077 C36.9709008,18.4027077 36.5709008,18.4027077 35.9709008,18.4027077 Z" id="Path"></path>
                <path d="M27.6709008,14.3027077 C27.4709008,14.6027077 27.2709008,15.0027077 27.0709008,15.3027077 C27.9709008,15.9027077 28.7709008,16.7027077 29.4709008,17.7027077 L30.0709008,16.6027077 C29.4709008,15.7027077 28.6709008,14.9027077 27.6709008,14.3027077 Z" id="Path"></path>
                <path d="M26.0709008,16.9027077 C25.8709008,17.3027077 25.6709008,17.6027077 25.4709008,17.9027077 C26.6709008,18.7027077 27.4709008,20.1027077 27.7709008,21.6027077 C28.0709008,21.6027077 28.4709008,21.6027077 28.9709008,21.6027077 C28.6709008,19.7027077 27.6709008,18.0027077 26.0709008,16.9027077 Z" id="Path"></path>
                <path d="M35.9709008,6.70270775 C35.9709008,6.70270775 36.0709008,6.60270775 35.9709008,6.70270775 C35.1709008,5.90270775 34.3709008,5.30270775 33.4709008,4.70270775 C33.1709008,5.20270775 32.8709008,5.80270775 32.4709008,6.40270775 C33.3709008,7.00270775 34.2709008,7.60270775 35.0709008,8.40270775 L35.9709008,6.70270775 Z" id="Path"></path>
                <path d="M38.4709008,6.50270775 C41.1709008,8.20270775 41.2709008,10.8027077 41.2709008,10.8027077 C41.4709008,9.70270775 41.4709008,8.70270775 41.2709008,7.80270775 C39.5709008,5.60270775 37.4709008,3.70270775 35.0709008,2.10270775 C34.7709008,2.30270775 34.6709008,2.60270775 34.5709008,2.80270775 C34.4709008,2.90270775 34.2709008,3.30270775 33.8709008,3.90270775 C34.8709008,4.50270775 35.8709008,5.30270775 36.7709008,6.00270775 C37.1709008,6.00270775 37.7709008,6.00270775 38.4709008,6.50270775 Z" id="Path"></path>
                <path d="M43.0709008,15.6027077 C43.6709008,17.4027077 43.9709008,19.2027077 44.1709008,21.2027077 C44.7709008,20.7027077 44.7709008,20.0027077 44.7709008,20.0027077 C44.6709008,17.9027077 44.0709008,16.5027077 43.0709008,15.6027077 Z" id="Path"></path>
                <path d="M40.5709008,5.60270775 C40.1709008,4.90270775 39.7709008,4.30270775 39.2709008,3.60270775 C37.8709008,1.70270775 36.6709008,1.40270775 35.8709008,1.60270775 C37.5709008,2.80270775 39.1709008,4.10270775 40.5709008,5.60270775 Z" id="Path"></path>
                <path d="M39.2709008,14.0027077 C39.5709008,14.5027077 39.7709008,15.0027077 39.9709008,15.6027077 C40.9709008,16.3027077 40.9709008,17.0027077 40.5709008,17.5027077 C40.9709008,18.8027077 41.1709008,20.2027077 41.1709008,21.7027077 C41.7709008,21.7027077 42.2709008,21.7027077 42.5709008,21.7027077 C42.7709008,21.7027077 42.9709008,21.7027077 43.1709008,21.6027077 C43.0709008,19.2027077 42.5709008,16.9027077 41.7709008,14.8027077 C41.0709008,14.3027077 40.1709008,14.1027077 39.2709008,14.0027077 Z" id="Path"></path>
                <path d="M33.2709008,11.3027077 C32.4709008,10.5027077 31.6709008,9.90270775 30.6709008,9.30270775 C30.4709008,9.70270775 30.1709008,10.1027077 29.9709008,10.5027077 C30.8709008,11.1027077 31.7709008,11.8027077 32.4709008,12.6027077 L33.2709008,11.3027077 Z" id="Path"></path>
                <path d="M36.3709008,13.9027077 C36.3709008,14.0027077 36.4709008,14.0027077 36.4709008,14.1027077 C37.4709008,14.4027077 38.2709008,14.7027077 38.8709008,14.9027077 C38.6709008,14.5027077 38.5709008,14.2027077 38.3709008,13.8027077 C37.5709008,13.8027077 36.7709008,13.8027077 36.3709008,13.9027077 Z" id="Path"></path>
                <path d="M38.6709008,18.4027077 C38.5709008,18.4027077 38.4709008,18.4027077 38.2709008,18.4027077 C38.5709008,19.4027077 38.6709008,20.5027077 38.7709008,21.6027077 C39.3709008,21.6027077 39.9709008,21.6027077 40.4709008,21.6027077 C40.3709008,20.4027077 40.2709008,19.1027077 39.9709008,18.0027077 C39.5709008,18.2027077 39.0709008,18.4027077 38.6709008,18.4027077 Z" id="Path"></path>
                <path d="M34.5709008,9.00270775 C33.7709008,8.30270775 32.8709008,7.60270775 31.9709008,7.00270775 C31.6709008,7.50270775 31.3709008,8.00270775 31.0709008,8.50270775 C31.9709008,9.10270775 32.8709008,9.80270775 33.6709008,10.5027077 L34.5709008,9.00270775 Z" id="Path"></path>
                <path d="M24.8709008,15.9027077 C25.0709008,15.6027077 25.2709008,15.2027077 25.5709008,14.8027077 C24.5709008,14.4027077 23.5709008,14.2027077 22.4709008,14.2027077 C21.3709008,14.2027077 20.2709008,14.4027077 19.3709008,14.8027077 C19.5709008,15.2027077 19.8709008,15.6027077 20.0709008,15.9027077 C20.8709008,15.6027077 21.6709008,15.4027077 22.5709008,15.4027077 C23.2709008,15.5027077 24.0709008,15.6027077 24.8709008,15.9027077 Z" id="Path"></path>
                <path d="M28.2709008,10.2027077 C27.2709008,9.70270775 26.2709008,9.40270775 25.1709008,9.10270775 L24.4709008,10.3027077 C25.5709008,10.5027077 26.6709008,10.8027077 27.6709008,11.3027077 C27.8709008,10.9027077 28.0709008,10.5027077 28.2709008,10.2027077 Z" id="Path"></path>
                <path d="M18.1709008,13.0027077 C19.1709008,12.5027077 20.2709008,12.2027077 21.4709008,12.1027077 C21.2709008,11.7027077 20.9709008,11.3027077 20.7709008,10.8027077 C19.6709008,11.0027077 18.5709008,11.3027077 17.5709008,11.8027077 C17.6709008,12.2027077 17.9709008,12.6027077 18.1709008,13.0027077 Z" id="Path"></path>
                <path d="M16.4709008,10.2027077 C16.6709008,10.6027077 16.9709008,11.0027077 17.1709008,11.3027077 C18.1709008,10.8027077 19.2709008,10.5027077 20.3709008,10.3027077 C20.1709008,9.90270775 19.8709008,9.50270775 19.6709008,9.10270775 C18.4709008,9.30270775 17.4709008,9.70270775 16.4709008,10.2027077 Z" id="Path"></path>
                <path d="M31.7709008,4.40270775 C31.8709008,4.20270775 31.9709008,4.00270775 32.0709008,3.90270775 C31.1709008,3.40270775 30.1709008,3.00270775 29.0709008,2.60270775 C29.0709008,2.60270775 29.0709008,2.70270775 28.9709008,2.70270775 L27.9709008,4.40270775 C29.0709008,4.70270775 30.0709008,5.10270775 30.9709008,5.60270775 C31.3709008,5.00270775 31.5709008,4.60270775 31.7709008,4.40270775 Z" id="Path"></path>
                <path d="M19.0709008,14.5027077 C20.0709008,14.1027077 21.1709008,13.8027077 22.3709008,13.8027077 C23.5709008,13.8027077 24.6709008,14.0027077 25.6709008,14.5027077 C25.8709008,14.2027077 26.0709008,13.9027077 26.2709008,13.5027077 C25.2709008,13.1027077 24.1709008,12.8027077 22.9709008,12.7027077 L22.3709008,13.7027077 C22.3709008,13.7027077 22.1709008,13.3027077 21.7709008,12.7027077 C20.5709008,12.8027077 19.4709008,13.1027077 18.4709008,13.5027077 C18.6709008,13.9027077 18.8709008,14.2027077 19.0709008,14.5027077 Z" id="Path"></path>
                <path d="M20.8709008,17.5027077 C20.8709008,17.5027077 20.8709008,17.5027077 20.8709008,17.5027077 C21.5709008,18.7027077 23.1709008,18.6027077 23.8709008,17.5027077 C23.8709008,17.5027077 23.8709008,17.5027077 23.8709008,17.5027077 C23.3709008,17.4027077 22.8709008,17.3027077 22.3709008,17.3027077 C21.8709008,17.3027077 21.3709008,17.4027077 20.8709008,17.5027077 Z" id="Path"></path>
                <path d="M20.0709008,16.2027077 C20.2709008,16.6027077 20.4709008,16.9027077 20.6709008,17.2027077 C21.1709008,17.0027077 21.7709008,16.9027077 22.3709008,16.9027077 C22.9709008,16.9027077 23.5709008,17.0027077 24.0709008,17.2027077 C24.1709008,17.0027077 24.4709008,16.6027077 24.6709008,16.2027077 C23.9709008,15.9027077 23.1709008,15.8027077 22.3709008,15.8027077 C21.5709008,15.8027077 20.7709008,15.9027077 20.0709008,16.2027077 Z" id="Path"></path>
                <path d="M27.2709008,11.8027077 C26.2709008,11.3027077 25.1709008,11.0027077 24.0709008,10.8027077 L23.3709008,12.1027077 C24.5709008,12.2027077 25.6709008,12.5027077 26.6709008,13.0027077 C26.7709008,12.6027077 27.0709008,12.2027077 27.2709008,11.8027077 Z" id="Path"></path>
                <path d="M21.3709008,1.50270775 C21.3709008,1.50270775 21.3709008,1.50270775 21.3709008,1.50270775 C21.3709008,1.50270775 21.4709008,1.50270775 21.3709008,1.50270775 C21.4709008,1.50270775 21.4709008,1.50270775 21.3709008,1.50270775 Z" id="Path"></path>
                <path d="M29.2709008,8.40270775 C28.2709008,7.90270775 27.2709008,7.50270775 26.1709008,7.30270775 L25.3709008,8.60270775 C26.4709008,8.80270775 27.4709008,9.20270775 28.4709008,9.70270775 C28.8709008,9.20270775 29.0709008,8.80270775 29.2709008,8.40270775 Z" id="Path"></path>
                <path d="M31.4709008,1.90270775 C31.0709008,1.70270775 30.3709008,1.40270775 29.6709008,1.90270775 C30.5709008,2.20270775 31.3709008,2.60270775 32.1709008,3.00270775 C32.1709008,2.40270775 31.7709008,2.10270775 31.4709008,1.90270775 Z" id="Path"></path>
                <path d="M20.1709008,0.802707746 C19.2709008,0.402707746 17.9709008,0.102707746 15.5709008,0.00270774611 C11.0709008,-0.0972922539 11.9709008,2.60270775 12.2709008,3.10270775 C14.6709008,1.90270775 17.3709008,1.00270775 20.1709008,0.802707746 Z" id="Path"></path>
                <path d="M12.6709008,3.80270775 C12.8709008,4.20270775 13.2709008,4.80270775 13.6709008,5.50270775 C14.6709008,5.00270775 15.6709008,4.60270775 16.6709008,4.30270775 C16.4709008,3.90270775 16.0709008,3.10270775 16.1709008,2.30270775 C15.0709008,2.70270775 13.8709008,3.20270775 12.6709008,3.80270775 Z" id="Path"></path>
                <path d="M18.5709008,7.30270775 C17.4709008,7.60270775 16.4709008,8.00270775 15.4709008,8.40270775 C15.6709008,8.80270775 15.9709008,9.20270775 16.1709008,9.60270775 C17.1709008,9.10270775 18.1709008,8.80270775 19.2709008,8.50270775 C19.0709008,8.10270775 18.7709008,7.70270775 18.5709008,7.30270775 Z" id="Path"></path>
                <path d="M14.1709008,6.20270775 C14.4709008,6.70270775 14.7709008,7.20270775 15.0709008,7.70270775 C16.0709008,7.20270775 17.0709008,6.80270775 18.1709008,6.50270775 C17.7709008,5.90270775 17.4709008,5.30270775 17.2709008,5.00270775 C16.1709008,5.30270775 15.0709008,5.70270775 14.1709008,6.20270775 Z" id="Path"></path>
                <path d="M30.5709008,6.30270775 C29.5709008,5.80270775 28.5709008,5.40270775 27.5709008,5.10270775 L26.6709008,6.60270775 C27.7709008,6.90270775 28.7709008,7.30270775 29.7709008,7.80270775 C30.0709008,7.20270775 30.3709008,6.70270775 30.5709008,6.30270775 Z" id="Path"></path>
                <path d="M14.7709008,18.4027077 L13.4709008,18.4027077 C12.9709008,19.4027077 12.6709008,20.5027077 12.6709008,21.6027077 C13.0709008,21.6027077 13.4709008,21.6027077 13.7709008,21.6027077 C13.9709008,20.5027077 14.2709008,19.4027077 14.7709008,18.4027077 Z" id="Path"></path>
                <path d="M13.5709008,14.8027077 L14.2709008,16.0027077 C14.9709008,15.1027077 15.7709008,14.4027077 16.7709008,13.8027077 C16.5709008,13.4027077 16.2709008,13.0027077 16.0709008,12.7027077 C15.1709008,13.2027077 14.2709008,13.9027077 13.5709008,14.8027077 Z" id="Path"></path>
                <path d="M12.8709008,18.4027077 L11.4709008,18.4027077 C11.0709008,19.4027077 10.8709008,20.5027077 10.7709008,21.6027077 C11.1709008,21.6027077 11.6709008,21.6027077 12.0709008,21.6027077 C12.1709008,20.5027077 12.4709008,19.4027077 12.8709008,18.4027077 Z" id="Path"></path>
                <path d="M8.77090084,21.6027077 C9.17090084,21.6027077 9.67090084,21.6027077 10.0709008,21.6027077 C10.1709008,20.5027077 10.3709008,19.4027077 10.7709008,18.4027077 L9.37090084,18.4027077 C9.07090084,19.4027077 8.87090084,20.5027077 8.77090084,21.6027077 Z" id="Path"></path>
                <path d="M15.7709008,12.1027077 C15.5709008,11.7027077 15.3709008,11.3027077 15.0709008,11.0027077 C14.1709008,11.6027077 13.2709008,12.3027077 12.5709008,13.1027077 L13.2709008,14.3027077 C13.9709008,13.4027077 14.7709008,12.7027077 15.7709008,12.1027077 Z" id="Path"></path>
                <path d="M15.2709008,17.6027077 C15.8709008,16.7027077 16.6709008,15.9027077 17.6709008,15.2027077 C17.4709008,14.9027077 17.2709008,14.6027077 17.0709008,14.2027077 C16.1709008,14.8027077 15.2709008,15.6027077 14.6709008,16.5027077 L15.2709008,17.6027077 Z" id="Path"></path>
                <path d="M18.4709008,16.7027077 C18.2709008,16.4027077 18.0709008,16.0027077 17.7709008,15.6027077 C16.8709008,16.2027077 16.0709008,17.0027077 15.3709008,18.0027077 L15.6709008,18.4027077 L15.1709008,18.4027077 C14.5709008,19.4027077 14.2709008,20.5027077 14.1709008,21.6027077 C14.5709008,21.6027077 15.0709008,21.6027077 15.4709008,21.6027077 C15.6709008,19.6027077 16.8709008,17.8027077 18.4709008,16.7027077 Z" id="Path"></path>
                <path d="M19.4709008,18.4027077 C19.4709008,18.4027077 19.4709008,18.3027077 19.3709008,18.3027077 C18.2709008,19.1027077 17.4709008,20.3027077 17.2709008,21.7027077 C17.4709008,21.7027077 17.6709008,21.7027077 17.8709008,21.7027077 C21.1709008,21.6027077 19.4709008,18.4027077 19.4709008,18.4027077 Z" id="Path"></path>
                <path d="M19.2709008,17.9027077 C19.1709008,17.7027077 18.9709008,17.3027077 18.6709008,16.9027077 C17.1709008,18.0027077 16.0709008,19.6027077 15.8709008,21.6027077 C16.2709008,21.6027077 16.6709008,21.6027077 17.0709008,21.6027077 C17.1709008,20.1027077 18.0709008,18.8027077 19.2709008,17.9027077 Z" id="Path"></path>
                <path d="M14.0709008,9.20270775 C13.1709008,9.80270775 12.2709008,10.5027077 11.4709008,11.2027077 L12.1709008,12.4027077 C12.9709008,11.6027077 13.7709008,10.9027077 14.6709008,10.3027077 C14.4709008,10.0027077 14.2709008,9.60270775 14.0709008,9.20270775 Z" id="Path"></path>
                <path d="M0.37090084,17.5027077 C-0.32909916,19.2027077 0.0709008399,20.2027077 0.67090084,20.8027077 C0.87090084,18.4027077 1.37090084,16.2027077 2.27090084,14.1027077 C1.57090084,15.0027077 0.97090084,16.0027077 0.37090084,17.5027077 Z" id="Path"></path>
                <path d="M10.8709008,3.90270775 C10.5709008,3.30270775 10.2709008,2.90270775 10.1709008,2.70270775 C10.0709008,2.50270775 9.87090084,2.30270775 9.67090084,2.10270775 C8.57090084,2.80270775 7.57090084,3.60270775 6.57090084,4.40270775 C6.47090084,5.30270775 6.47090084,6.40270775 6.47090084,7.50270775 C7.77090084,6.20270775 9.27090084,4.90270775 10.8709008,3.90270775 Z" id="Path"></path>
                <path d="M3.07090084,16.4027077 C3.57090084,13.7027077 5.37090084,10.8027077 5.37090084,10.8027077 C4.97090084,11.2027077 4.57090084,11.5027077 4.27090084,11.8027077 C2.67090084,14.6027077 1.67090084,17.8027077 1.47090084,21.2027077 C1.97090084,21.4027077 2.47090084,21.5027077 2.67090084,21.5027077 C2.77090084,21.5027077 3.07090084,21.5027077 3.47090084,21.5027077 C3.57090084,20.3027077 3.67090084,19.1027077 3.97090084,18.0027077 C3.37090084,17.8027077 2.87090084,17.3027077 3.07090084,16.4027077 Z" id="Path"></path>
                <path d="M7.67090084,1.80270775 C7.27090084,2.10270775 6.97090084,2.50270775 6.77090084,3.10270775 C7.47090084,2.60270775 8.07090084,2.10270775 8.87090084,1.60270775 C8.27090084,1.50270775 7.67090084,1.80270775 7.67090084,1.80270775 Z" id="Path"></path>
                <path d="M11.0709008,10.6027077 C11.8709008,9.80270775 12.7709008,9.20270775 13.6709008,8.60270775 C13.3709008,8.10270775 13.0709008,7.60270775 12.7709008,7.10270775 C11.8709008,7.70270775 10.9709008,8.30270775 10.1709008,9.10270775 L11.0709008,10.6027077 Z" id="Path"></path>
                <path d="M6.77090084,21.6027077 C7.17090084,21.6027077 7.67090084,21.6027077 8.17090084,21.6027077 C8.27090084,20.5027077 8.47090084,19.4027077 8.77090084,18.4027077 L7.27090084,18.4027077 C6.97090084,19.4027077 6.87090084,20.5027077 6.77090084,21.6027077 Z" id="Path"></path>
                <path d="M6.47090084,18.4027077 L5.07090084,18.4027077 C5.07090084,18.4027077 4.87090084,18.4027077 4.67090084,18.4027077 C4.47090084,19.5027077 4.27090084,20.6027077 4.27090084,21.7027077 C4.77090084,21.7027077 5.37090084,21.7027077 5.97090084,21.7027077 C6.07090084,20.5027077 6.17090084,19.4027077 6.47090084,18.4027077 Z" id="Path"></path>
                <path d="M6.57090084,8.70270775 C6.67090084,9.80270775 6.77090084,10.8027077 6.87090084,11.5027077 C6.97090084,11.4027077 7.07090084,11.2027077 7.17090084,11.1027077 C7.77090084,4.20270775 9.47090084,8.00270775 9.47090084,8.00270775 L9.67090084,8.30270775 C10.4709008,7.60270775 11.3709008,6.90270775 12.2709008,6.30270775 C11.8709008,5.70270775 11.5709008,5.10270775 11.2709008,4.60270775 C9.57090084,5.70270775 7.97090084,7.10270775 6.57090084,8.70270775 Z" id="Path"></path>
                <path d="M10.7709008,23.2027077 C10.8709008,24.3027077 11.0709008,25.4027077 11.4709008,26.4027077 L12.8709008,26.4027077 C12.4709008,25.4027077 12.1709008,24.3027077 12.0709008,23.2027077 C11.6709008,23.2027077 11.1709008,23.2027077 10.7709008,23.2027077 Z" id="Path"></path>
                <g id="Group" transform="translate(33.370901, 34.202708) scale(-1, 1) translate(-33.370901, -34.202708) translate(24.870901, 23.202708)">
                    <path d="M7.7,1.77635684e-15 C7.8,1.1 8,2.2 8.4,3.2 L9.8,3.2 C9.4,2.2 9.1,1.1 9,1.77635684e-15 C8.6,1.77635684e-15 8.1,1.77635684e-15 7.7,1.77635684e-15 Z" id="Path-Copy"></path>
                    <path d="M12.4,7.10542736e-15 C12,7.10542736e-15 11.6,7.10542736e-15 11.1,7.10542736e-15 C11.2,1.2 11.6,2.3 12.1,3.2 L13.6,3.2 L13.6,5.1 C14.5,6 15.6,6.6 16.8,7 C16.8,6.5 16.8,6.1 16.8,5.7 C14.5,4.8 12.7,2.7 12.4,7.10542736e-15 Z" id="Path-Copy-2"></path>
                    <path d="M7.7,3.3 C7.3,2.3 7.1,1.2 7,0.1 C6.5,0.1 6.1,0.1 5.7,0.1 C5.8,1.2 6,2.3 6.3,3.3 L7.7,3.3 Z" id="Path-Copy-3"></path>
                    <path d="M13.6,7.1 C14.6,7.8 15.7,8.3 16.8,8.6 C16.8,8.2 16.8,7.8 16.8,7.4 C15.6,7 14.5,6.4 13.6,5.6 L13.6,7.1 Z" id="Path-Copy-4"></path>
                    <path d="M13.9,1.24344979e-14 C13.6,1.24344979e-14 13.2,1.24344979e-14 12.7,1.24344979e-14 C13,2.4 14.6,4.5 16.8,5.3 C16.8,4.8 16.8,4.4 16.8,4 C15.3,3.3 14.2,1.8 13.9,1.24344979e-14 Z" id="Path-Copy-5"></path>
                    <path d="M14.9,1.77635684e-15 C14.8,1.77635684e-15 14.5,1.77635684e-15 14.3,1.77635684e-15 C14.6,1.6 15.6,3 16.9,3.7 C16.9,2.7 16.9,2.1 16.9,1.9 C16.9,0.7 16.6,1.77635684e-15 14.9,1.77635684e-15 Z" id="Path-Copy-6"></path>
                    <path d="M9.6,1.77635684e-15 C9.7,1.1 10,2.2 10.5,3.2 L11.8,3.2 C11.3,2.2 10.9,1.1 10.8,1.77635684e-15 C10.4,1.77635684e-15 10,1.77635684e-15 9.6,1.77635684e-15 Z" id="Path-Copy-7"></path>
                    <path d="M2.2,7.10542736e-15 C1.8,7.10542736e-15 1.5,0.1 1.2,0.2 C1.3,1.5 1.5,2.9 1.8,4.1 C2.5,4.8 3.4,5.4 4.3,6 C3.5,4.2 2.9,2.1 2.8,7.10542736e-15 C2.6,7.10542736e-15 2.4,7.10542736e-15 2.2,7.10542736e-15 Z" id="Path-Copy-8"></path>
                    <path d="M13.6,11.6 C14.6,12.1 15.7,12.4 16.8,12.6 C16.8,12.2 16.8,11.7 16.8,11.3 C15.7,11.1 14.6,10.7 13.6,10.2 L13.6,11.6 Z" id="Path-Copy-9"></path>
                    <path d="M13.6,19.4 C14.6,19.7 15.7,19.9 16.8,20 C16.8,20 16.8,19.9 16.8,19.9 C16.8,19.8 16.8,19.1 16.8,18 C15.7,17.9 14.6,17.6 13.6,17.3 L13.6,19.4 Z" id="Path-Copy-10"></path>
                    <path d="M0.2,1.6 C0.2,2 0.4,2.4 0.8,2.9 C0.7,2.2 0.6,1.5 0.5,0.8 C0.2,1.2 0.2,1.6 0.2,1.6 Z" id="Path-Copy-11"></path>
                    <path d="M13.6,9.4 C14.6,10 15.7,10.4 16.8,10.6 C16.8,10.1 16.8,9.7 16.8,9.2 C15.6,8.9 14.5,8.4 13.6,7.8 L13.6,9.4 Z" id="Path-Copy-12"></path>
                    <path d="M15.3,21.8 C16.2,21.8 16.7,21.6 16.8,20.8 C15.7,20.7 14.7,20.5 13.7,20.2 C13.7,21.3 14.1,21.8 15.3,21.8 Z" id="Path-Copy-13"></path>
                    <path d="M13.6,16.5 C14.6,16.8 15.7,17.1 16.8,17.2 C16.8,16.7 16.8,16.1 16.8,15.4 C15.7,15.2 14.6,15 13.6,14.6 L13.6,16.5 Z" id="Path-Copy-14"></path>
                    <path d="M5,3.3 L5.7,3.3 C5.4,2.3 5.2,1.2 5.1,0.1 C4.6,0.1 4.1,0.1 3.7,0.1 C3.8,1.3 4,2.5 4.3,3.7 C4.5,3.3 5,3.3 5,3.3 Z" id="Path-Copy-15"></path>
                    <path d="M13.6,13.8 C14.6,14.2 15.7,14.5 16.8,14.7 C16.8,14.2 16.8,13.8 16.8,13.3 C15.7,13.1 14.6,12.8 13.6,12.3 L13.6,13.8 Z" id="Path-Copy-16"></path>
                    <path d="M4.7,4.8 C5,5.5 5.3,6.2 5.7,6.8 C6.8,7.5 7.9,8 8.5,8.3 C8.4,8.2 8.3,8 8.2,7.9 C6.3,6.5 5.2,5.5 4.7,4.8 Z" id="Path-Copy-17"></path>
                </g>
                <path d="M15.4709008,23.2027077 C15.0709008,23.2027077 14.6709008,23.2027077 14.1709008,23.2027077 C14.2709008,24.4027077 14.6709008,25.5027077 15.1709008,26.4027077 L16.6709008,26.4027077 L16.6709008,28.3027077 C17.5709008,29.2027077 18.6709008,29.8027077 19.8709008,30.2027077 C19.8709008,29.7027077 19.8709008,29.3027077 19.8709008,28.9027077 C17.5709008,28.0027077 15.7709008,25.9027077 15.4709008,23.2027077 Z" id="Path"></path>
                <path d="M10.7709008,26.5027077 C10.3709008,25.5027077 10.1709008,24.4027077 10.0709008,23.3027077 C9.57090084,23.3027077 9.17090084,23.3027077 8.77090084,23.3027077 C8.87090084,24.4027077 9.07090084,25.5027077 9.37090084,26.5027077 L10.7709008,26.5027077 Z" id="Path"></path>
                <path d="M16.6709008,30.3027077 C17.6709008,31.0027077 18.7709008,31.5027077 19.8709008,31.8027077 C19.8709008,31.4027077 19.8709008,31.0027077 19.8709008,30.6027077 C18.6709008,30.2027077 17.5709008,29.6027077 16.6709008,28.8027077 L16.6709008,30.3027077 Z" id="Path"></path>
                <path d="M16.9709008,23.2027077 C16.6709008,23.2027077 16.2709008,23.2027077 15.7709008,23.2027077 C16.0709008,25.6027077 17.6709008,27.7027077 19.8709008,28.5027077 C19.8709008,28.0027077 19.8709008,27.6027077 19.8709008,27.2027077 C18.3709008,26.5027077 17.2709008,25.0027077 16.9709008,23.2027077 Z" id="Path"></path>
                <path d="M17.9709008,23.2027077 C17.8709008,23.2027077 17.5709008,23.2027077 17.3709008,23.2027077 C17.6709008,24.8027077 18.6709008,26.2027077 19.9709008,26.9027077 C19.9709008,25.9027077 19.9709008,25.3027077 19.9709008,25.1027077 C19.9709008,23.9027077 19.6709008,23.2027077 17.9709008,23.2027077 Z" id="Path"></path>
                <path d="M12.6709008,23.2027077 C12.7709008,24.3027077 13.0709008,25.4027077 13.5709008,26.4027077 L14.8709008,26.4027077 C14.3709008,25.4027077 13.9709008,24.3027077 13.8709008,23.2027077 C13.4709008,23.2027077 13.0709008,23.2027077 12.6709008,23.2027077 Z" id="Path"></path>
                <path d="M5.27090084,23.2027077 C4.87090084,23.2027077 4.57090084,23.3027077 4.27090084,23.4027077 C4.37090084,24.7027077 4.57090084,26.1027077 4.87090084,27.3027077 C5.57090084,28.0027077 6.47090084,28.6027077 7.37090084,29.2027077 C6.57090084,27.4027077 5.97090084,25.3027077 5.87090084,23.2027077 C5.67090084,23.2027077 5.47090084,23.2027077 5.27090084,23.2027077 Z" id="Path"></path>
                <path d="M16.6709008,34.8027077 C17.6709008,35.3027077 18.7709008,35.6027077 19.8709008,35.8027077 C19.8709008,35.4027077 19.8709008,34.9027077 19.8709008,34.5027077 C18.7709008,34.3027077 17.6709008,33.9027077 16.6709008,33.4027077 L16.6709008,34.8027077 Z" id="Path"></path>
                <path d="M16.6709008,42.6027077 C17.6709008,42.9027077 18.7709008,43.1027077 19.8709008,43.2027077 C19.8709008,43.2027077 19.8709008,43.1027077 19.8709008,43.1027077 C19.8709008,43.0027077 19.8709008,42.3027077 19.8709008,41.2027077 C18.7709008,41.1027077 17.6709008,40.8027077 16.6709008,40.5027077 L16.6709008,42.6027077 Z" id="Path"></path>
                <path d="M3.27090084,24.8027077 C3.27090084,25.2027077 3.47090084,25.6027077 3.87090084,26.1027077 C3.77090084,25.4027077 3.67090084,24.7027077 3.57090084,24.0027077 C3.27090084,24.4027077 3.27090084,24.8027077 3.27090084,24.8027077 Z" id="Path"></path>
                <path d="M16.6709008,32.6027077 C17.6709008,33.2027077 18.7709008,33.6027077 19.8709008,33.8027077 C19.8709008,33.3027077 19.8709008,32.9027077 19.8709008,32.4027077 C18.6709008,32.1027077 17.5709008,31.6027077 16.6709008,31.0027077 L16.6709008,32.6027077 Z" id="Path"></path>
                <path d="M18.3709008,45.0027077 C19.2709008,45.0027077 19.7709008,44.8027077 19.8709008,44.0027077 C18.7709008,43.9027077 17.7709008,43.7027077 16.7709008,43.4027077 C16.7709008,44.5027077 17.1709008,45.0027077 18.3709008,45.0027077 Z" id="Path"></path>
                <path d="M16.6709008,39.7027077 C17.6709008,40.0027077 18.7709008,40.3027077 19.8709008,40.4027077 C19.8709008,39.9027077 19.8709008,39.3027077 19.8709008,38.6027077 C18.7709008,38.4027077 17.6709008,38.2027077 16.6709008,37.8027077 L16.6709008,39.7027077 Z" id="Path"></path>
                <path d="M8.07090084,26.5027077 L8.77090084,26.5027077 C8.47090084,25.5027077 8.27090084,24.4027077 8.17090084,23.3027077 C7.67090084,23.3027077 7.17090084,23.3027077 6.77090084,23.3027077 C6.87090084,24.5027077 7.07090084,25.7027077 7.37090084,26.9027077 C7.57090084,26.5027077 8.07090084,26.5027077 8.07090084,26.5027077 Z" id="Path"></path>
                <path d="M16.6709008,37.0027077 C17.6709008,37.4027077 18.7709008,37.7027077 19.8709008,37.9027077 C19.8709008,37.4027077 19.8709008,37.0027077 19.8709008,36.5027077 C18.7709008,36.3027077 17.6709008,36.0027077 16.6709008,35.5027077 L16.6709008,37.0027077 Z" id="Path"></path>
                <path d="M7.77090084,28.0027077 C8.07090084,28.7027077 8.37090084,29.4027077 8.77090084,30.0027077 C9.87090084,30.7027077 10.9709008,31.2027077 11.5709008,31.5027077 C11.4709008,31.4027077 11.3709008,31.2027077 11.2709008,31.1027077 C9.37090084,29.7027077 8.27090084,28.7027077 7.77090084,28.0027077 Z" id="Path"></path>
            </g>
        </g>
    </g>
</svg>