<?xml version="1.0" encoding="UTF-8"?>
<svg width="154px" height="81px" viewBox="0 0 154 81" version="1.1" xmlns="http://www.w3.org/2000/svg" xmlns:xlink="http://www.w3.org/1999/xlink">
    <!-- Generator: Sketch 56.2 (81672) - https://sketch.com -->
    <title>Group</title>
    <desc>Created with Sketch.</desc>
    <g id="Page-1" stroke="none" stroke-width="1" fill="none" fill-rule="evenodd">
        <g id="Group" transform="translate(0.540203, 0.198428)" fill="#FFFFFF" fill-rule="nonzero">
            <path d="M55.4597975,26.2015724 C54.1597975,24.7015724 52.6597975,23.4015724 51.0597975,22.4015724 C50.6597975,23.1015724 50.2597975,23.8015724 49.8597975,24.4015724 C51.5597975,25.5015724 52.9597975,26.8015724 54.2597975,28.4015724 L55.4597975,26.2015724 Z" id="Path"></path>
            <path d="M60.4597975,32.6015724 C61.0597975,34.4015724 61.4597975,36.4015724 61.6597975,38.4015724 C62.4597975,38.4015724 63.2597975,38.4015724 64.0597975,38.4015724 C63.9597975,36.4015724 63.5597975,34.5015724 63.0597975,32.6015724 C62.0597975,32.6015724 61.2597975,32.6015724 60.4597975,32.6015724 Z" id="Path"></path>
            <path d="M56.7597975,32.6015724 C57.5597975,34.4015724 57.9597975,36.3015724 58.1597975,38.4015724 C58.9597975,38.4015724 59.7597975,38.4015724 60.5597975,38.4015724 C60.4597975,36.4015724 59.9597975,34.5015724 59.3597975,32.6015724 C58.3597975,32.6015724 57.5597975,32.6015724 56.7597975,32.6015724 Z" id="Path"></path>
            <path d="M57.3597975,23.1015724 C56.0597975,21.7015724 54.5597975,20.4015724 52.8597975,19.4015724 C52.4597975,20.1015724 52.0597975,20.7015724 51.6597975,21.4015724 C53.2597975,22.5015724 54.7597975,23.7015724 56.0597975,25.2015724 L57.3597975,23.1015724 Z" id="Path"></path>
            <path d="M53.2597975,32.6015724 C54.1597975,34.3015724 54.7597975,36.3015724 54.9597975,38.4015724 C55.6597975,38.4015724 56.2597975,38.4015724 56.9597975,38.4015724 C56.7597975,36.4015724 56.2597975,34.4015724 55.4597975,32.6015724 C54.6597975,32.6015724 53.8597975,32.6015724 53.2597975,32.6015724 Z" id="Path"></path>
            <path d="M51.6597975,32.6015724 L52.0597975,31.9015724 C50.9597975,30.2015724 49.5597975,28.8015724 47.8597975,27.6015724 C47.4597975,28.3015724 47.0597975,28.9015724 46.6597975,29.5015724 C49.5597975,31.5015724 51.5597975,34.7015724 51.9597975,38.3015724 C52.6597975,38.3015724 53.4597975,38.3015724 54.2597975,38.3015724 C54.0597975,36.2015724 53.4597975,34.3015724 52.4597975,32.5015724 C51.9597975,32.6015724 51.6597975,32.6015724 51.6597975,32.6015724 Z" id="Path"></path>
            <path d="M45.0597975,32.3015724 C44.9597975,32.4015724 44.9597975,32.5015724 44.8597975,32.6015724 C41.8597975,37.5015724 48.3597975,38.4015724 48.3597975,38.4015724 C48.3597975,38.4015724 48.4597975,38.4015724 48.7597975,38.4015724 C48.4597975,35.8015724 47.0597975,33.7015724 45.0597975,32.3015724 Z" id="Path"></path>
            <path d="M64.0597975,32.6015724 C64.5597975,34.4015724 64.9597975,36.4015724 65.0597975,38.4015724 C65.8597975,38.4015724 66.7597975,38.4015724 67.5597975,38.4015724 C67.4597975,36.4015724 67.1597975,34.5015724 66.6597975,32.6015724 C65.8597975,32.6015724 64.9597975,32.6015724 64.0597975,32.6015724 Z" id="Path"></path>
            <path d="M49.2597975,25.3015724 C48.8597975,25.9015724 48.5597975,26.5015724 48.2597975,27.0015724 C49.9597975,28.1015724 51.3597975,29.5015724 52.4597975,31.2015724 L53.5597975,29.3015724 C52.3597975,27.8015724 50.9597975,26.4015724 49.2597975,25.3015724 Z" id="Path"></path>
            <path d="M46.4597975,30.0015724 C46.0597975,30.7015724 45.7597975,31.3015724 45.3597975,31.8015724 C47.4597975,33.3015724 48.9597975,35.6015724 49.3597975,38.3015724 C49.8597975,38.3015724 50.5597975,38.3015724 51.4597975,38.3015724 C51.0597975,34.9015724 49.1597975,31.9015724 46.4597975,30.0015724 Z" id="Path"></path>
            <path d="M64.0597975,11.8015724 C64.0597975,11.8015724 64.0597975,11.7015724 64.1597975,11.6015724 C62.7597975,10.3015724 61.1597975,9.20157236 59.5597975,8.20157236 C59.0597975,9.10157236 58.3597975,10.1015724 57.7597975,11.3015724 C59.3597975,12.3015724 60.9597975,13.5015724 62.3597975,14.8015724 L64.0597975,11.8015724 Z" id="Path"></path>
            <path d="M68.4597975,11.4015724 C73.2597975,14.4015724 73.4597975,19.1015724 73.4597975,19.1015724 C73.8597975,17.1015724 73.7597975,15.3015724 73.5597975,13.8015724 C70.4597975,9.80157236 66.7597975,6.40157236 62.5597975,3.70157236 C62.0597975,4.10157236 61.7597975,4.60157236 61.5597975,4.90157236 C61.4597975,5.10157236 61.0597975,5.80157236 60.3597975,6.90157236 C62.1597975,8.00157236 63.8597975,9.30157236 65.4597975,10.7015724 C66.0597975,10.5015724 67.1597975,10.6015724 68.4597975,11.4015724 Z" id="Path"></path>
            <path d="M76.5597975,27.6015724 C77.5597975,30.7015724 78.2597975,34.1015724 78.4597975,37.5015724 C79.4597975,36.6015724 79.5597975,35.4015724 79.5597975,35.4015724 C79.5597975,31.7015724 78.2597975,29.3015724 76.5597975,27.6015724 Z" id="Path"></path>
            <path d="M72.1597975,9.90157236 C71.5597975,8.70157236 70.7597975,7.60157236 69.8597975,6.40157236 C67.3597975,2.90157236 65.2597975,2.40157236 63.8597975,2.90157236 C66.9597975,4.90157236 69.6597975,7.30157236 72.1597975,9.90157236 Z" id="Path"></path>
            <path d="M69.9597975,24.7015724 C70.4597975,25.6015724 70.8597975,26.5015724 71.1597975,27.5015724 C72.9597975,28.8015724 72.9597975,30.0015724 72.2597975,30.9015724 C72.8597975,33.3015724 73.2597975,35.8015724 73.3597975,38.3015724 C74.4597975,38.3015724 75.3597975,38.3015724 75.7597975,38.3015724 C76.1597975,38.3015724 76.5597975,38.3015724 76.8597975,38.2015724 C76.6597975,34.0015724 75.7597975,29.9015724 74.3597975,26.2015724 C73.0597975,25.4015724 71.4597975,25.0015724 69.9597975,24.7015724 Z" id="Path"></path>
            <path d="M59.1597975,19.9015724 C57.7597975,18.5015724 56.2597975,17.3015724 54.6597975,16.3015724 C54.2597975,17.0015724 53.7597975,17.7015724 53.3597975,18.4015724 C54.9597975,19.4015724 56.5597975,20.7015724 57.8597975,22.1015724 L59.1597975,19.9015724 Z" id="Path"></path>
            <path d="M64.6597975,24.5015724 C64.7597975,24.6015724 64.7597975,24.7015724 64.8597975,24.9015724 C66.6597975,25.4015724 68.0597975,25.9015724 69.1597975,26.4015724 C68.8597975,25.8015724 68.5597975,25.1015724 68.2597975,24.5015724 C66.7597975,24.4015724 65.4597975,24.5015724 64.6597975,24.5015724 Z" id="Path"></path>
            <path d="M68.7597975,32.6015724 C68.5597975,32.6015724 68.3597975,32.6015724 68.0597975,32.6015724 C68.5597975,34.5015724 68.8597975,36.4015724 68.9597975,38.4015724 C70.0597975,38.4015724 71.1597975,38.4015724 72.0597975,38.4015724 C71.9597975,36.2015724 71.6597975,34.0015724 71.1597975,32.0015724 C70.3597975,32.3015724 69.4597975,32.6015724 68.7597975,32.6015724 Z" id="Path"></path>
            <path d="M61.5597975,15.9015724 C60.1597975,14.6015724 58.5597975,13.4015724 56.9597975,12.4015724 C56.4597975,13.2015724 55.9597975,14.1015724 55.3597975,15.1015724 C56.9597975,16.1015724 58.5597975,17.3015724 59.9597975,18.7015724 L61.5597975,15.9015724 Z" id="Path"></path>
            <path d="M44.1597975,28.2015724 C44.5597975,27.6015724 44.9597975,26.9015724 45.3597975,26.2015724 C43.6597975,25.5015724 41.7597975,25.1015724 39.7597975,25.1015724 C37.7597975,25.1015724 35.9597975,25.5015724 34.1597975,26.2015724 C34.5597975,26.9015724 34.9597975,27.6015724 35.3597975,28.2015724 C36.7597975,27.7015724 38.1597975,27.4015724 39.7597975,27.4015724 C41.3597975,27.4015724 42.8597975,27.7015724 44.1597975,28.2015724 Z" id="Path"></path>
            <path d="M50.3597975,18.0015724 C48.5597975,17.2015724 46.7597975,16.5015724 44.7597975,16.1015724 L43.4597975,18.3015724 C45.4597975,18.6015724 47.3597975,19.2015724 49.1597975,20.1015724 C49.4597975,19.3015724 49.9597975,18.6015724 50.3597975,18.0015724 Z" id="Path"></path>
            <path d="M32.3597975,23.0015724 C34.1597975,22.2015724 36.0597975,21.7015724 38.1597975,21.5015724 C37.7597975,20.8015724 37.3597975,20.1015724 36.8597975,19.3015724 C34.8597975,19.6015724 32.9597975,20.2015724 31.1597975,21.0015724 C31.5597975,21.6015724 31.9597975,22.3015724 32.3597975,23.0015724 Z" id="Path"></path>
            <path d="M29.3597975,18.0015724 C29.7597975,18.7015724 30.1597975,19.4015724 30.5597975,20.0015724 C32.3597975,19.2015724 34.2597975,18.6015724 36.2597975,18.2015724 C35.8597975,17.5015724 35.3597975,16.8015724 34.9597975,16.0015724 C32.9597975,16.5015724 31.0597975,17.1015724 29.3597975,18.0015724 Z" id="Path"></path>
            <path d="M56.4597975,7.60157236 C56.6597975,7.30157236 56.8597975,7.00157236 56.9597975,6.70157236 C55.2597975,5.80157236 53.5597975,5.10157236 51.6597975,4.50157236 C51.6597975,4.60157236 51.5597975,4.60157236 51.5597975,4.70157236 L49.7597975,7.70157236 C51.6597975,8.30157236 53.4597975,9.00157236 55.1597975,9.90157236 C55.7597975,8.80157236 56.2597975,8.10157236 56.4597975,7.60157236 Z" id="Path"></path>
            <path d="M33.9597975,25.7015724 C35.7597975,24.9015724 37.7597975,24.5015724 39.8597975,24.5015724 C41.9597975,24.5015724 43.9597975,24.9015724 45.7597975,25.7015724 C46.0597975,25.1015724 46.4597975,24.5015724 46.8597975,23.9015724 C45.0597975,23.1015724 43.0597975,22.6015724 40.9597975,22.5015724 L39.8597975,24.3015724 C39.8597975,24.3015724 39.4597975,23.6015724 38.7597975,22.5015724 C36.6597975,22.6015724 34.7597975,23.1015724 32.8597975,23.9015724 C33.2597975,24.5015724 33.5597975,25.1015724 33.9597975,25.7015724 Z" id="Path"></path>
            <path d="M37.1597975,31.0015724 C37.1597975,31.0015724 37.1597975,31.1015724 37.1597975,31.0015724 C38.3597975,33.1015724 41.3597975,33.0015724 42.5597975,31.0015724 C42.5597975,31.0015724 42.5597975,31.0015724 42.5597975,31.0015724 C41.7597975,30.7015724 40.7597975,30.6015724 39.8597975,30.6015724 C38.8597975,30.6015724 37.9597975,30.8015724 37.1597975,31.0015724 Z" id="Path"></path>
            <path d="M35.7597975,28.7015724 C36.1597975,29.4015724 36.5597975,30.0015724 36.8597975,30.5015724 C37.7597975,30.2015724 38.8597975,30.0015724 39.8597975,30.0015724 C40.8597975,30.0015724 41.9597975,30.2015724 42.8597975,30.5015724 C43.1597975,30.1015724 43.4597975,29.5015724 43.9597975,28.7015724 C42.6597975,28.2015724 41.3597975,28.0015724 39.8597975,28.0015724 C38.3597975,28.0015724 36.9597975,28.2015724 35.7597975,28.7015724 Z" id="Path"></path>
            <path d="M48.5597975,20.9015724 C46.7597975,20.1015724 44.8597975,19.5015724 42.8597975,19.2015724 L41.5597975,21.4015724 C43.6597975,21.6015724 45.5597975,22.1015724 47.3597975,22.9015724 C47.7597975,22.3015724 48.1597975,21.6015724 48.5597975,20.9015724 Z" id="Path"></path>
            <path d="M38.0597975,2.50157236 C38.0597975,2.50157236 38.0597975,2.50157236 38.0597975,2.50157236 C38.0597975,2.50157236 38.1597975,2.60157236 38.1597975,2.60157236 C38.1597975,2.60157236 38.1597975,2.60157236 38.0597975,2.50157236 Z" id="Path"></path>
            <path d="M52.1597975,14.9015724 C50.4597975,14.0015724 48.5597975,13.3015724 46.6597975,12.9015724 L45.3597975,15.1015724 C47.2597975,15.5015724 49.1597975,16.2015724 50.9597975,17.0015724 C51.2597975,16.3015724 51.7597975,15.6015724 52.1597975,14.9015724 Z" id="Path"></path>
            <path d="M55.8597975,3.30157236 C55.0597975,2.90157236 53.9597975,2.40157236 52.7597975,3.30157236 C54.2597975,3.80157236 55.7597975,4.50157236 57.2597975,5.20157236 C57.1597975,4.20157236 56.4597975,3.60157236 55.8597975,3.30157236 Z" id="Path"></path>
            <path d="M35.9597975,1.30157236 C34.3597975,0.601572359 32.0597975,0.00157235907 27.8597975,0.00157235907 C19.8597975,-0.0984276409 21.4597975,4.60157236 21.9597975,5.50157236 C26.1597975,3.20157236 30.9597975,1.80157236 35.9597975,1.30157236 Z" id="Path"></path>
            <path d="M22.6597975,6.70157236 C23.0597975,7.40157236 23.7597975,8.50157236 24.4597975,9.80157236 C26.1597975,8.90157236 27.9597975,8.20157236 29.8597975,7.60157236 C29.4597975,7.00157236 28.7597975,5.40157236 29.0597975,4.10157236 C26.7597975,4.80157236 24.6597975,5.70157236 22.6597975,6.70157236 Z" id="Path"></path>
            <path d="M32.9597975,12.8015724 C31.0597975,13.3015724 29.1597975,14.0015724 27.4597975,14.8015724 C27.8597975,15.5015724 28.2597975,16.2015724 28.7597975,16.9015724 C30.4597975,16.0015724 32.3597975,15.4015724 34.2597975,15.0015724 C33.8597975,14.3015724 33.4597975,13.6015724 32.9597975,12.8015724 Z" id="Path"></path>
            <path d="M25.1597975,11.0015724 C25.6597975,11.8015724 26.1597975,12.7015724 26.7597975,13.7015724 C28.4597975,12.8015724 30.3597975,12.1015724 32.2597975,11.6015724 C31.5597975,10.5015724 31.0597975,9.50157236 30.6597975,8.80157236 C28.6597975,9.40157236 26.8597975,10.1015724 25.1597975,11.0015724 Z" id="Path"></path>
            <path d="M54.4597975,11.0015724 C52.7597975,10.1015724 50.9597975,9.40157236 49.0597975,8.80157236 L47.4597975,11.5015724 C49.3597975,12.0015724 51.1597975,12.7015724 52.9597975,13.6015724 C53.4597975,12.7015724 53.9597975,11.8015724 54.4597975,11.0015724 Z" id="Path"></path>
            <path d="M26.3597975,32.6015724 L24.0597975,32.6015724 C23.2597975,34.4015724 22.7597975,36.3015724 22.5597975,38.4015724 C23.2597975,38.4015724 23.9597975,38.4015724 24.5597975,38.4015724 C24.8597975,36.3015724 25.4597975,34.3015724 26.3597975,32.6015724 Z" id="Path"></path>
            <path d="M24.1597975,26.2015724 L25.4597975,28.4015724 C26.6597975,26.9015724 28.1597975,25.5015724 29.8597975,24.4015724 C29.4597975,23.7015724 29.0597975,23.1015724 28.6597975,22.4015724 C26.9597975,23.4015724 25.4597975,24.7015724 24.1597975,26.2015724 Z" id="Path"></path>
            <path d="M22.8597975,32.6015724 L20.3597975,32.6015724 C19.6597975,34.4015724 19.2597975,36.3015724 19.1597975,38.4015724 C19.9597975,38.4015724 20.7597975,38.4015724 21.5597975,38.4015724 C21.6597975,36.3015724 22.1597975,34.4015724 22.8597975,32.6015724 Z" id="Path"></path>
            <path d="M15.6597975,38.3015724 C16.4597975,38.3015724 17.2597975,38.3015724 18.0597975,38.3015724 C18.1597975,36.3015724 18.5597975,34.4015724 19.2597975,32.5015724 L16.7597975,32.5015724 C16.1597975,34.4015724 15.7597975,36.3015724 15.6597975,38.3015724 Z" id="Path"></path>
            <path d="M28.0597975,21.4015724 C27.6597975,20.7015724 27.2597975,20.1015724 26.8597975,19.4015724 C25.1597975,20.5015724 23.6597975,21.7015724 22.3597975,23.1015724 L23.6597975,25.2015724 C24.8597975,23.7015724 26.3597975,22.4015724 28.0597975,21.4015724 Z" id="Path"></path>
            <path d="M27.1597975,31.2015724 C28.2597975,29.5015724 29.7597975,28.1015724 31.3597975,27.0015724 C31.0597975,26.4015724 30.6597975,25.9015724 30.3597975,25.3015724 C28.6597975,26.4015724 27.2597975,27.8015724 26.0597975,29.3015724 L27.1597975,31.2015724 Z" id="Path"></path>
            <path d="M32.8597975,29.5015724 C32.5597975,28.9015724 32.1597975,28.3015724 31.6597975,27.5015724 C29.9597975,28.6015724 28.5597975,30.1015724 27.4597975,31.8015724 L27.9597975,32.6015724 L27.0597975,32.6015724 C26.0597975,34.3015724 25.4597975,36.3015724 25.2597975,38.4015724 C26.0597975,38.4015724 26.8597975,38.4015724 27.5597975,38.4015724 C27.9597975,34.7015724 29.9597975,31.5015724 32.8597975,29.5015724 Z" id="Path"></path>
            <path d="M34.6597975,32.6015724 C34.6597975,32.6015724 34.5597975,32.5015724 34.4597975,32.3015724 C32.4597975,33.7015724 31.1597975,35.8015724 30.7597975,38.3015724 C31.1597975,38.3015724 31.4597975,38.3015724 31.8597975,38.3015724 C37.7597975,38.3015724 34.6597975,32.6015724 34.6597975,32.6015724 Z" id="Path"></path>
            <path d="M34.2597975,31.8015724 C33.9597975,31.4015724 33.6597975,30.8015724 33.2597975,30.0015724 C30.5597975,31.9015724 28.6597975,34.9015724 28.2597975,38.3015724 C28.9597975,38.3015724 29.6597975,38.3015724 30.3597975,38.3015724 C30.5597975,35.6015724 32.0597975,33.3015724 34.2597975,31.8015724 Z" id="Path"></path>
            <path d="M24.9597975,16.3015724 C23.3597975,17.3015724 21.7597975,18.6015724 20.3597975,19.9015724 L21.6597975,22.1015724 C23.0597975,20.7015724 24.5597975,19.5015724 26.1597975,18.4015724 C25.8597975,17.7015724 25.4597975,17.0015724 24.9597975,16.3015724 Z" id="Path"></path>
            <path d="M0.659797485,31.0015724 C-0.540202515,34.0015724 0.0597974848,35.8015724 1.15979748,36.9015724 C1.45979748,32.7015724 2.45979748,28.6015724 4.05979748,24.9015724 C2.85979748,26.5015724 1.75979748,28.4015724 0.659797485,31.0015724 Z" id="Path"></path>
            <path d="M19.3597975,6.90157236 C18.7597975,5.90157236 18.2597975,5.10157236 18.0597975,4.70157236 C17.7597975,4.30157236 17.5597975,3.90157236 17.2597975,3.70157236 C15.2597975,4.90157236 13.4597975,6.30157236 11.7597975,7.80157236 C11.5597975,9.50157236 11.5597975,11.4015724 11.6597975,13.3015724 C13.8597975,10.8015724 16.5597975,8.70157236 19.3597975,6.90157236 Z" id="Path"></path>
            <path d="M5.45979748,29.1015724 C6.35979748,24.4015724 9.55979748,19.2015724 9.55979748,19.2015724 C8.85979748,19.9015724 8.15979748,20.5015724 7.55979748,21.1015724 C4.65979748,26.1015724 2.85979748,31.8015724 2.55979748,37.9015724 C3.45979748,38.3015724 4.35979748,38.4015724 4.75979748,38.4015724 C4.95979748,38.4015724 5.35979748,38.4015724 6.05979748,38.4015724 C6.15979748,36.3015724 6.45979748,34.2015724 6.95979748,32.1015724 C6.05979748,31.6015724 5.15979748,30.7015724 5.45979748,29.1015724 Z" id="Path"></path>
            <path d="M13.7597975,3.10157236 C13.0597975,3.60157236 12.5597975,4.40157236 12.2597975,5.50157236 C13.4597975,4.60157236 14.6597975,3.70157236 15.8597975,2.80157236 C14.6597975,2.60157236 13.7597975,3.10157236 13.7597975,3.10157236 Z" id="Path"></path>
            <path d="M19.6597975,18.7015724 C21.0597975,17.4015724 22.5597975,16.2015724 24.2597975,15.1015724 C23.7597975,14.2015724 23.1597975,13.3015724 22.6597975,12.4015724 C21.0597975,13.4015724 19.4597975,14.6015724 18.0597975,15.9015724 L19.6597975,18.7015724 Z" id="Path"></path>
            <path d="M12.0597975,38.3015724 C12.8597975,38.3015724 13.6597975,38.3015724 14.5597975,38.3015724 C14.6597975,36.3015724 15.0597975,34.4015724 15.5597975,32.5015724 L12.9597975,32.5015724 C12.5597975,34.4015724 12.1597975,36.3015724 12.0597975,38.3015724 Z" id="Path"></path>
            <path d="M11.5597975,32.6015724 L9.05979748,32.6015724 C9.05979748,32.6015724 8.75979748,32.6015724 8.35979748,32.5015724 C7.95979748,34.4015724 7.65979748,36.3015724 7.55979748,38.3015724 C8.45979748,38.3015724 9.45979748,38.3015724 10.6597975,38.3015724 C10.7597975,36.3015724 11.0597975,34.4015724 11.5597975,32.6015724 Z" id="Path"></path>
            <path d="M11.6597975,15.3015724 C11.8597975,17.2015724 12.0597975,19.0015724 12.2597975,20.3015724 C12.4597975,20.0015724 12.6597975,19.8015724 12.7597975,19.6015724 C13.9597975,7.30157236 16.9597975,14.1015724 16.9597975,14.1015724 L17.2597975,14.7015724 C18.6597975,13.4015724 20.2597975,12.2015724 21.8597975,11.2015724 C21.1597975,10.1015724 20.5597975,9.00157236 20.0597975,8.10157236 C16.9597975,10.1015724 14.1597975,12.5015724 11.6597975,15.3015724 Z" id="Path"></path>
            <path d="M19.1597975,41.2015724 C19.2597975,43.2015724 19.7597975,45.1015724 20.3597975,47.0015724 L22.9597975,47.0015724 C22.1597975,45.2015724 21.6597975,43.3015724 21.5597975,41.2015724 C20.7597975,41.2015724 19.9597975,41.2015724 19.1597975,41.2015724 Z" id="Path"></path>
            <path d="M27.5597975,41.2015724 C26.8597975,41.2015724 26.0597975,41.2015724 25.2597975,41.2015724 C25.4597975,43.3015724 26.1597975,45.2015724 27.0597975,47.0015724 L29.7597975,47.0015724 L29.7597975,50.4015724 C31.3597975,51.9015724 33.3597975,53.1015724 35.5597975,53.8015724 C35.5597975,53.0015724 35.5597975,52.2015724 35.5597975,51.4015724 C31.2597975,49.7015724 28.0597975,45.9015724 27.5597975,41.2015724 Z" id="Path"></path>
            <path d="M19.2597975,47.0015724 C18.6597975,45.2015724 18.2597975,43.2015724 18.0597975,41.2015724 C17.2597975,41.2015724 16.4597975,41.2015724 15.6597975,41.2015724 C15.7597975,43.2015724 16.1597975,45.1015724 16.7597975,47.0015724 L19.2597975,47.0015724 Z" id="Path"></path>
            <path d="M29.7597975,53.8015724 C31.4597975,55.0015724 33.4597975,56.0015724 35.5597975,56.5015724 C35.5597975,55.8015724 35.5597975,55.1015724 35.5597975,54.4015724 C33.3597975,53.8015724 31.4597975,52.7015724 29.7597975,51.2015724 L29.7597975,53.8015724 Z" id="Path"></path>
            <path d="M30.1597975,41.2015724 C29.5597975,41.2015724 28.8597975,41.2015724 28.0597975,41.2015724 C28.5597975,45.5015724 31.4597975,49.1015724 35.4597975,50.7015724 C35.4597975,49.9015724 35.4597975,49.1015724 35.4597975,48.5015724 C32.6597975,47.1015724 30.6597975,44.4015724 30.1597975,41.2015724 Z" id="Path"></path>
            <path d="M31.9597975,41.2015724 C31.7597975,41.2015724 31.3597975,41.2015724 30.8597975,41.2015724 C31.3597975,44.0015724 33.0597975,46.5015724 35.5597975,47.8015724 C35.5597975,46.0015724 35.5597975,44.9015724 35.5597975,44.7015724 C35.4597975,42.4015724 34.9597975,41.2015724 31.9597975,41.2015724 Z" id="Path"></path>
            <path d="M22.5597975,41.2015724 C22.7597975,43.2015724 23.2597975,45.2015724 24.0597975,47.0015724 L26.3597975,47.0015724 C25.4597975,45.3015724 24.8597975,43.3015724 24.6597975,41.2015724 C23.9597975,41.2015724 23.2597975,41.2015724 22.5597975,41.2015724 Z" id="Path"></path>
            <path d="M9.35979748,41.2015724 C8.65979748,41.2015724 8.05979748,41.3015724 7.55979748,41.5015724 C7.65979748,43.9015724 8.05979748,46.2015724 8.65979748,48.4015724 C9.95979748,49.6015724 11.5597975,50.7015724 13.1597975,51.8015724 C11.6597975,48.5015724 10.7597975,44.9015724 10.5597975,41.1015724 C10.1597975,41.2015724 9.65979748,41.2015724 9.35979748,41.2015724 Z" id="Path"></path>
            <path d="M29.7597975,61.7015724 C31.5597975,62.5015724 33.4597975,63.1015724 35.5597975,63.5015724 C35.5597975,62.7015724 35.5597975,61.9015724 35.5597975,61.1015724 C33.5597975,60.7015724 31.5597975,60.0015724 29.7597975,59.1015724 L29.7597975,61.7015724 Z" id="Path"></path>
            <path d="M29.7597975,75.6015724 C31.6597975,76.1015724 33.5597975,76.5015724 35.5597975,76.7015724 C35.5597975,76.6015724 35.5597975,76.6015724 35.5597975,76.5015724 C35.5597975,76.4015724 35.5597975,75.1015724 35.5597975,73.1015724 C33.5597975,72.8015724 31.6597975,72.4015724 29.7597975,71.8015724 L29.7597975,75.6015724 Z" id="Path"></path>
            <path d="M5.75979748,44.1015724 C5.75979748,44.8015724 6.15979748,45.6015724 6.75979748,46.4015724 C6.55979748,45.2015724 6.35979748,43.9015724 6.25979748,42.7015724 C5.75979748,43.4015724 5.75979748,44.1015724 5.75979748,44.1015724 Z" id="Path"></path>
            <path d="M29.7597975,57.9015724 C31.5597975,58.9015724 33.4597975,59.6015724 35.5597975,60.1015724 C35.5597975,59.3015724 35.5597975,58.5015724 35.5597975,57.7015724 C33.4597975,57.2015724 31.5597975,56.3015724 29.7597975,55.2015724 L29.7597975,57.9015724 Z" id="Path"></path>
            <path d="M32.6597975,79.9015724 C34.2597975,79.9015724 35.0597975,79.6015724 35.3597975,78.2015724 C33.4597975,78.0015724 31.5597975,77.6015724 29.7597975,77.1015724 C29.8597975,79.1015724 30.5597975,79.9015724 32.6597975,79.9015724 Z" id="Path"></path>
            <path d="M29.7597975,70.4015724 C31.6597975,71.0015724 33.5597975,71.5015724 35.5597975,71.7015724 C35.5597975,70.8015724 35.5597975,69.7015724 35.5597975,68.6015724 C33.5597975,68.3015724 31.6597975,67.8015724 29.7597975,67.1015724 L29.7597975,70.4015724 Z" id="Path"></path>
            <path d="M14.4597975,47.0015724 L15.6597975,47.0015724 C15.1597975,45.2015724 14.7597975,43.2015724 14.6597975,41.2015724 C13.7597975,41.2015724 12.9597975,41.2015724 12.1597975,41.2015724 C12.2597975,43.4015724 12.6597975,45.5015724 13.2597975,47.5015724 C13.4597975,46.9015724 14.4597975,47.0015724 14.4597975,47.0015724 Z" id="Path"></path>
            <path d="M29.7597975,65.6015724 C31.5597975,66.3015724 33.5597975,66.8015724 35.5597975,67.2015724 C35.5597975,66.4015724 35.5597975,65.5015724 35.5597975,64.7015724 C33.5597975,64.4015724 31.6597975,63.8015724 29.7597975,63.0015724 L29.7597975,65.6015724 Z" id="Path"></path>
            <path d="M13.9597975,49.7015724 C14.4597975,51.0015724 15.0597975,52.2015724 15.6597975,53.3015724 C17.6597975,54.5015724 19.4597975,55.5015724 20.5597975,56.0015724 C20.3597975,55.8015724 20.1597975,55.5015724 19.9597975,55.3015724 C16.6597975,52.7015724 14.8597975,50.9015724 13.9597975,49.7015724 Z" id="Path"></path>
            <path d="M67.6597975,53.4015724 C66.4597975,52.5015724 63.3597975,50.0015724 58.6597975,50.0015724 C57.8597975,50.0015724 55.8597975,50.0015724 53.8597975,51.0015724 C51.8597975,52.0015724 48.6597975,54.6015724 48.6597975,59.7015724 C48.6597975,60.4015724 48.6597975,61.8015724 49.3597975,63.4015724 C50.1597975,65.4015724 52.4597975,69.1015724 58.7597975,69.1015724 C59.2597975,69.1015724 60.0597975,69.1015724 61.2597975,68.9015724 C62.1597975,68.7015724 64.2597975,68.1015724 65.9597975,67.1015724 C66.4597975,66.8015724 67.0597975,66.4015724 67.6597975,66.0015724 L67.6597975,72.9015724 C66.1597975,73.4015724 62.6597975,74.9015724 58.0597975,74.9015724 C56.3597975,74.9015724 51.4597975,74.8015724 47.4597975,71.8015724 C45.2597975,70.2015724 41.3597975,66.2015724 41.3597975,59.5015724 C41.3597975,56.9015724 42.0597975,53.8015724 43.4597975,51.4015724 C43.8597975,50.8015724 44.5597975,49.7015724 45.8597975,48.5015724 C47.3597975,47.0015724 49.2597975,45.7015724 51.4597975,45.0015724 C54.1597975,44.1015724 56.8597975,44.0015724 57.8597975,44.0015724 C58.9597975,44.0015724 62.0597975,44.1015724 65.1597975,45.0015724 C66.0597975,45.3015724 66.9597975,45.6015724 67.8597975,46.0015724 L67.8597975,53.4015724 L67.6597975,53.4015724 Z" id="Path"></path>
            <path d="M92.0597975,44.5015724 C93.9597975,44.9015724 98.2597975,46.0015724 101.659797,49.5015724 C103.059797,51.0015724 105.759797,54.5015724 105.759797,59.8015724 C105.759797,61.0015724 105.659797,63.4015724 104.359797,66.2015724 C101.459797,72.3015724 95.1597975,75.1015724 87.8597975,75.1015724 C86.1597975,75.1015724 80.9597975,75.0015724 76.5597975,72.1015724 C74.1597975,70.5015724 69.8597975,66.8015724 69.8597975,59.9015724 C69.8597975,58.8015724 69.9597975,56.1015724 71.2597975,53.2015724 C73.9597975,47.3015724 80.4597975,43.9015724 87.6597975,43.9015724 C88.2597975,44.1015724 90.1597975,44.1015724 92.0597975,44.5015724 Z M81.2597975,52.2015724 C79.9597975,53.1015724 77.0597975,55.6015724 77.1597975,59.7015724 C77.1597975,60.4015724 77.1597975,61.8015724 78.0597975,63.5015724 C79.7597975,67.2015724 83.8597975,69.1015724 88.2597975,69.1015724 C91.5597975,69.1015724 93.4597975,68.1015724 94.5597975,67.3015724 C97.1597975,65.5015724 98.4597975,62.6015724 98.4597975,59.7015724 C98.4597975,58.6015724 98.2597975,55.8015724 95.9597975,53.4015724 C94.9597975,52.4015724 92.2597975,50.2015724 87.9597975,50.2015724 C86.8597975,50.2015724 83.7597975,50.4015724 81.2597975,52.2015724 Z" id="Shape"></path>
            <polygon id="Path" points="128.459797 44.8015724 128.459797 50.5015724 116.659797 50.5015724 116.659797 56.4015724 128.259797 56.4015724 128.259797 62.1015724 116.659797 62.1015724 116.659797 68.4015724 128.459797 68.4015724 128.459797 74.3015724 109.359797 74.3015724 109.359797 44.8015724"></polygon>
            <path d="M148.259797,52.6015724 C147.859797,52.1015724 146.159797,49.8015724 143.259797,49.8015724 C141.459797,49.8015724 139.759797,50.8015724 139.759797,52.5015724 C139.759797,54.8015724 142.959797,55.9015724 144.559797,56.5015724 C147.759797,57.7015724 148.759797,58.2015724 150.059797,59.2015724 C151.359797,60.2015724 153.259797,62.0015724 153.259797,65.5015724 C153.259797,69.2015724 151.159797,71.3015724 150.059797,72.2015724 C149.759797,72.5015724 148.859797,73.2015724 147.659797,73.8015724 C145.159797,75.0015724 142.359797,75.1015724 141.459797,75.1015724 C140.759797,75.1015724 138.059797,75.0015724 135.759797,74.3015724 C133.059797,73.4015724 130.959797,71.5015724 130.359797,70.9015724 L135.259797,66.2015724 C136.859797,67.8015724 138.759797,69.6015724 141.559797,69.6015724 C143.759797,69.6015724 145.659797,68.2015724 145.659797,66.2015724 C145.659797,65.6015724 145.459797,65.0015724 145.059797,64.5015724 C144.159797,63.3015724 141.959797,62.5015724 140.659797,62.0015724 C138.959797,61.2015724 137.259797,60.4015724 135.759797,59.4015724 C134.559797,58.6015724 132.059797,56.5015724 132.059797,52.8015724 C132.059797,50.3015724 133.159797,48.7015724 133.759797,47.9015724 C136.759797,44.2015724 141.359797,44.0015724 143.059797,44.0015724 C143.859797,44.0015724 146.259797,44.1015724 148.559797,45.0015724 C150.759797,45.9015724 152.259797,47.4015724 152.759797,47.9015724 L148.259797,52.6015724 Z" id="Path"></path>
        </g>
    </g>
</svg>