<?xml version="1.0" encoding="UTF-8"?>
<svg width="87px" height="92px" viewBox="0 0 87 92" version="1.1" xmlns="http://www.w3.org/2000/svg" xmlns:xlink="http://www.w3.org/1999/xlink">
    <!-- Generator: Sketch 56.2 (81672) - https://sketch.com -->
    <title>Group 6</title>
    <desc>Created with Sketch.</desc>
    <g id="Page-1" stroke="none" stroke-width="1" fill="none" fill-rule="evenodd">
        <g id="Group-6" fill-rule="nonzero">
            <g id="Group">
                <g fill="#FFC50A" id="Path">
                    <path d="M31.3,15.4 C30.6,14.6 29.7,13.8 28.8,13.2 C28.6,13.6 28.3,14 28.1,14.3 C29,14.9 29.9,15.7 30.5,16.5 L31.3,15.4 Z"></path>
                    <path d="M34.1,19 C34.5,20 34.7,21.1 34.8,22.2 C35.2,22.2 35.7,22.2 36.1,22.2 C36,21.1 35.8,20 35.5,19 C35,19 34.6,19 34.1,19 Z"></path>
                    <path d="M32,19 C32.4,20 32.7,21.1 32.8,22.2 C33.2,22.2 33.7,22.2 34.1,22.2 C34,21.1 33.8,20 33.4,19 C32.9,19 32.5,19 32,19 Z"></path>
                    <path d="M32.3,13.6 C31.5,12.8 30.7,12.1 29.8,11.5 C29.6,11.9 29.3,12.3 29.1,12.6 C30,13.2 30.9,13.9 31.6,14.7 L32.3,13.6 Z"></path>
                    <path d="M30.1,19 C30.6,20 31,21.1 31.1,22.2 C31.5,22.2 31.9,22.2 32.2,22.2 C32.1,21.1 31.8,20 31.4,19 C30.8,19 30.4,19 30.1,19 Z"></path>
                    <path d="M29.2,19 L29.4,18.6 C28.8,17.6 28,16.8 27,16.2 C26.8,16.6 26.5,17 26.3,17.3 C27.9,18.4 29.1,20.2 29.3,22.3 C29.7,22.3 30.1,22.3 30.6,22.3 C30.5,21.1 30.1,20 29.6,19.1 C29.4,19 29.2,19 29.2,19 Z"></path>
                    <path d="M25.5,18.8 C25.5,18.9 25.4,18.9 25.4,18.9 C23.7,21.7 27.4,22.1 27.4,22.1 C27.4,22.1 27.5,22.1 27.6,22.1 C27.4,20.8 26.6,19.6 25.5,18.8 Z"></path>
                    <path d="M36.1,19 C36.4,20 36.6,21.1 36.7,22.2 C37.2,22.2 37.6,22.2 38.1,22.2 C38,21.1 37.9,20 37.6,19 C37.1,19 36.7,19 36.1,19 Z"></path>
                    <path d="M27.8,14.9 C27.6,15.2 27.4,15.6 27.2,15.9 C28.1,16.5 28.9,17.3 29.6,18.3 L30.2,17.2 C29.6,16.3 28.8,15.5 27.8,14.9 Z"></path>
                    <path d="M26.2,17.5 C26,17.9 25.8,18.2 25.6,18.5 C26.8,19.3 27.6,20.7 27.9,22.2 C28.2,22.2 28.6,22.2 29.1,22.2 C28.8,20.3 27.8,18.6 26.2,17.5 Z"></path>
                    <path d="M36.1,7.3 C36.1,7.3 36.2,7.2 36.1,7.3 C35.3,6.5 34.5,5.9 33.6,5.3 C33.3,5.8 33,6.4 32.6,7 C33.5,7.6 34.4,8.2 35.2,9 L36.1,7.3 Z"></path>
                    <path d="M38.6,7.1 C41.3,8.8 41.4,11.4 41.4,11.4 C41.6,10.3 41.6,9.3 41.4,8.4 C39.7,6.2 37.6,4.3 35.2,2.7 C34.9,2.9 34.8,3.2 34.7,3.4 C34.6,3.5 34.4,3.9 34,4.5 C35,5.1 36,5.9 36.9,6.6 C37.3,6.6 37.9,6.6 38.6,7.1 Z"></path>
                    <path d="M43.2,16.2 C43.8,18 44.1,19.8 44.3,21.8 C44.9,21.3 44.9,20.6 44.9,20.6 C44.8,18.5 44.2,17.1 43.2,16.2 Z"></path>
                    <path d="M40.7,6.2 C40.3,5.5 39.9,4.9 39.4,4.2 C38,2.3 36.8,2 36,2.2 C37.7,3.4 39.3,4.7 40.7,6.2 Z"></path>
                    <path d="M39.4,14.6 C39.7,15.1 39.9,15.6 40.1,16.2 C41.1,16.9 41.1,17.6 40.7,18.1 C41.1,19.4 41.3,20.8 41.3,22.3 C41.9,22.3 42.4,22.3 42.7,22.3 C42.9,22.3 43.1,22.3 43.3,22.2 C43.2,19.8 42.7,17.5 41.9,15.4 C41.2,14.9 40.3,14.7 39.4,14.6 Z"></path>
                    <path d="M33.4,11.9 C32.6,11.1 31.8,10.5 30.8,9.9 C30.6,10.3 30.3,10.7 30.1,11.1 C31,11.7 31.9,12.4 32.6,13.2 L33.4,11.9 Z"></path>
                    <path d="M36.5,14.5 C36.5,14.6 36.6,14.6 36.6,14.7 C37.6,15 38.4,15.3 39,15.5 C38.8,15.1 38.7,14.8 38.5,14.4 C37.7,14.4 36.9,14.4 36.5,14.5 Z"></path>
                    <path d="M38.8,19 C38.7,19 38.6,19 38.4,19 C38.7,20 38.8,21.1 38.9,22.2 C39.5,22.2 40.1,22.2 40.6,22.2 C40.5,21 40.4,19.7 40.1,18.6 C39.7,18.8 39.2,19 38.8,19 Z"></path>
                    <path d="M34.7,9.6 C33.9,8.9 33,8.2 32.1,7.6 C31.8,8.1 31.5,8.6 31.2,9.1 C32.1,9.7 33,10.4 33.8,11.1 L34.7,9.6 Z"></path>
                    <path d="M25,16.5 C25.2,16.2 25.4,15.8 25.7,15.4 C24.7,15 23.7,14.8 22.6,14.8 C21.5,14.8 20.4,15 19.5,15.4 C19.7,15.8 20,16.2 20.2,16.5 C21,16.2 21.8,16 22.7,16 C23.4,16.1 24.2,16.2 25,16.5 Z"></path>
                    <path d="M28.4,10.8 C27.4,10.3 26.4,10 25.3,9.7 L24.6,10.9 C25.7,11.1 26.8,11.4 27.8,11.9 C28,11.5 28.2,11.1 28.4,10.8 Z"></path>
                    <path d="M18.3,13.6 C19.3,13.1 20.4,12.8 21.6,12.7 C21.4,12.3 21.1,11.9 20.9,11.4 C19.8,11.6 18.7,11.9 17.7,12.4 C17.8,12.8 18.1,13.2 18.3,13.6 Z"></path>
                    <path d="M16.6,10.8 C16.8,11.2 17.1,11.6 17.3,11.9 C18.3,11.4 19.4,11.1 20.5,10.9 C20.3,10.5 20,10.1 19.8,9.7 C18.6,9.9 17.6,10.3 16.6,10.8 Z"></path>
                    <path d="M31.9,5 C32,4.8 32.1,4.6 32.2,4.5 C31.3,4 30.3,3.6 29.2,3.2 C29.2,3.2 29.2,3.3 29.1,3.3 L28.1,5 C29.2,5.3 30.2,5.7 31.1,6.2 C31.5,5.6 31.7,5.2 31.9,5 Z"></path>
                    <path d="M19.2,15.1 C20.2,14.7 21.3,14.4 22.5,14.4 C23.7,14.4 24.8,14.6 25.8,15.1 C26,14.8 26.2,14.5 26.4,14.1 C25.4,13.7 24.3,13.4 23.1,13.3 L22.5,14.3 C22.5,14.3 22.3,13.9 21.9,13.3 C20.7,13.4 19.6,13.7 18.6,14.1 C18.8,14.5 19,14.8 19.2,15.1 Z"></path>
                    <path d="M21,18.1 C21,18.1 21,18.1 21,18.1 C21.7,19.3 23.3,19.2 24,18.1 C24,18.1 24,18.1 24,18.1 C23.5,18 23,17.9 22.5,17.9 C22,17.9 21.5,18 21,18.1 Z"></path>
                    <path d="M20.2,16.8 C20.4,17.2 20.6,17.5 20.8,17.8 C21.3,17.6 21.9,17.5 22.5,17.5 C23.1,17.5 23.7,17.6 24.2,17.8 C24.3,17.6 24.6,17.2 24.8,16.8 C24.1,16.5 23.3,16.4 22.5,16.4 C21.7,16.4 20.9,16.5 20.2,16.8 Z"></path>
                    <path d="M27.4,12.4 C26.4,11.9 25.3,11.6 24.2,11.4 L23.5,12.7 C24.7,12.8 25.8,13.1 26.8,13.6 C26.9,13.2 27.2,12.8 27.4,12.4 Z"></path>
                    <path d="M21.5,2.1 C21.5,2.1 21.5,2.1 21.5,2.1 C21.5,2.1 21.6,2.1 21.5,2.1 C21.6,2.1 21.6,2.1 21.5,2.1 Z"></path>
                    <path d="M29.4,9 C28.4,8.5 27.4,8.1 26.3,7.9 L25.5,9.2 C26.6,9.4 27.6,9.8 28.6,10.3 C29,9.8 29.2,9.4 29.4,9 Z"></path>
                    <path d="M31.6,2.5 C31.2,2.3 30.5,2 29.8,2.5 C30.7,2.8 31.5,3.2 32.3,3.6 C32.3,3 31.9,2.7 31.6,2.5 Z"></path>
                    <path d="M20.3,1.4 C19.4,1 18.1,0.7 15.7,0.6 C11.2,0.5 12.1,3.2 12.4,3.7 C14.8,2.5 17.5,1.6 20.3,1.4 Z"></path>
                    <path d="M12.8,4.4 C13,4.8 13.4,5.4 13.8,6.1 C14.8,5.6 15.8,5.2 16.8,4.9 C16.6,4.5 16.2,3.7 16.3,2.9 C15.2,3.3 14,3.8 12.8,4.4 Z"></path>
                    <path d="M18.7,7.9 C17.6,8.2 16.6,8.6 15.6,9 C15.8,9.4 16.1,9.8 16.3,10.2 C17.3,9.7 18.3,9.4 19.4,9.1 C19.2,8.7 18.9,8.3 18.7,7.9 Z"></path>
                    <path d="M14.3,6.8 C14.6,7.3 14.9,7.8 15.2,8.3 C16.2,7.8 17.2,7.4 18.3,7.1 C17.9,6.5 17.6,5.9 17.4,5.6 C16.3,5.9 15.2,6.3 14.3,6.8 Z"></path>
                    <path d="M30.7,6.9 C29.7,6.4 28.7,6 27.7,5.7 L26.8,7.2 C27.9,7.5 28.9,7.9 29.9,8.4 C30.2,7.8 30.5,7.3 30.7,6.9 Z"></path>
                    <path d="M14.9,19 L13.6,19 C13.1,20 12.8,21.1 12.8,22.2 C13.2,22.2 13.6,22.2 13.9,22.2 C14.1,21.1 14.4,20 14.9,19 Z"></path>
                    <path d="M13.7,15.4 L14.4,16.6 C15.1,15.7 15.9,15 16.9,14.4 C16.7,14 16.4,13.6 16.2,13.3 C15.3,13.8 14.4,14.5 13.7,15.4 Z"></path>
                    <path d="M13,19 L11.6,19 C11.2,20 11,21.1 10.9,22.2 C11.3,22.2 11.8,22.2 12.2,22.2 C12.3,21.1 12.6,20 13,19 Z"></path>
                    <path d="M8.9,22.2 C9.3,22.2 9.8,22.2 10.2,22.2 C10.3,21.1 10.5,20 10.9,19 L9.5,19 C9.2,20 9,21.1 8.9,22.2 Z"></path>
                    <path d="M15.9,12.7 C15.7,12.3 15.5,11.9 15.2,11.6 C14.3,12.2 13.4,12.9 12.7,13.7 L13.4,14.9 C14.1,14 14.9,13.3 15.9,12.7 Z"></path>
                    <path d="M15.4,18.2 C16,17.3 16.8,16.5 17.8,15.8 C17.6,15.5 17.4,15.2 17.2,14.8 C16.3,15.4 15.4,16.2 14.8,17.1 L15.4,18.2 Z"></path>
                    <path d="M18.6,17.3 C18.4,17 18.2,16.6 17.9,16.2 C17,16.8 16.2,17.6 15.5,18.6 L15.8,19 L15.3,19 C14.7,20 14.4,21.1 14.3,22.2 C14.7,22.2 15.2,22.2 15.6,22.2 C15.8,20.2 17,18.4 18.6,17.3 Z"></path>
                    <path d="M19.6,19 C19.6,19 19.6,18.9 19.5,18.9 C18.4,19.7 17.6,20.9 17.4,22.3 C17.6,22.3 17.8,22.3 18,22.3 C21.3,22.2 19.6,19 19.6,19 Z"></path>
                    <path d="M19.4,18.5 C19.3,18.3 19.1,17.9 18.8,17.5 C17.3,18.6 16.2,20.2 16,22.2 C16.4,22.2 16.8,22.2 17.2,22.2 C17.3,20.7 18.2,19.4 19.4,18.5 Z"></path>
                    <path d="M14.2,9.8 C13.3,10.4 12.4,11.1 11.6,11.8 L12.3,13 C13.1,12.2 13.9,11.5 14.8,10.9 C14.6,10.6 14.4,10.2 14.2,9.8 Z"></path>
                    <path d="M0.5,18.1 C-0.2,19.8 0.2,20.8 0.8,21.4 C1,19 1.5,16.8 2.4,14.7 C1.7,15.6 1.1,16.6 0.5,18.1 Z"></path>
                    <path d="M11,4.5 C10.7,3.9 10.4,3.5 10.3,3.3 C10.2,3.1 10,2.9 9.8,2.7 C8.7,3.4 7.7,4.2 6.7,5 C6.6,5.9 6.6,7 6.6,8.1 C7.9,6.8 9.4,5.5 11,4.5 Z"></path>
                    <path d="M3.2,17 C3.7,14.3 5.5,11.4 5.5,11.4 C5.1,11.8 4.7,12.1 4.4,12.4 C2.8,15.2 1.8,18.4 1.6,21.8 C2.1,22 2.6,22.1 2.8,22.1 C2.9,22.1 3.2,22.1 3.6,22.1 C3.7,20.9 3.8,19.7 4.1,18.6 C3.5,18.4 3,17.9 3.2,17 Z"></path>
                    <path d="M7.8,2.4 C7.4,2.7 7.1,3.1 6.9,3.7 C7.6,3.2 8.2,2.7 9,2.2 C8.4,2.1 7.8,2.4 7.8,2.4 Z"></path>
                    <path d="M11.2,11.2 C12,10.4 12.9,9.8 13.8,9.2 C13.5,8.7 13.2,8.2 12.9,7.7 C12,8.3 11.1,8.9 10.3,9.7 L11.2,11.2 Z"></path>
                    <path d="M6.9,22.2 C7.3,22.2 7.8,22.2 8.3,22.2 C8.4,21.1 8.6,20 8.9,19 L7.4,19 C7.1,20 7,21.1 6.9,22.2 Z"></path>
                    <path d="M6.6,19 L5.2,19 C5.2,19 5,19 4.8,19 C4.6,20.1 4.4,21.2 4.4,22.3 C4.9,22.3 5.5,22.3 6.1,22.3 C6.2,21.1 6.3,20 6.6,19 Z"></path>
                    <path d="M6.7,9.3 C6.8,10.4 6.9,11.4 7,12.1 C7.1,12 7.2,11.8 7.3,11.7 C7.9,4.8 9.6,8.6 9.6,8.6 L9.8,8.9 C10.6,8.2 11.5,7.5 12.4,6.9 C12,6.3 11.7,5.7 11.4,5.2 C9.7,6.3 8.1,7.7 6.7,9.3 Z"></path>
                    <path d="M10.9,23.8 C11,24.9 11.2,26 11.6,27 L13,27 C12.6,26 12.3,24.9 12.2,23.8 C11.8,23.8 11.3,23.8 10.9,23.8 Z"></path>
                    <path d="M15.6,23.8 C15.2,23.8 14.8,23.8 14.3,23.8 C14.4,25 14.8,26.1 15.3,27 L16.8,27 L16.8,28.9 C17.7,29.8 18.8,30.4 20,30.8 C20,30.3 20,29.9 20,29.5 C17.7,28.6 15.9,26.5 15.6,23.8 Z"></path>
                    <path d="M10.9,27.1 C10.5,26.1 10.3,25 10.2,23.9 C9.7,23.9 9.3,23.9 8.9,23.9 C9,25 9.2,26.1 9.5,27.1 L10.9,27.1 Z"></path>
                    <path d="M16.8,30.9 C17.8,31.6 18.9,32.1 20,32.4 C20,32 20,31.6 20,31.2 C18.8,30.8 17.7,30.2 16.8,29.4 L16.8,30.9 Z"></path>
                    <path d="M17.1,23.8 C16.8,23.8 16.4,23.8 15.9,23.8 C16.2,26.2 17.8,28.3 20,29.1 C20,28.6 20,28.2 20,27.8 C18.5,27.1 17.4,25.6 17.1,23.8 Z"></path>
                    <path d="M18.1,23.8 C18,23.8 17.7,23.8 17.5,23.8 C17.8,25.4 18.8,26.8 20.1,27.5 C20.1,26.5 20.1,25.9 20.1,25.7 C20.1,24.5 19.8,23.8 18.1,23.8 Z"></path>
                    <path d="M12.8,23.8 C12.9,24.9 13.2,26 13.7,27 L15,27 C14.5,26 14.1,24.9 14,23.8 C13.6,23.8 13.2,23.8 12.8,23.8 Z"></path>
                    <path d="M5.4,23.8 C5,23.8 4.7,23.9 4.4,24 C4.5,25.3 4.7,26.7 5,27.9 C5.7,28.6 6.6,29.2 7.5,29.8 C6.7,28 6.1,25.9 6,23.8 C5.8,23.8 5.6,23.8 5.4,23.8 Z"></path>
                    <path d="M16.8,35.4 C17.8,35.9 18.9,36.2 20,36.4 C20,36 20,35.5 20,35.1 C18.9,34.9 17.8,34.5 16.8,34 L16.8,35.4 Z"></path>
                    <path d="M16.8,43.2 C17.8,43.5 18.9,43.7 20,43.8 C20,43.8 20,43.7 20,43.7 C20,43.6 20,42.9 20,41.8 C18.9,41.7 17.8,41.4 16.8,41.1 L16.8,43.2 Z"></path>
                    <path d="M3.4,25.4 C3.4,25.8 3.6,26.2 4,26.7 C3.9,26 3.8,25.3 3.7,24.6 C3.4,25 3.4,25.4 3.4,25.4 Z"></path>
                    <path d="M16.8,33.2 C17.8,33.8 18.9,34.2 20,34.4 C20,33.9 20,33.5 20,33 C18.8,32.7 17.7,32.2 16.8,31.6 L16.8,33.2 Z"></path>
                    <path d="M18.5,45.6 C19.4,45.6 19.9,45.4 20,44.6 C18.9,44.5 17.9,44.3 16.9,44 C16.9,45.1 17.3,45.6 18.5,45.6 Z"></path>
                    <path d="M16.8,40.3 C17.8,40.6 18.9,40.9 20,41 C20,40.5 20,39.9 20,39.2 C18.9,39 17.8,38.8 16.8,38.4 L16.8,40.3 Z"></path>
                    <path d="M8.2,27.1 L8.9,27.1 C8.6,26.1 8.4,25 8.3,23.9 C7.8,23.9 7.3,23.9 6.9,23.9 C7,25.1 7.2,26.3 7.5,27.5 C7.7,27.1 8.2,27.1 8.2,27.1 Z"></path>
                    <path d="M16.8,37.6 C17.8,38 18.9,38.3 20,38.5 C20,38 20,37.6 20,37.1 C18.9,36.9 17.8,36.6 16.8,36.1 L16.8,37.6 Z"></path>
                    <path d="M7.9,28.6 C8.2,29.3 8.5,30 8.9,30.6 C10,31.3 11.1,31.8 11.7,32.1 C11.6,32 11.5,31.8 11.4,31.7 C9.5,30.3 8.4,29.3 7.9,28.6 Z"></path>
                </g>
                <g transform="translate(23.000000, 25.000000)" fill="#FFFFFF">
                    <path d="M15.1,5.7 C14.4,5.2 12.7,3.8 10,3.8 C9.5,3.8 8.4,3.8 7.3,4.4 C6.2,5 4.4,6.5 4.4,9.3 C4.4,9.7 4.4,10.5 4.8,11.4 C5.2,12.5 6.5,14.6 10.1,14.6 C10.4,14.6 10.9,14.6 11.5,14.5 C12,14.4 13.2,14.1 14.1,13.5 C14.4,13.3 14.7,13.1 15,12.9 L15,16.8 C14.1,17.1 12.2,17.9 9.6,17.9 C8.7,17.9 5.9,17.8 3.6,16.1 C2.4,15.2 0.2,13 0.2,9.2 C0.2,7.7 0.6,6 1.4,4.7 C1.6,4.3 2,3.8 2.7,3.1 C3.6,2.3 4.6,1.5 5.8,1.1 C7.3,0.6 8.9,0.5 9.4,0.5 C10,0.5 11.7,0.6 13.5,1.1 C14,1.3 14.5,1.5 15,1.6 L15,5.7 L15.1,5.7 Z" id="Path"></path>
                    <path d="M28.9,0.7 C29.9,0.9 32.4,1.5 34.3,3.5 C35.1,4.3 36.6,6.3 36.6,9.3 C36.6,10 36.5,11.3 35.8,12.9 C34.2,16.3 30.6,17.9 26.5,17.9 C25.5,17.9 22.6,17.8 20.2,16.2 C18.9,15.3 16.4,13.2 16.4,9.4 C16.4,8.8 16.5,7.3 17.2,5.7 C18.7,2.4 22.4,0.5 26.4,0.5 C26.8,0.4 27.8,0.5 28.9,0.7 Z M22.8,5 C22.1,5.5 20.5,6.9 20.5,9.2 C20.5,9.6 20.5,10.4 21,11.3 C22,13.4 24.3,14.5 26.7,14.5 C28.6,14.5 29.6,13.9 30.2,13.5 C31.7,12.5 32.4,10.8 32.4,9.2 C32.4,8.6 32.3,7 31,5.7 C30.5,5.1 28.9,3.9 26.5,3.9 C25.9,3.9 24.2,4 22.8,5 Z" id="Shape"></path>
                    <polygon id="Path" points="49.4 0.9 49.4 4.1 42.7 4.1 42.7 7.4 49.2 7.4 49.2 10.6 42.7 10.6 42.7 14.2 49.3 14.2 49.3 17.5 38.6 17.5 38.6 0.9"></polygon>
                    <path d="M60.5,5.3 C60.3,5 59.3,3.7 57.7,3.7 C56.7,3.7 55.7,4.3 55.7,5.2 C55.7,6.5 57.5,7.1 58.4,7.5 C60.2,8.2 60.7,8.5 61.5,9 C62.2,9.5 63.3,10.6 63.3,12.5 C63.3,14.6 62.1,15.8 61.5,16.3 C61.3,16.5 60.8,16.9 60.2,17.2 C58.8,17.9 57.2,17.9 56.7,17.9 C56.3,17.9 54.8,17.9 53.5,17.4 C52,16.9 50.8,15.8 50.5,15.5 L53.2,12.9 C54.1,13.8 55.2,14.8 56.7,14.8 C57.9,14.8 59,14 59,12.9 C59,12.5 58.9,12.2 58.7,12 C58.2,11.3 57,10.9 56.2,10.6 C55.2,10.2 54.3,9.7 53.5,9.2 C52.8,8.7 51.4,7.6 51.4,5.5 C51.4,4.1 52,3.2 52.4,2.8 C54.1,0.7 56.7,0.6 57.6,0.6 C58,0.6 59.4,0.7 60.7,1.2 C61.9,1.7 62.8,2.6 63.1,2.8 L60.5,5.3 Z" id="Path"></path>
                </g>
            </g>
            <g id="Group-5" transform="translate(0.000000, 46.000000)">
                <g id="Group" fill="#FFC50A">
                    <path d="M31.3,15.4 C30.6,14.6 29.7,13.8 28.8,13.2 C28.6,13.6 28.3,14 28.1,14.3 C29,14.9 29.9,15.7 30.5,16.5 L31.3,15.4 Z" id="Path"></path>
                    <path d="M34.1,19 C34.5,20 34.7,21.1 34.8,22.2 C35.2,22.2 35.7,22.2 36.1,22.2 C36,21.1 35.8,20 35.5,19 C35,19 34.6,19 34.1,19 Z" id="Path"></path>
                    <path d="M32,19 C32.4,20 32.7,21.1 32.8,22.2 C33.2,22.2 33.7,22.2 34.1,22.2 C34,21.1 33.8,20 33.4,19 C32.9,19 32.5,19 32,19 Z" id="Path"></path>
                    <path d="M32.3,13.6 C31.5,12.8 30.7,12.1 29.8,11.5 C29.6,11.9 29.3,12.3 29.1,12.6 C30,13.2 30.9,13.9 31.6,14.7 L32.3,13.6 Z" id="Path"></path>
                    <path d="M30.1,19 C30.6,20 31,21.1 31.1,22.2 C31.5,22.2 31.9,22.2 32.2,22.2 C32.1,21.1 31.8,20 31.4,19 C30.8,19 30.4,19 30.1,19 Z" id="Path"></path>
                    <path d="M29.2,19 L29.4,18.6 C28.8,17.6 28,16.8 27,16.2 C26.8,16.6 26.5,17 26.3,17.3 C27.9,18.4 29.1,20.2 29.3,22.3 C29.7,22.3 30.1,22.3 30.6,22.3 C30.5,21.1 30.1,20 29.6,19.1 C29.4,19 29.2,19 29.2,19 Z" id="Path"></path>
                    <path d="M25.5,18.8 C25.5,18.9 25.4,18.9 25.4,18.9 C23.7,21.7 27.4,22.1 27.4,22.1 C27.4,22.1 27.5,22.1 27.6,22.1 C27.4,20.8 26.6,19.6 25.5,18.8 Z" id="Path"></path>
                    <path d="M36.1,19 C36.4,20 36.6,21.1 36.7,22.2 C37.2,22.2 37.6,22.2 38.1,22.2 C38,21.1 37.9,20 37.6,19 C37.1,19 36.7,19 36.1,19 Z" id="Path"></path>
                    <path d="M27.8,14.9 C27.6,15.2 27.4,15.6 27.2,15.9 C28.1,16.5 28.9,17.3 29.6,18.3 L30.2,17.2 C29.6,16.3 28.8,15.5 27.8,14.9 Z" id="Path"></path>
                    <path d="M26.2,17.5 C26,17.9 25.8,18.2 25.6,18.5 C26.8,19.3 27.6,20.7 27.9,22.2 C28.2,22.2 28.6,22.2 29.1,22.2 C28.8,20.3 27.8,18.6 26.2,17.5 Z" id="Path"></path>
                    <path d="M36.1,7.3 C36.1,7.3 36.2,7.2 36.1,7.3 C35.3,6.5 34.5,5.9 33.6,5.3 C33.3,5.8 33,6.4 32.6,7 C33.5,7.6 34.4,8.2 35.2,9 L36.1,7.3 Z" id="Path"></path>
                    <path d="M38.6,7.1 C41.3,8.8 41.4,11.4 41.4,11.4 C41.6,10.3 41.6,9.3 41.4,8.4 C39.7,6.2 37.6,4.3 35.2,2.7 C34.9,2.9 34.8,3.2 34.7,3.4 C34.6,3.5 34.4,3.9 34,4.5 C35,5.1 36,5.9 36.9,6.6 C37.3,6.6 37.9,6.6 38.6,7.1 Z" id="Path"></path>
                    <path d="M43.2,16.2 C43.8,18 44.1,19.8 44.3,21.8 C44.9,21.3 44.9,20.6 44.9,20.6 C44.8,18.5 44.2,17.1 43.2,16.2 Z" id="Path"></path>
                    <path d="M40.7,6.2 C40.3,5.5 39.9,4.9 39.4,4.2 C38,2.3 36.8,2 36,2.2 C37.7,3.4 39.3,4.7 40.7,6.2 Z" id="Path"></path>
                    <path d="M39.4,14.6 C39.7,15.1 39.9,15.6 40.1,16.2 C41.1,16.9 41.1,17.6 40.7,18.1 C41.1,19.4 41.3,20.8 41.3,22.3 C41.9,22.3 42.4,22.3 42.7,22.3 C42.9,22.3 43.1,22.3 43.3,22.2 C43.2,19.8 42.7,17.5 41.9,15.4 C41.2,14.9 40.3,14.7 39.4,14.6 Z" id="Path"></path>
                    <path d="M33.4,11.9 C32.6,11.1 31.8,10.5 30.8,9.9 C30.6,10.3 30.3,10.7 30.1,11.1 C31,11.7 31.9,12.4 32.6,13.2 L33.4,11.9 Z" id="Path"></path>
                    <path d="M36.5,14.5 C36.5,14.6 36.6,14.6 36.6,14.7 C37.6,15 38.4,15.3 39,15.5 C38.8,15.1 38.7,14.8 38.5,14.4 C37.7,14.4 36.9,14.4 36.5,14.5 Z" id="Path"></path>
                    <path d="M38.8,19 C38.7,19 38.6,19 38.4,19 C38.7,20 38.8,21.1 38.9,22.2 C39.5,22.2 40.1,22.2 40.6,22.2 C40.5,21 40.4,19.7 40.1,18.6 C39.7,18.8 39.2,19 38.8,19 Z" id="Path"></path>
                    <path d="M34.7,9.6 C33.9,8.9 33,8.2 32.1,7.6 C31.8,8.1 31.5,8.6 31.2,9.1 C32.1,9.7 33,10.4 33.8,11.1 L34.7,9.6 Z" id="Path"></path>
                    <path d="M25,16.5 C25.2,16.2 25.4,15.8 25.7,15.4 C24.7,15 23.7,14.8 22.6,14.8 C21.5,14.8 20.4,15 19.5,15.4 C19.7,15.8 20,16.2 20.2,16.5 C21,16.2 21.8,16 22.7,16 C23.4,16.1 24.2,16.2 25,16.5 Z" id="Path"></path>
                    <path d="M28.4,10.8 C27.4,10.3 26.4,10 25.3,9.7 L24.6,10.9 C25.7,11.1 26.8,11.4 27.8,11.9 C28,11.5 28.2,11.1 28.4,10.8 Z" id="Path"></path>
                    <path d="M18.3,13.6 C19.3,13.1 20.4,12.8 21.6,12.7 C21.4,12.3 21.1,11.9 20.9,11.4 C19.8,11.6 18.7,11.9 17.7,12.4 C17.8,12.8 18.1,13.2 18.3,13.6 Z" id="Path"></path>
                    <path d="M16.6,10.8 C16.8,11.2 17.1,11.6 17.3,11.9 C18.3,11.4 19.4,11.1 20.5,10.9 C20.3,10.5 20,10.1 19.8,9.7 C18.6,9.9 17.6,10.3 16.6,10.8 Z" id="Path"></path>
                    <path d="M31.9,5 C32,4.8 32.1,4.6 32.2,4.5 C31.3,4 30.3,3.6 29.2,3.2 C29.2,3.2 29.2,3.3 29.1,3.3 L28.1,5 C29.2,5.3 30.2,5.7 31.1,6.2 C31.5,5.6 31.7,5.2 31.9,5 Z" id="Path"></path>
                    <path d="M19.2,15.1 C20.2,14.7 21.3,14.4 22.5,14.4 C23.7,14.4 24.8,14.6 25.8,15.1 C26,14.8 26.2,14.5 26.4,14.1 C25.4,13.7 24.3,13.4 23.1,13.3 L22.5,14.3 C22.5,14.3 22.3,13.9 21.9,13.3 C20.7,13.4 19.6,13.7 18.6,14.1 C18.8,14.5 19,14.8 19.2,15.1 Z" id="Path"></path>
                    <path d="M21,18.1 C21,18.1 21,18.1 21,18.1 C21.7,19.3 23.3,19.2 24,18.1 C24,18.1 24,18.1 24,18.1 C23.5,18 23,17.9 22.5,17.9 C22,17.9 21.5,18 21,18.1 Z" id="Path"></path>
                    <path d="M20.2,16.8 C20.4,17.2 20.6,17.5 20.8,17.8 C21.3,17.6 21.9,17.5 22.5,17.5 C23.1,17.5 23.7,17.6 24.2,17.8 C24.3,17.6 24.6,17.2 24.8,16.8 C24.1,16.5 23.3,16.4 22.5,16.4 C21.7,16.4 20.9,16.5 20.2,16.8 Z" id="Path"></path>
                    <path d="M27.4,12.4 C26.4,11.9 25.3,11.6 24.2,11.4 L23.5,12.7 C24.7,12.8 25.8,13.1 26.8,13.6 C26.9,13.2 27.2,12.8 27.4,12.4 Z" id="Path"></path>
                    <path d="M21.5,2.1 C21.5,2.1 21.5,2.1 21.5,2.1 C21.5,2.1 21.6,2.1 21.5,2.1 C21.6,2.1 21.6,2.1 21.5,2.1 Z" id="Path"></path>
                    <path d="M29.4,9 C28.4,8.5 27.4,8.1 26.3,7.9 L25.5,9.2 C26.6,9.4 27.6,9.8 28.6,10.3 C29,9.8 29.2,9.4 29.4,9 Z" id="Path"></path>
                    <path d="M31.6,2.5 C31.2,2.3 30.5,2 29.8,2.5 C30.7,2.8 31.5,3.2 32.3,3.6 C32.3,3 31.9,2.7 31.6,2.5 Z" id="Path"></path>
                    <path d="M20.3,1.4 C19.4,1 18.1,0.7 15.7,0.6 C11.2,0.5 12.1,3.2 12.4,3.7 C14.8,2.5 17.5,1.6 20.3,1.4 Z" id="Path"></path>
                    <path d="M12.8,4.4 C13,4.8 13.4,5.4 13.8,6.1 C14.8,5.6 15.8,5.2 16.8,4.9 C16.6,4.5 16.2,3.7 16.3,2.9 C15.2,3.3 14,3.8 12.8,4.4 Z" id="Path"></path>
                    <path d="M18.7,7.9 C17.6,8.2 16.6,8.6 15.6,9 C15.8,9.4 16.1,9.8 16.3,10.2 C17.3,9.7 18.3,9.4 19.4,9.1 C19.2,8.7 18.9,8.3 18.7,7.9 Z" id="Path"></path>
                    <path d="M14.3,6.8 C14.6,7.3 14.9,7.8 15.2,8.3 C16.2,7.8 17.2,7.4 18.3,7.1 C17.9,6.5 17.6,5.9 17.4,5.6 C16.3,5.9 15.2,6.3 14.3,6.8 Z" id="Path"></path>
                    <path d="M30.7,6.9 C29.7,6.4 28.7,6 27.7,5.7 L26.8,7.2 C27.9,7.5 28.9,7.9 29.9,8.4 C30.2,7.8 30.5,7.3 30.7,6.9 Z" id="Path"></path>
                    <path d="M14.9,19 L13.6,19 C13.1,20 12.8,21.1 12.8,22.2 C13.2,22.2 13.6,22.2 13.9,22.2 C14.1,21.1 14.4,20 14.9,19 Z" id="Path"></path>
                    <path d="M13.7,15.4 L14.4,16.6 C15.1,15.7 15.9,15 16.9,14.4 C16.7,14 16.4,13.6 16.2,13.3 C15.3,13.8 14.4,14.5 13.7,15.4 Z" id="Path"></path>
                    <path d="M13,19 L11.6,19 C11.2,20 11,21.1 10.9,22.2 C11.3,22.2 11.8,22.2 12.2,22.2 C12.3,21.1 12.6,20 13,19 Z" id="Path"></path>
                    <path d="M8.9,22.2 C9.3,22.2 9.8,22.2 10.2,22.2 C10.3,21.1 10.5,20 10.9,19 L9.5,19 C9.2,20 9,21.1 8.9,22.2 Z" id="Path"></path>
                    <path d="M15.9,12.7 C15.7,12.3 15.5,11.9 15.2,11.6 C14.3,12.2 13.4,12.9 12.7,13.7 L13.4,14.9 C14.1,14 14.9,13.3 15.9,12.7 Z" id="Path"></path>
                    <path d="M15.4,18.2 C16,17.3 16.8,16.5 17.8,15.8 C17.6,15.5 17.4,15.2 17.2,14.8 C16.3,15.4 15.4,16.2 14.8,17.1 L15.4,18.2 Z" id="Path"></path>
                    <path d="M18.6,17.3 C18.4,17 18.2,16.6 17.9,16.2 C17,16.8 16.2,17.6 15.5,18.6 L15.8,19 L15.3,19 C14.7,20 14.4,21.1 14.3,22.2 C14.7,22.2 15.2,22.2 15.6,22.2 C15.8,20.2 17,18.4 18.6,17.3 Z" id="Path"></path>
                    <path d="M19.6,19 C19.6,19 19.6,18.9 19.5,18.9 C18.4,19.7 17.6,20.9 17.4,22.3 C17.6,22.3 17.8,22.3 18,22.3 C21.3,22.2 19.6,19 19.6,19 Z" id="Path"></path>
                    <path d="M19.4,18.5 C19.3,18.3 19.1,17.9 18.8,17.5 C17.3,18.6 16.2,20.2 16,22.2 C16.4,22.2 16.8,22.2 17.2,22.2 C17.3,20.7 18.2,19.4 19.4,18.5 Z" id="Path"></path>
                    <path d="M14.2,9.8 C13.3,10.4 12.4,11.1 11.6,11.8 L12.3,13 C13.1,12.2 13.9,11.5 14.8,10.9 C14.6,10.6 14.4,10.2 14.2,9.8 Z" id="Path"></path>
                    <path d="M0.5,18.1 C-0.2,19.8 0.2,20.8 0.8,21.4 C1,19 1.5,16.8 2.4,14.7 C1.7,15.6 1.1,16.6 0.5,18.1 Z" id="Path"></path>
                    <path d="M11,4.5 C10.7,3.9 10.4,3.5 10.3,3.3 C10.2,3.1 10,2.9 9.8,2.7 C8.7,3.4 7.7,4.2 6.7,5 C6.6,5.9 6.6,7 6.6,8.1 C7.9,6.8 9.4,5.5 11,4.5 Z" id="Path"></path>
                    <path d="M3.2,17 C3.7,14.3 5.5,11.4 5.5,11.4 C5.1,11.8 4.7,12.1 4.4,12.4 C2.8,15.2 1.8,18.4 1.6,21.8 C2.1,22 2.6,22.1 2.8,22.1 C2.9,22.1 3.2,22.1 3.6,22.1 C3.7,20.9 3.8,19.7 4.1,18.6 C3.5,18.4 3,17.9 3.2,17 Z" id="Path"></path>
                    <path d="M7.8,2.4 C7.4,2.7 7.1,3.1 6.9,3.7 C7.6,3.2 8.2,2.7 9,2.2 C8.4,2.1 7.8,2.4 7.8,2.4 Z" id="Path"></path>
                    <path d="M11.2,11.2 C12,10.4 12.9,9.8 13.8,9.2 C13.5,8.7 13.2,8.2 12.9,7.7 C12,8.3 11.1,8.9 10.3,9.7 L11.2,11.2 Z" id="Path"></path>
                    <path d="M6.9,22.2 C7.3,22.2 7.8,22.2 8.3,22.2 C8.4,21.1 8.6,20 8.9,19 L7.4,19 C7.1,20 7,21.1 6.9,22.2 Z" id="Path"></path>
                    <path d="M6.6,19 L5.2,19 C5.2,19 5,19 4.8,19 C4.6,20.1 4.4,21.2 4.4,22.3 C4.9,22.3 5.5,22.3 6.1,22.3 C6.2,21.1 6.3,20 6.6,19 Z" id="Path"></path>
                    <path d="M6.7,9.3 C6.8,10.4 6.9,11.4 7,12.1 C7.1,12 7.2,11.8 7.3,11.7 C7.9,4.8 9.6,8.6 9.6,8.6 L9.8,8.9 C10.6,8.2 11.5,7.5 12.4,6.9 C12,6.3 11.7,5.7 11.4,5.2 C9.7,6.3 8.1,7.7 6.7,9.3 Z" id="Path"></path>
                    <path d="M10.9,23.8 C11,24.9 11.2,26 11.6,27 L13,27 C12.6,26 12.3,24.9 12.2,23.8 C11.8,23.8 11.3,23.8 10.9,23.8 Z" id="Path"></path>
                    <path d="M15.6,23.8 C15.2,23.8 14.8,23.8 14.3,23.8 C14.4,25 14.8,26.1 15.3,27 L16.8,27 L16.8,28.9 C17.7,29.8 18.8,30.4 20,30.8 C20,30.3 20,29.9 20,29.5 C17.7,28.6 15.9,26.5 15.6,23.8 Z" id="Path"></path>
                    <path d="M10.9,27.1 C10.5,26.1 10.3,25 10.2,23.9 C9.7,23.9 9.3,23.9 8.9,23.9 C9,25 9.2,26.1 9.5,27.1 L10.9,27.1 Z" id="Path"></path>
                    <path d="M16.8,30.9 C17.8,31.6 18.9,32.1 20,32.4 C20,32 20,31.6 20,31.2 C18.8,30.8 17.7,30.2 16.8,29.4 L16.8,30.9 Z" id="Path"></path>
                    <path d="M17.1,23.8 C16.8,23.8 16.4,23.8 15.9,23.8 C16.2,26.2 17.8,28.3 20,29.1 C20,28.6 20,28.2 20,27.8 C18.5,27.1 17.4,25.6 17.1,23.8 Z" id="Path"></path>
                    <path d="M18.1,23.8 C18,23.8 17.7,23.8 17.5,23.8 C17.8,25.4 18.8,26.8 20.1,27.5 C20.1,26.5 20.1,25.9 20.1,25.7 C20.1,24.5 19.8,23.8 18.1,23.8 Z" id="Path"></path>
                    <path d="M12.8,23.8 C12.9,24.9 13.2,26 13.7,27 L15,27 C14.5,26 14.1,24.9 14,23.8 C13.6,23.8 13.2,23.8 12.8,23.8 Z" id="Path"></path>
                    <path d="M5.4,23.8 C5,23.8 4.7,23.9 4.4,24 C4.5,25.3 4.7,26.7 5,27.9 C5.7,28.6 6.6,29.2 7.5,29.8 C6.7,28 6.1,25.9 6,23.8 C5.8,23.8 5.6,23.8 5.4,23.8 Z" id="Path"></path>
                    <path d="M16.8,35.4 C17.8,35.9 18.9,36.2 20,36.4 C20,36 20,35.5 20,35.1 C18.9,34.9 17.8,34.5 16.8,34 L16.8,35.4 Z" id="Path"></path>
                    <path d="M16.8,43.2 C17.8,43.5 18.9,43.7 20,43.8 C20,43.8 20,43.7 20,43.7 C20,43.6 20,42.9 20,41.8 C18.9,41.7 17.8,41.4 16.8,41.1 L16.8,43.2 Z" id="Path"></path>
                    <path d="M3.4,25.4 C3.4,25.8 3.6,26.2 4,26.7 C3.9,26 3.8,25.3 3.7,24.6 C3.4,25 3.4,25.4 3.4,25.4 Z" id="Path"></path>
                    <path d="M16.8,33.2 C17.8,33.8 18.9,34.2 20,34.4 C20,33.9 20,33.5 20,33 C18.8,32.7 17.7,32.2 16.8,31.6 L16.8,33.2 Z" id="Path"></path>
                    <path d="M18.5,45.6 C19.4,45.6 19.9,45.4 20,44.6 C18.9,44.5 17.9,44.3 16.9,44 C16.9,45.1 17.3,45.6 18.5,45.6 Z" id="Path"></path>
                    <path d="M16.8,40.3 C17.8,40.6 18.9,40.9 20,41 C20,40.5 20,39.9 20,39.2 C18.9,39 17.8,38.8 16.8,38.4 L16.8,40.3 Z" id="Path"></path>
                    <path d="M8.2,27.1 L8.9,27.1 C8.6,26.1 8.4,25 8.3,23.9 C7.8,23.9 7.3,23.9 6.9,23.9 C7,25.1 7.2,26.3 7.5,27.5 C7.7,27.1 8.2,27.1 8.2,27.1 Z" id="Path"></path>
                    <path d="M16.8,37.6 C17.8,38 18.9,38.3 20,38.5 C20,38 20,37.6 20,37.1 C18.9,36.9 17.8,36.6 16.8,36.1 L16.8,37.6 Z" id="Path"></path>
                    <path d="M7.9,28.6 C8.2,29.3 8.5,30 8.9,30.6 C10,31.3 11.1,31.8 11.7,32.1 C11.6,32 11.5,31.8 11.4,31.7 C9.5,30.3 8.4,29.3 7.9,28.6 Z" id="Path"></path>
                </g>
                <path d="M38.1,30.7 C37.4,30.2 35.7,28.8 33,28.8 C32.5,28.8 31.4,28.8 30.3,29.4 C29.2,30 27.4,31.5 27.4,34.3 C27.4,34.7 27.4,35.5 27.8,36.4 C28.2,37.5 29.5,39.6 33.1,39.6 C33.4,39.6 33.9,39.6 34.5,39.5 C35,39.4 36.2,39.1 37.1,38.5 C37.4,38.3 37.7,38.1 38,37.9 L38,41.8 C37.1,42.1 35.2,42.9 32.6,42.9 C31.7,42.9 28.9,42.8 26.6,41.1 C25.4,40.2 23.2,38 23.2,34.2 C23.2,32.7 23.6,31 24.4,29.7 C24.6,29.3 25,28.8 25.7,28.1 C26.6,27.3 27.6,26.5 28.8,26.1 C30.3,25.6 31.9,25.5 32.4,25.5 C33,25.5 34.7,25.6 36.5,26.1 C37,26.3 37.5,26.5 38,26.6 L38,30.7 L38.1,30.7 Z" id="Path" fill="#0F1828"></path>
                <path d="M51.9,25.7 C52.9,25.9 55.4,26.5 57.3,28.5 C58.1,29.3 59.6,31.3 59.6,34.3 C59.6,35 59.5,36.3 58.8,37.9 C57.2,41.3 53.6,42.9 49.5,42.9 C48.5,42.9 45.6,42.8 43.2,41.2 C41.9,40.3 39.4,38.2 39.4,34.4 C39.4,33.8 39.5,32.3 40.2,30.7 C41.7,27.4 45.4,25.5 49.4,25.5 C49.8,25.4 50.8,25.5 51.9,25.7 Z M45.8,30 C45.1,30.5 43.5,31.9 43.5,34.2 C43.5,34.6 43.5,35.4 44,36.3 C45,38.4 47.3,39.5 49.7,39.5 C51.6,39.5 52.6,38.9 53.2,38.5 C54.7,37.5 55.4,35.8 55.4,34.2 C55.4,33.6 55.3,32 54,30.7 C53.5,30.1 51.9,28.9 49.5,28.9 C48.9,28.9 47.2,29 45.8,30 Z" id="Shape" fill="#0F1828"></path>
                <polygon id="Path" fill="#0F1828" points="72.4 25.9 72.4 29.1 65.7 29.1 65.7 32.4 72.2 32.4 72.2 35.6 65.7 35.6 65.7 39.2 72.3 39.2 72.3 42.5 61.6 42.5 61.6 25.9"></polygon>
                <path d="M83.5,30.3 C83.3,30 82.3,28.7 80.7,28.7 C79.7,28.7 78.7,29.3 78.7,30.2 C78.7,31.5 80.5,32.1 81.4,32.5 C83.2,33.2 83.7,33.5 84.5,34 C85.2,34.5 86.3,35.6 86.3,37.5 C86.3,39.6 85.1,40.8 84.5,41.3 C84.3,41.5 83.8,41.9 83.2,42.2 C81.8,42.9 80.2,42.9 79.7,42.9 C79.3,42.9 77.8,42.9 76.5,42.4 C75,41.9 73.8,40.8 73.5,40.5 L76.2,37.9 C77.1,38.8 78.2,39.8 79.7,39.8 C80.9,39.8 82,39 82,37.9 C82,37.5 81.9,37.2 81.7,37 C81.2,36.3 80,35.9 79.2,35.6 C78.2,35.2 77.3,34.7 76.5,34.2 C75.8,33.7 74.4,32.6 74.4,30.5 C74.4,29.1 75,28.2 75.4,27.8 C77.1,25.7 79.7,25.6 80.6,25.6 C81,25.6 82.4,25.7 83.7,26.2 C84.9,26.7 85.8,27.6 86.1,27.8 L83.5,30.3 Z" id="Path" fill="#0F1828"></path>
            </g>
        </g>
    </g>
</svg>