<?xml version="1.0" encoding="UTF-8"?>
<svg width="27px" height="53px" viewBox="0 0 27 53" version="1.1" xmlns="http://www.w3.org/2000/svg" xmlns:xlink="http://www.w3.org/1999/xlink">
    <!-- Generator: Sketch 56.2 (81672) - https://sketch.com -->
    <title>Group 6</title>
    <desc>Created with Sketch.</desc>
    <g id="Page-1" stroke="none" stroke-width="1" fill="none" fill-rule="evenodd">
        <g id="Group-6" transform="translate(0.700000, 0.600000)" fill-rule="nonzero">
            <path d="M14.4,4.7 C14.4,4.7 14.4,4.7 14.4,4.7 C13.9,4.8 13.6,5.1 13.6,5.5 C13.6,5.9 13.8,6.1 14.3,6.2 C16.7,6.7 18.4,8.1 19.5,10.3 C19.7,10.8 19.9,11.4 20,12 C20.1,12.4 20.5,12.6 20.9,12.5 C21.3,12.4 21.5,12 21.4,11.6 C20.8,8.6 19.1,6.5 16.4,5.3 C15.8,5.1 15.1,4.9 14.4,4.7 Z" id="Path" fill="#FFFFFF"></path>
            <path d="M0.1,7.2 C0.1,6.9 0.2,6.6 0.2,6.3 C0.3,5.6 0.7,4.9 1.2,4.4 C1.9,3.7 2.6,2.9 3.3,2.3 C4.4,1.3 5.7,1.3 6.8,2.3 C8,3.4 9.1,4.6 10.2,5.7 C11,6.6 11,7.9 10.2,8.8 C9.6,9.5 9,10.1 8.3,10.7 C8.2,10.8 8.2,10.9 8.2,11.1 C8.8,12.4 9.7,13.5 10.7,14.5 C11.7,15.6 12.8,16.5 14,17.3 C14.3,17.5 14.7,17.7 15.1,17.9 C15.5,17.5 15.9,17.1 16.3,16.6 C16.6,16.3 16.9,16.1 17.2,15.8 C18.1,15.1 19.4,15.1 20.3,15.8 C21.5,17 22.7,18.1 23.8,19.4 C24.7,20.3 24.7,21.7 23.8,22.6 C23,23.5 22.2,24.3 21.4,25.1 C20.5,25.9 19.4,26.1 18.2,26 C16,25.8 14,24.9 12.1,23.9 C9.8,22.6 7.7,21 5.9,19 C3.7,16.6 1.9,14 0.7,10.9 C0.3,9.9 -3.01980663e-14,8.8 -3.01980663e-14,7.7 C-3.01980663e-14,7.6 -3.01980663e-14,7.6 -3.01980663e-14,7.5 C0.1,7.4 0.1,7.3 0.1,7.2 Z M18.7,24.6 C19.6,24.6 20.3,24.3 20.9,23.7 C21.4,23.1 22,22.6 22.5,22.1 C22.6,22 22.7,21.9 22.8,21.7 C23.1,21.3 23.1,20.8 22.8,20.4 C22.7,20.3 22.6,20.2 22.5,20.1 C21.6,19.2 20.6,18.2 19.7,17.3 C19.6,17.2 19.6,17.2 19.5,17.1 C19.1,16.7 18.6,16.7 18.1,17.1 C18,17.2 17.9,17.3 17.8,17.4 C17.2,18 16.6,18.6 16,19.2 C15.6,19.6 15.1,19.7 14.6,19.4 C14.2,19.2 13.9,19 13.5,18.8 C12,17.9 10.6,16.7 9.4,15.4 C8.3,14.2 7.4,13 6.7,11.6 C6.4,10.8 6.4,10.5 7,9.9 C7.6,9.3 8.2,8.7 8.8,8.1 C9.2,7.6 9.2,7.2 8.8,6.7 C8.7,6.6 8.7,6.5 8.6,6.5 C7.6,5.5 6.7,4.6 5.7,3.6 C5.1,3 4.5,3 3.9,3.6 C3.3,4.2 2.7,4.7 2.2,5.3 C1.9,5.6 1.7,5.9 1.5,6.3 C1.2,7.1 1.3,7.9 1.4,8.7 C1.7,9.9 2.1,11.1 2.7,12.2 C3.9,14.6 5.5,16.7 7.4,18.6 C9.8,21 12.6,22.9 15.8,24.1 C17.1,24.4 17.9,24.5 18.7,24.6 Z" id="Shape" fill="#ABB3B3"></path>
            <path d="M0.1,33.6 C0.1,33.3 0.2,33 0.2,32.7 C0.3,32 0.7,31.3 1.2,30.8 C1.9,30.1 2.6,29.3 3.3,28.7 C4.4,27.7 5.7,27.7 6.8,28.7 C8,29.8 9.1,31 10.2,32.1 C11,33 11,34.3 10.2,35.2 C9.6,35.9 9,36.5 8.3,37.1 C8.2,37.2 8.2,37.3 8.2,37.5 C8.8,38.8 9.7,39.9 10.7,40.9 C11.7,42 12.8,42.9 14,43.7 C14.3,43.9 14.7,44.1 15.1,44.3 C15.5,43.9 15.9,43.5 16.3,43 C16.6,42.7 16.9,42.5 17.2,42.2 C18.1,41.5 19.4,41.5 20.3,42.2 C21.5,43.4 22.7,44.5 23.8,45.8 C24.7,46.7 24.7,48.1 23.8,49 C23,49.9 22.2,50.7 21.4,51.5 C20.5,52.3 19.4,52.5 18.2,52.4 C16,52.2 14,51.3 12.1,50.3 C9.8,49 7.7,47.4 5.9,45.4 C3.7,43 1.9,40.4 0.7,37.3 C0.3,36.3 -3.01980663e-14,35.2 -3.01980663e-14,34.1 C-3.01980663e-14,34 -3.01980663e-14,34 -3.01980663e-14,33.9 C0.1,33.8 0.1,33.7 0.1,33.6 Z M18.7,51 C19.6,51 20.3,50.7 20.9,50.1 C21.4,49.5 22,49 22.5,48.5 C22.6,48.4 22.7,48.3 22.8,48.1 C23.1,47.7 23.1,47.2 22.8,46.8 C22.7,46.7 22.6,46.6 22.5,46.5 C21.6,45.6 20.6,44.6 19.7,43.7 C19.6,43.6 19.6,43.6 19.5,43.5 C19.1,43.1 18.6,43.1 18.1,43.5 C18,43.6 17.9,43.7 17.8,43.8 C17.2,44.4 16.6,45 16,45.6 C15.6,46 15.1,46.1 14.6,45.8 C14.2,45.6 13.9,45.4 13.5,45.2 C12,44.3 10.6,43.1 9.4,41.8 C8.3,40.6 7.4,39.4 6.7,38 C6.4,37.2 6.4,36.9 7,36.3 C7.6,35.7 8.2,35.1 8.8,34.5 C9.2,34 9.2,33.6 8.8,33.1 C8.7,33 8.7,32.9 8.6,32.9 C7.6,31.9 6.7,31 5.7,30 C5.1,29.4 4.5,29.4 3.9,30 C3.3,30.6 2.7,31.1 2.2,31.7 C1.9,32 1.7,32.3 1.5,32.7 C1.2,33.5 1.3,34.3 1.4,35.1 C1.7,36.3 2.1,37.5 2.7,38.6 C3.9,41 5.5,43.1 7.4,45 C9.8,47.4 12.6,49.3 15.8,50.5 C17.1,50.8 17.9,50.9 18.7,51 Z" id="Shape-Copy-5" fill="#3A3A3A"></path>
            <path d="M14.7,-3.01980663e-14 C15.3,0.2 15.9,0.3 16.5,0.5 C18.4,1.1 20.1,2 21.5,3.3 C23.1,4.7 24.3,6.3 25.1,8.3 C25.6,9.3 25.9,10.4 26.1,11.5 C26.2,11.9 25.9,12.2 25.6,12.3 C25.2,12.4 24.8,12.2 24.7,11.8 C24.5,11.3 24.4,10.7 24.3,10.2 C23.6,7.8 22.2,5.8 20.2,4.2 C18.6,2.9 16.7,2 14.6,1.6 C14,1.5 13.8,1.2 13.8,0.8 C13.8,0.4 14.1,0.2 14.4,0.1 C14.5,-3.01980663e-14 14.6,-3.01980663e-14 14.7,-3.01980663e-14 Z" id="Path" fill="#ABB3B3"></path>
            <path d="M14.7,26.4 C15.3,26.6 15.9,26.7 16.5,26.9 C18.4,27.5 20.1,28.4 21.5,29.7 C23.1,31.1 24.3,32.7 25.1,34.7 C25.6,35.7 25.9,36.8 26.1,37.9 C26.2,38.3 25.9,38.6 25.6,38.7 C25.2,38.8 24.8,38.6 24.7,38.2 C24.5,37.7 24.4,37.1 24.3,36.6 C23.6,34.2 22.2,32.2 20.2,30.6 C18.6,29.3 16.7,28.4 14.6,28 C14,27.9 13.8,27.6 13.8,27.2 C13.8,26.8 14.1,26.6 14.4,26.5 C14.5,26.4 14.6,26.4 14.7,26.4 Z" id="Path-Copy" fill="#3A3A3A"></path>
            <path d="M14.4,4.7 C15.1,4.9 15.8,5.1 16.4,5.4 C19.1,6.6 20.8,8.8 21.4,11.7 C21.5,12.1 21.3,12.5 20.9,12.6 C20.5,12.7 20.1,12.5 20,12.1 C19.8,11.5 19.7,10.9 19.5,10.4 C18.5,8.2 16.7,6.8 14.3,6.3 C13.9,6.2 13.6,6 13.6,5.6 C13.6,5.1 13.9,4.8 14.4,4.7 C14.4,4.7 14.4,4.7 14.4,4.7 Z" id="Path" fill="#ABB3B3"></path>
            <path d="M14.4,31.1 C15.1,31.3 15.8,31.5 16.4,31.8 C19.1,33 20.8,35.2 21.4,38.1 C21.5,38.5 21.3,38.9 20.9,39 C20.5,39.1 20.1,38.9 20,38.5 C19.8,37.9 19.7,37.3 19.5,36.8 C18.5,34.6 16.7,33.2 14.3,32.7 C13.9,32.6 13.6,32.4 13.6,32 C13.6,31.5 13.9,31.2 14.4,31.1 C14.4,31.1 14.4,31.1 14.4,31.1 Z" id="Path-Copy-2" fill="#3A3A3A"></path>
        </g>
    </g>
</svg>