<?xml version="1.0" encoding="UTF-8"?>
<svg width="27px" height="54px" viewBox="0 0 27 54" version="1.1" xmlns="http://www.w3.org/2000/svg" xmlns:xlink="http://www.w3.org/1999/xlink">
    <!-- Generator: Sketch 56.2 (81672) - https://sketch.com -->
    <title>Group 8</title>
    <desc>Created with Sketch.</desc>
    <g id="Page-1" stroke="none" stroke-width="1" fill="none" fill-rule="evenodd">
        <g id="Group-8" transform="translate(0.100000, 0.200000)" fill-rule="nonzero">
            <path d="M26.5,25.3 L19.5,18.6 C21.5,16.6 22.8,13.9 22.8,10.9 C22.8,4.9 17.7,3.01980663e-14 11.4,3.01980663e-14 C5.1,3.01980663e-14 -1.77635684e-15,4.9 -1.77635684e-15,10.9 C-1.77635684e-15,16.9 5.1,21.8 11.4,21.8 C13.9,21.8 16.2,21 18,19.8 L25.2,26.6 C25.4,26.8 25.6,26.9 25.9,26.9 C26.2,26.9 26.4,26.8 26.6,26.6 C26.9,26.3 26.9,25.7 26.5,25.3 Z M1.7,10.9 C1.7,5.9 6,1.8 11.3,1.8 C16.6,1.8 20.9,5.9 20.9,10.9 C20.9,15.9 16.6,20 11.3,20 C6,20 1.7,15.9 1.7,10.9 Z" id="Shape" fill="#ABB3B3"></path>
            <path d="M26.5,52.1 L19.5,45.4 C21.5,43.4 22.8,40.7 22.8,37.7 C22.8,31.7 17.7,26.8 11.4,26.8 C5.1,26.8 -1.77635684e-15,31.7 -1.77635684e-15,37.7 C-1.77635684e-15,43.7 5.1,48.6 11.4,48.6 C13.9,48.6 16.2,47.8 18,46.6 L25.2,53.4 C25.4,53.6 25.6,53.7 25.9,53.7 C26.2,53.7 26.4,53.6 26.6,53.4 C26.9,53.1 26.9,52.5 26.5,52.1 Z M1.7,37.7 C1.7,32.7 6,28.6 11.3,28.6 C16.6,28.6 20.9,32.7 20.9,37.7 C20.9,42.7 16.6,46.8 11.3,46.8 C6,46.8 1.7,42.7 1.7,37.7 Z" id="Shape-Copy-7" fill="#3A3A3A"></path>
        </g>
    </g>
</svg>