<?xml version="1.0" encoding="UTF-8"?>
<svg width="65px" height="96px" viewBox="0 0 65 96" version="1.1" xmlns="http://www.w3.org/2000/svg" xmlns:xlink="http://www.w3.org/1999/xlink">
    <!-- Generator: Sketch 56.2 (81672) - https://sketch.com -->
    <title>Group</title>
    <desc>Created with Sketch.</desc>
    <g id="Page-1" stroke="none" stroke-width="1" fill="none" fill-rule="evenodd">
        <g id="Group" fill-rule="nonzero">
            <g id="icon-mail" fill="#ABB3B3">
                <path d="M59.0034485,0 L6.9965511,0 C3.6828711,0 0.9965511,2.6862001 0.9965511,6 L0.9965511,42 C0.9965511,45.3137016 3.6828714,48 6.9965511,48 L59.0034476,48 C62.3171492,48 65.0034476,45.3137016 65.0034476,42 L65.0034476,6 C65.0034476,2.6862001 62.3171501,0 59.0034485,0 Z M63.0034485,41.1108017 L44.084549,22.1919994 L63.0034485,10.1364002 L63.0034485,41.1108017 L63.0034485,41.1108017 Z M6.9965508,2 L59.0034476,2 C61.2090483,2 63.0034476,3.7943001 63.0034476,6 L63.0034476,7.7664003 L35.4677505,25.3134003 C33.9775505,26.2626992 32.0742492,26.2333985 30.6181507,25.2430992 L2.9965508,6.4694996 L2.9965508,6 C2.9965508,3.7943001 4.7910507,2 6.9965508,2 Z M2.9965508,8.8852005 L22.182251,21.9251003 L2.9965508,41.1108017 L2.9965508,8.8852005 Z M59.0034485,46 L6.9965506,46 C5.3491507,46 3.9326508,44.9978981 3.3204508,43.5721016 L23.8403521,23.0520992 L29.4951506,26.8955002 C30.5810519,27.6338005 31.8369513,28.0038986 33.0947504,28.0038986 C34.2900515,28.0038986 35.4872522,27.669899 36.5410509,26.9990005 L42.3834505,23.275999 L62.6795511,43.5721015 C62.0673485,44.9978981 60.6508713,46 59.0034485,46 Z" id="Mail"></path>
            </g>
            <g id="icon-mail-copy" transform="translate(0.000000, 48.000000)" fill="#000000">
                <path d="M59.0034485,0 L6.9965511,0 C3.6828711,0 0.9965511,2.6862001 0.9965511,6 L0.9965511,42 C0.9965511,45.3137016 3.6828714,48 6.9965511,48 L59.0034476,48 C62.3171492,48 65.0034476,45.3137016 65.0034476,42 L65.0034476,6 C65.0034476,2.6862001 62.3171501,0 59.0034485,0 Z M63.0034485,41.1108017 L44.084549,22.1919994 L63.0034485,10.1364002 L63.0034485,41.1108017 L63.0034485,41.1108017 Z M6.9965508,2 L59.0034476,2 C61.2090483,2 63.0034476,3.7943001 63.0034476,6 L63.0034476,7.7664003 L35.4677505,25.3134003 C33.9775505,26.2626992 32.0742492,26.2333985 30.6181507,25.2430992 L2.9965508,6.4694996 L2.9965508,6 C2.9965508,3.7943001 4.7910507,2 6.9965508,2 Z M2.9965508,8.8852005 L22.182251,21.9251003 L2.9965508,41.1108017 L2.9965508,8.8852005 Z M59.0034485,46 L6.9965506,46 C5.3491507,46 3.9326508,44.9978981 3.3204508,43.5721016 L23.8403521,23.0520992 L29.4951506,26.8955002 C30.5810519,27.6338005 31.8369513,28.0038986 33.0947504,28.0038986 C34.2900515,28.0038986 35.4872522,27.669899 36.5410509,26.9990005 L42.3834505,23.275999 L62.6795511,43.5721015 C62.0673485,44.9978981 60.6508713,46 59.0034485,46 Z" id="Mail"></path>
            </g>
        </g>
    </g>
</svg>