<?xml version="1.0" encoding="UTF-8"?>
<svg width="47px" height="94px" viewBox="0 0 47 94" version="1.1" xmlns="http://www.w3.org/2000/svg" xmlns:xlink="http://www.w3.org/1999/xlink">
    <!-- Generator: Sketch 56.2 (81672) - https://sketch.com -->
    <title>Group 3</title>
    <desc>Created with Sketch.</desc>
    <g id="Page-1" stroke="none" stroke-width="1" fill="none" fill-rule="evenodd">
        <g id="Group-3" fill-rule="nonzero">
            <g id="Group-2" transform="translate(0.000000, 47.000000)" fill="#000000">
                <g id="Group" transform="translate(0.500000, 0.000000)">
                    <path d="M45.7368421,41.4315789 C44.9789474,38.4 43.9684211,35.3684211 43.2105263,32.0842105 L36.3894737,7.57894737 C36.3894737,7.32631579 36.1368421,6.82105263 35.8842105,6.56842105 C35.6315789,6.31578947 35.1263158,6.56842105 34.8736842,6.56842105 L32.8526316,7.07368421 C30.0736842,7.83157895 27.0421053,8.58947368 24.2631579,9.6 C24.0105263,9.6 24.0105263,9.6 23.7578947,9.85263158 L23.7578947,8.33684211 C23.7578947,6.31578947 23.7578947,4.29473684 23.7578947,2.02105263 C23.7578947,1.51578947 23.7578947,1.01052632 23,0.757894737 L23,0.757894737 L12.6421053,1.01052632 L12.6421053,1.01052632 C12.1368421,1.26315789 11.8842105,1.76842105 11.8842105,2.27368421 C11.8842105,3.28421053 11.8842105,4.29473684 11.8842105,5.55789474 L11.8842105,7.07368421 L9.10526316,7.07368421 C6.57894737,7.07368421 3.8,7.07368421 1.27368421,7.07368421 C1.27368421,7.07368421 1.27368421,7.07368421 1.27368421,7.07368421 C0.768421053,7.07368421 0.263157895,7.07368421 0.0105263158,7.83157895 L0.0105263158,7.83157895 L0.515789474,45.7263158 L0.515789474,45.7263158 C0.768421053,46.2315789 1.52631579,46.4842105 1.77894737,46.4842105 C7.33684211,46.4842105 12.8947368,46.2315789 18.7052632,46.2315789 L23,46.2315789 C24.0105263,46.2315789 24.5157895,45.9789474 24.5157895,44.7157895 L24.0105263,13.1368421 L32.8526316,44.7157895 C32.8526316,44.9684211 33.1052632,45.4736842 33.3578947,45.7263158 C33.6105263,45.9789474 34.1157895,45.7263158 34.6210526,45.7263158 L36.6421053,45.2210526 C39.4210526,44.4631579 42.2,43.7052632 44.9789474,42.9473684 C45.2315789,42.9473684 45.7368421,42.6947368 45.9894737,42.4421053 C45.7368421,42.1894737 45.7368421,41.6842105 45.7368421,41.4315789 Z M1.77894737,13.1368421 L11.6315789,12.8842105 L11.8842105,34.6105263 L2.03157895,34.8631579 L1.77894737,13.1368421 Z M2.28421053,36.8842105 L12.1368421,36.6315789 L12.1368421,38.1473684 L2.28421053,38.4 L2.28421053,36.8842105 Z M12.1368421,44.4631579 L2.28421053,44.7157895 L2.28421053,40.9263158 L12.1368421,40.6736842 L12.1368421,44.4631579 Z M11.6315789,10.6105263 L1.77894737,10.8631579 L1.77894737,9.34736842 L11.6315789,9.09473684 L11.6315789,10.6105263 Z M14.4105263,39.1578947 L21.9894737,39.1578947 L21.9894737,39.9157895 L14.4105263,39.9157895 L14.4105263,39.1578947 Z M21.9894737,44.2105263 L14.4105263,44.2105263 L14.4105263,41.9368421 L21.9894737,41.9368421 L21.9894737,44.2105263 Z M21.7368421,36.6315789 L14.1578947,36.6315789 L13.6526316,11.1157895 L21.2315789,11.1157895 L21.7368421,36.6315789 Z M21.4842105,9.09473684 L13.9052632,9.09473684 L13.9052632,7.57894737 L21.4842105,7.57894737 L21.4842105,9.09473684 Z M21.2315789,5.30526316 L13.6526316,5.30526316 L13.6526316,3.03157895 L21.2315789,3.03157895 L21.2315789,5.30526316 Z M25.2736842,11.6210526 L34.3684211,9.09473684 L35.1263158,11.6210526 L26.0315789,14.1473684 L25.2736842,11.6210526 Z M26.5368421,16.1684211 L35.6315789,13.6421053 L35.8842105,14.4 L26.7894737,16.9263158 L26.5368421,16.1684211 Z M31.8421053,34.8631579 L27.2947368,18.9473684 L36.3894737,16.4210526 L40.9368421,32.3368421 L31.8421053,34.8631579 Z M32.8526316,39.1578947 L32.0947368,36.8842105 L41.1894737,34.3578947 L41.9473684,36.6315789 L32.8526316,39.1578947 Z M34.1157895,43.7052632 L33.3578947,41.1789474 L42.4526316,38.6526316 L43.2105263,41.1789474 L34.1157895,43.7052632 Z" id="Shape"></path>
                    <path d="M9.61052632,14.6526316 C7.84210526,14.6526316 5.82105263,14.6526316 4.05263158,14.6526316 C3.29473684,14.6526316 2.78947368,15.1578947 2.78947368,15.9157895 C2.78947368,17.6842105 2.78947368,19.7052632 2.78947368,21.4736842 C2.78947368,22.2315789 3.29473684,22.7368421 4.05263158,22.7368421 C4.81052632,22.7368421 5.31578947,22.7368421 6.07368421,22.7368421 L6.83157895,22.7368421 L7.58947368,22.7368421 C7.84210526,22.7368421 8.09473684,22.7368421 8.34736842,22.7368421 C8.6,22.7368421 9.10526316,22.7368421 9.35789474,22.7368421 C10.1157895,22.7368421 10.6210526,22.2315789 10.6210526,21.4736842 C10.6210526,19.7052632 10.6210526,17.6842105 10.6210526,15.9157895 C10.8736842,14.9052632 10.3684211,14.6526316 9.61052632,14.6526316 Z M8.85263158,20.4631579 L5.06315789,20.4631579 L5.06315789,16.6736842 L8.85263158,16.6736842 L8.85263158,20.4631579 Z" id="Shape"></path>
                </g>
            </g>
            <g id="Group-2-Copy" fill="#ABB3B3">
                <g id="Group" transform="translate(0.500000, 0.000000)">
                    <path d="M45.7368421,41.4315789 C44.9789474,38.4 43.9684211,35.3684211 43.2105263,32.0842105 L36.3894737,7.57894737 C36.3894737,7.32631579 36.1368421,6.82105263 35.8842105,6.56842105 C35.6315789,6.31578947 35.1263158,6.56842105 34.8736842,6.56842105 L32.8526316,7.07368421 C30.0736842,7.83157895 27.0421053,8.58947368 24.2631579,9.6 C24.0105263,9.6 24.0105263,9.6 23.7578947,9.85263158 L23.7578947,8.33684211 C23.7578947,6.31578947 23.7578947,4.29473684 23.7578947,2.02105263 C23.7578947,1.51578947 23.7578947,1.01052632 23,0.757894737 L23,0.757894737 L12.6421053,1.01052632 L12.6421053,1.01052632 C12.1368421,1.26315789 11.8842105,1.76842105 11.8842105,2.27368421 C11.8842105,3.28421053 11.8842105,4.29473684 11.8842105,5.55789474 L11.8842105,7.07368421 L9.10526316,7.07368421 C6.57894737,7.07368421 3.8,7.07368421 1.27368421,7.07368421 C1.27368421,7.07368421 1.27368421,7.07368421 1.27368421,7.07368421 C0.768421053,7.07368421 0.263157895,7.07368421 0.0105263158,7.83157895 L0.0105263158,7.83157895 L0.515789474,45.7263158 L0.515789474,45.7263158 C0.768421053,46.2315789 1.52631579,46.4842105 1.77894737,46.4842105 C7.33684211,46.4842105 12.8947368,46.2315789 18.7052632,46.2315789 L23,46.2315789 C24.0105263,46.2315789 24.5157895,45.9789474 24.5157895,44.7157895 L24.0105263,13.1368421 L32.8526316,44.7157895 C32.8526316,44.9684211 33.1052632,45.4736842 33.3578947,45.7263158 C33.6105263,45.9789474 34.1157895,45.7263158 34.6210526,45.7263158 L36.6421053,45.2210526 C39.4210526,44.4631579 42.2,43.7052632 44.9789474,42.9473684 C45.2315789,42.9473684 45.7368421,42.6947368 45.9894737,42.4421053 C45.7368421,42.1894737 45.7368421,41.6842105 45.7368421,41.4315789 Z M1.77894737,13.1368421 L11.6315789,12.8842105 L11.8842105,34.6105263 L2.03157895,34.8631579 L1.77894737,13.1368421 Z M2.28421053,36.8842105 L12.1368421,36.6315789 L12.1368421,38.1473684 L2.28421053,38.4 L2.28421053,36.8842105 Z M12.1368421,44.4631579 L2.28421053,44.7157895 L2.28421053,40.9263158 L12.1368421,40.6736842 L12.1368421,44.4631579 Z M11.6315789,10.6105263 L1.77894737,10.8631579 L1.77894737,9.34736842 L11.6315789,9.09473684 L11.6315789,10.6105263 Z M14.4105263,39.1578947 L21.9894737,39.1578947 L21.9894737,39.9157895 L14.4105263,39.9157895 L14.4105263,39.1578947 Z M21.9894737,44.2105263 L14.4105263,44.2105263 L14.4105263,41.9368421 L21.9894737,41.9368421 L21.9894737,44.2105263 Z M21.7368421,36.6315789 L14.1578947,36.6315789 L13.6526316,11.1157895 L21.2315789,11.1157895 L21.7368421,36.6315789 Z M21.4842105,9.09473684 L13.9052632,9.09473684 L13.9052632,7.57894737 L21.4842105,7.57894737 L21.4842105,9.09473684 Z M21.2315789,5.30526316 L13.6526316,5.30526316 L13.6526316,3.03157895 L21.2315789,3.03157895 L21.2315789,5.30526316 Z M25.2736842,11.6210526 L34.3684211,9.09473684 L35.1263158,11.6210526 L26.0315789,14.1473684 L25.2736842,11.6210526 Z M26.5368421,16.1684211 L35.6315789,13.6421053 L35.8842105,14.4 L26.7894737,16.9263158 L26.5368421,16.1684211 Z M31.8421053,34.8631579 L27.2947368,18.9473684 L36.3894737,16.4210526 L40.9368421,32.3368421 L31.8421053,34.8631579 Z M32.8526316,39.1578947 L32.0947368,36.8842105 L41.1894737,34.3578947 L41.9473684,36.6315789 L32.8526316,39.1578947 Z M34.1157895,43.7052632 L33.3578947,41.1789474 L42.4526316,38.6526316 L43.2105263,41.1789474 L34.1157895,43.7052632 Z" id="Shape"></path>
                    <path d="M9.61052632,14.6526316 C7.84210526,14.6526316 5.82105263,14.6526316 4.05263158,14.6526316 C3.29473684,14.6526316 2.78947368,15.1578947 2.78947368,15.9157895 C2.78947368,17.6842105 2.78947368,19.7052632 2.78947368,21.4736842 C2.78947368,22.2315789 3.29473684,22.7368421 4.05263158,22.7368421 C4.81052632,22.7368421 5.31578947,22.7368421 6.07368421,22.7368421 L6.83157895,22.7368421 L7.58947368,22.7368421 C7.84210526,22.7368421 8.09473684,22.7368421 8.34736842,22.7368421 C8.6,22.7368421 9.10526316,22.7368421 9.35789474,22.7368421 C10.1157895,22.7368421 10.6210526,22.2315789 10.6210526,21.4736842 C10.6210526,19.7052632 10.6210526,17.6842105 10.6210526,15.9157895 C10.8736842,14.9052632 10.3684211,14.6526316 9.61052632,14.6526316 Z M8.85263158,20.4631579 L5.06315789,20.4631579 L5.06315789,16.6736842 L8.85263158,16.6736842 L8.85263158,20.4631579 Z" id="Shape"></path>
                </g>
            </g>
        </g>
    </g>
</svg>