<?xml version="1.0" encoding="UTF-8"?>
<svg width="27px" height="49px" viewBox="0 0 27 49" version="1.1" xmlns="http://www.w3.org/2000/svg" xmlns:xlink="http://www.w3.org/1999/xlink">
    <!-- Generator: Sketch 56.2 (81672) - https://sketch.com -->
    <title>Group 7</title>
    <desc>Created with Sketch.</desc>
    <g id="Page-1" stroke="none" stroke-width="1" fill="none" fill-rule="evenodd">
        <g id="Group-7" transform="translate(0.500000, 0.600000)" fill-rule="nonzero">
            <path d="M0,0 C8.7,0 17.3,0 26,0 C26,1.4 26,2.7 26,4.1 C25.5,4.1 25,4.1 24.5,4.1 C24.5,9.7 24.5,18.4 24.5,24 C20.9,24 5.1,24 1.6,24 C1.6,18.4 1.6,9.7 1.6,4.1 C1.1,4.1 0.6,4.1 0.1,4.1 C0,2.7 0,1.4 0,0 Z M10.7,19.9 C10.7,16.5 10.7,10.1 10.7,6.8 C12.2,6.8 13.7,6.8 15.3,6.8 C15.3,10.2 15.3,16.5 15.3,19.9 C15.8,19.9 16.3,19.9 16.9,19.9 C16.9,16.1 16.9,9.3 16.9,5.4 C18.4,5.4 19.9,5.4 21.5,5.4 C21.5,9.2 21.5,16.1 21.5,19.9 C22,19.9 22.5,19.9 23,19.9 C23,15.6 23,8.3 23,4.1 C16.4,4.1 9.7,4.1 3.1,4.1 C3.1,8.4 3.1,15.7 3.1,19.9 C3.6,19.9 4.1,19.9 4.6,19.9 C4.6,17 4.6,11.1 4.6,8.2 C6.1,8.2 7.6,8.2 9.2,8.2 C9.2,11.1 9.2,17 9.2,19.9 C9.7,19.9 10.2,19.9 10.7,19.9 Z M1.5,2.7 C9.2,2.7 16.8,2.7 24.4,2.7 C24.4,2.2 24.4,1.8 24.4,1.4 C16.8,1.4 9.1,1.4 1.5,1.4 C1.5,1.9 1.5,2.3 1.5,2.7 Z M3.1,22.7 C9.7,22.7 16.4,22.7 23,22.7 C23,22.2 23,21.8 23,21.4 C16.4,21.4 9.7,21.4 3.1,21.4 C3.1,21.8 3.1,22.2 3.1,22.7 Z M19.9,19.9 C19.9,17.4 19.9,12 19.9,9.5 C19.4,9.5 18.9,9.5 18.4,9.5 C18.4,12 18.4,17.4 18.4,19.9 C18.9,19.9 19.4,19.9 19.9,19.9 Z M12.3,10.9 C12.3,12.9 12.3,17.9 12.3,19.9 C12.8,19.9 13.3,19.9 13.8,19.9 C13.8,17.9 13.8,12.9 13.8,10.9 C13.2,10.9 12.8,10.9 12.3,10.9 Z M7.6,19.9 C7.6,18.3 7.6,13.8 7.6,12.2 C7.1,12.2 6.6,12.2 6.1,12.2 C6.1,13.8 6.1,18.3 6.1,19.9 C6.6,19.9 7.1,19.9 7.6,19.9 Z M19.9,8.2 C19.9,7.7 19.9,7.3 19.9,6.9 C19.4,6.9 18.9,6.9 18.4,6.9 C18.4,7.4 18.4,7.8 18.4,8.2 C18.9,8.2 19.4,8.2 19.9,8.2 Z M13.8,8.2 C13.3,8.2 12.8,8.2 12.3,8.2 C12.3,8.7 12.3,9.1 12.3,9.5 C12.8,9.5 13.3,9.5 13.8,9.5 C13.8,9.1 13.8,8.7 13.8,8.2 Z M7.6,10.9 C7.6,10.4 7.6,10 7.6,9.6 C7.1,9.6 6.6,9.6 6.1,9.6 C6.1,10.1 6.1,10.5 6.1,10.9 C6.6,10.9 7.1,10.9 7.6,10.9 Z" id="Shape" fill="#ABB3B3"></path>
            <path d="M0,24.4 C8.7,24.4 17.3,24.4 26,24.4 C26,25.8 26,27.1 26,28.5 C25.5,28.5 25,28.5 24.5,28.5 C24.5,34.1 24.5,42.8 24.5,48.4 C20.9,48.4 5.1,48.4 1.6,48.4 C1.6,42.8 1.6,34.1 1.6,28.5 C1.1,28.5 0.6,28.5 0.1,28.5 C0,27.1 0,25.8 0,24.4 Z M10.7,44.3 C10.7,40.9 10.7,34.5 10.7,31.2 C12.2,31.2 13.7,31.2 15.3,31.2 C15.3,34.6 15.3,40.9 15.3,44.3 C15.8,44.3 16.3,44.3 16.9,44.3 C16.9,40.5 16.9,33.7 16.9,29.8 C18.4,29.8 19.9,29.8 21.5,29.8 C21.5,33.6 21.5,40.5 21.5,44.3 C22,44.3 22.5,44.3 23,44.3 C23,40 23,32.7 23,28.5 C16.4,28.5 9.7,28.5 3.1,28.5 C3.1,32.8 3.1,40.1 3.1,44.3 C3.6,44.3 4.1,44.3 4.6,44.3 C4.6,41.4 4.6,35.5 4.6,32.6 C6.1,32.6 7.6,32.6 9.2,32.6 C9.2,35.5 9.2,41.4 9.2,44.3 C9.7,44.3 10.2,44.3 10.7,44.3 Z M1.5,27.1 C9.2,27.1 16.8,27.1 24.4,27.1 C24.4,26.6 24.4,26.2 24.4,25.8 C16.8,25.8 9.1,25.8 1.5,25.8 C1.5,26.3 1.5,26.7 1.5,27.1 Z M3.1,47.1 C9.7,47.1 16.4,47.1 23,47.1 C23,46.6 23,46.2 23,45.8 C16.4,45.8 9.7,45.8 3.1,45.8 C3.1,46.2 3.1,46.6 3.1,47.1 Z M19.9,44.3 C19.9,41.8 19.9,36.4 19.9,33.9 C19.4,33.9 18.9,33.9 18.4,33.9 C18.4,36.4 18.4,41.8 18.4,44.3 C18.9,44.3 19.4,44.3 19.9,44.3 Z M12.3,35.3 C12.3,37.3 12.3,42.3 12.3,44.3 C12.8,44.3 13.3,44.3 13.8,44.3 C13.8,42.3 13.8,37.3 13.8,35.3 C13.2,35.3 12.8,35.3 12.3,35.3 Z M7.6,44.3 C7.6,42.7 7.6,38.2 7.6,36.6 C7.1,36.6 6.6,36.6 6.1,36.6 C6.1,38.2 6.1,42.7 6.1,44.3 C6.6,44.3 7.1,44.3 7.6,44.3 Z M19.9,32.6 C19.9,32.1 19.9,31.7 19.9,31.3 C19.4,31.3 18.9,31.3 18.4,31.3 C18.4,31.8 18.4,32.2 18.4,32.6 C18.9,32.6 19.4,32.6 19.9,32.6 Z M13.8,32.6 C13.3,32.6 12.8,32.6 12.3,32.6 C12.3,33.1 12.3,33.5 12.3,33.9 C12.8,33.9 13.3,33.9 13.8,33.9 C13.8,33.5 13.8,33.1 13.8,32.6 Z M7.6,35.3 C7.6,34.8 7.6,34.4 7.6,34 C7.1,34 6.6,34 6.1,34 C6.1,34.5 6.1,34.9 6.1,35.3 C6.6,35.3 7.1,35.3 7.6,35.3 Z" id="Shape-Copy-6" fill="#3A3A3A"></path>
        </g>
    </g>
</svg>