<?xml version="1.0" encoding="UTF-8"?>
<svg width="26px" height="78px" viewBox="0 0 26 78" version="1.1" xmlns="http://www.w3.org/2000/svg" xmlns:xlink="http://www.w3.org/1999/xlink">
    <!-- Generator: Sketch 56.2 (81672) - https://sketch.com -->
    <title>Group 3</title>
    <desc>Created with Sketch.</desc>
    <g id="Page-1" stroke="none" stroke-width="1" fill="none" fill-rule="evenodd">
        <g id="Group-3" fill-rule="nonzero">
            <path d="M22.2,5.5067062e-14 L3.7,5.5067062e-14 C1.6,5.5067062e-14 -1.77635684e-15,1.7 -1.77635684e-15,3.7 L-1.77635684e-15,22.2 C-1.77635684e-15,24.3 1.7,25.9 3.7,25.9 L22.2,25.9 C24.3,25.9 25.9,24.2 25.9,22.2 L25.9,3.7 C25.9,1.7 24.2,5.5067062e-14 22.2,5.5067062e-14 Z M24.4,22.3 C24.4,23.5 23.4,24.5 22.2,24.5 L3.7,24.5 C2.5,24.5 1.5,23.5 1.5,22.3 L1.5,3.8 C1.5,2.6 2.5,1.6 3.7,1.6 L22.2,1.6 C23.4,1.6 24.4,2.6 24.4,3.8 L24.4,22.3 Z" id="Shape" fill="#3E3E3E"></path>
            <path d="M11.8,4.9 C11.8,5 11.8,5.2 11.9,5.3 C12,5.7 12.4,5.8 12.8,5.8 C13.2,5.7 13.4,5.4 13.5,5 C13.5,4.5 13.5,4 13.5,3.5 C13.5,3 13.3,2.6 12.8,2.5 C12.7,2.5 12.6,2.5 12.5,2.5 C12,2.7 11.8,3 11.8,3.5 C11.8,4 11.8,4.5 11.8,4.9 Z" id="Path" fill="#3E3E3E"></path>
            <path d="M5.9,12.3 C5.8,11.9 5.5,11.7 5.1,11.6 C4.6,11.6 4.1,11.6 3.6,11.6 C3.1,11.6 2.7,11.8 2.6,12.3 C2.6,12.4 2.6,12.5 2.6,12.6 C2.8,13.1 3.1,13.3 3.6,13.3 C4.1,13.3 4.5,13.3 5,13.3 C5.1,13.3 5.3,13.3 5.4,13.2 C5.8,13.1 6,12.7 5.9,12.3 Z" id="Path" fill="#3E3E3E"></path>
            <path d="M21.5,11.7 C21,11.7 20.6,11.7 20.1,11.7 C20,11.7 19.8,11.7 19.7,11.8 C19.3,11.9 19.2,12.3 19.2,12.7 C19.3,13.1 19.6,13.3 20,13.4 C20.5,13.4 21,13.4 21.5,13.4 C22,13.4 22.4,13.2 22.5,12.7 C22.5,12.6 22.5,12.5 22.5,12.4 C22.4,11.8 22.1,11.7 21.5,11.7 Z" id="Path" fill="#3E3E3E"></path>
            <path d="M12.6,7.1 C9.6,7.1 7.2,9.5 7.2,12.5 C7.2,15.5 9.6,17.9 12.6,17.9 C15.6,17.9 18,15.5 18,12.5 C18,9.5 15.6,7.1 12.6,7.1 Z M12.6,16.3 C10.5,16.3 8.9,14.6 8.9,12.6 C8.9,10.5 10.6,8.8 12.6,8.8 C14.7,8.8 16.4,10.5 16.4,12.5 C16.3,14.6 14.7,16.3 12.6,16.3 Z" id="Shape" fill="#3E3E3E"></path>
            <path d="M6.8,7.9 C7.1,8.2 7.6,8.1 7.9,7.8 C8.2,7.5 8.2,7 8,6.7 C7.6,6.2 7.1,5.8 6.7,5.4 C6.5,5.2 6.1,5.2 5.8,5.3 C5.5,5.4 5.3,5.7 5.3,6.1 C5.3,6.2 5.4,6.4 5.5,6.5 C5.9,7 6.3,7.4 6.8,7.9 Z" id="Path" fill="#3E3E3E"></path>
            <path d="M18.4,7.9 C18.9,7.5 19.3,7 19.7,6.6 C19.9,6.3 19.9,6 19.8,5.7 C19.6,5.4 19.4,5.2 19,5.2 C18.9,5.2 18.7,5.3 18.6,5.4 C18.1,5.8 17.7,6.3 17.3,6.7 C17,7 17.1,7.5 17.4,7.8 C17.6,8.1 18.1,8.1 18.4,7.9 Z" id="Path" fill="#3E3E3E"></path>
            <path d="M6.8,17.2 C6.3,17.6 5.9,18.1 5.5,18.5 C5.3,18.7 5.3,19.1 5.4,19.4 C5.5,19.7 5.8,19.9 6.2,19.9 C6.3,19.9 6.5,19.8 6.6,19.7 C7.1,19.3 7.5,18.8 7.9,18.4 C8.2,18.1 8.1,17.6 7.8,17.3 C7.6,16.9 7.1,16.9 6.8,17.2 Z" id="Path" fill="#3E3E3E"></path>
            <path d="M18.4,17.2 C18.1,16.9 17.6,17 17.3,17.3 C17,17.6 17,18.1 17.2,18.4 C17.6,18.9 18.1,19.3 18.5,19.7 C18.7,19.9 19.1,19.9 19.4,19.8 C19.7,19.7 19.9,19.4 19.9,19 C19.9,18.9 19.8,18.7 19.7,18.6 C19.3,18 18.9,17.6 18.4,17.2 Z" id="Path" fill="#3E3E3E"></path>
            <path d="M13.4,20 C13.4,19.5 13,19.2 12.6,19.2 C12.1,19.2 11.8,19.5 11.8,20 C11.8,20.6 11.8,21.1 11.8,21.7 C11.8,22.2 12.2,22.5 12.6,22.5 C13.1,22.5 13.4,22.1 13.4,21.7 C13.4,21.4 13.4,21.2 13.4,20.9 C13.4,20.9 13.4,20.9 13.4,20.9 C13.4,20.6 13.4,20.3 13.4,20 Z" id="Path" fill="#3E3E3E"></path>
            <g id="Group-2" transform="translate(0.000000, 26.000000)" fill="#ABB3B3">
                <path d="M22.2,5.5067062e-14 L3.7,5.5067062e-14 C1.6,5.5067062e-14 -1.77635684e-15,1.7 -1.77635684e-15,3.7 L-1.77635684e-15,22.2 C-1.77635684e-15,24.3 1.7,25.9 3.7,25.9 L22.2,25.9 C24.3,25.9 25.9,24.2 25.9,22.2 L25.9,3.7 C25.9,1.7 24.2,5.5067062e-14 22.2,5.5067062e-14 Z M24.4,22.3 C24.4,23.5 23.4,24.5 22.2,24.5 L3.7,24.5 C2.5,24.5 1.5,23.5 1.5,22.3 L1.5,3.8 C1.5,2.6 2.5,1.6 3.7,1.6 L22.2,1.6 C23.4,1.6 24.4,2.6 24.4,3.8 L24.4,22.3 Z" id="Shape"></path>
                <path d="M12.1,5.4 C12.1,5.5 12.1,5.7 12.2,5.8 C12.3,6.2 12.7,6.3 13.1,6.3 C13.5,6.2 13.7,5.9 13.8,5.5 C13.8,5 13.8,4.5 13.8,4 C13.8,3.5 13.6,3.1 13.1,3 C13,3 12.9,3 12.8,3 C12.3,3.2 12.1,3.5 12.1,4 C12.1,4.5 12.1,5 12.1,5.4 Z" id="Path"></path>
                <path d="M6.2,12.8 C6.1,12.4 5.8,12.2 5.4,12.1 C4.9,12.1 4.4,12.1 3.9,12.1 C3.4,12.1 3,12.3 2.9,12.8 C2.9,12.9 2.9,13 2.9,13.1 C3.1,13.6 3.4,13.8 3.9,13.8 C4.4,13.8 4.8,13.8 5.3,13.8 C5.4,13.8 5.6,13.8 5.7,13.7 C6.1,13.6 6.3,13.2 6.2,12.8 Z" id="Path"></path>
                <path d="M21.8,12.2 C21.3,12.2 20.9,12.2 20.4,12.2 C20.3,12.2 20.1,12.2 20,12.3 C19.6,12.4 19.5,12.8 19.5,13.2 C19.6,13.6 19.9,13.8 20.3,13.9 C20.8,13.9 21.3,13.9 21.8,13.9 C22.3,13.9 22.7,13.7 22.8,13.2 C22.8,13.1 22.8,13 22.8,12.9 C22.7,12.3 22.4,12.2 21.8,12.2 Z" id="Path"></path>
                <path d="M12.9,7.6 C9.9,7.6 7.5,10 7.5,13 C7.5,16 9.9,18.4 12.9,18.4 C15.9,18.4 18.3,16 18.3,13 C18.3,10 15.9,7.6 12.9,7.6 Z M12.9,16.8 C10.8,16.8 9.2,15.1 9.2,13.1 C9.2,11 10.9,9.3 12.9,9.3 C15,9.3 16.7,11 16.7,13 C16.6,15.1 15,16.8 12.9,16.8 Z" id="Shape"></path>
                <path d="M7.1,8.4 C7.4,8.7 7.9,8.6 8.2,8.3 C8.5,8 8.5,7.5 8.3,7.2 C7.9,6.7 7.4,6.3 7,5.9 C6.8,5.7 6.4,5.7 6.1,5.8 C5.8,5.9 5.6,6.2 5.6,6.6 C5.6,6.7 5.7,6.9 5.8,7 C6.2,7.5 6.6,7.9 7.1,8.4 Z" id="Path"></path>
                <path d="M18.7,8.4 C19.2,8 19.6,7.5 20,7.1 C20.2,6.8 20.2,6.5 20.1,6.2 C19.9,5.9 19.7,5.7 19.3,5.7 C19.2,5.7 19,5.8 18.9,5.9 C18.4,6.3 18,6.8 17.6,7.2 C17.3,7.5 17.4,8 17.7,8.3 C17.9,8.6 18.4,8.6 18.7,8.4 Z" id="Path"></path>
                <path d="M7.1,17.7 C6.6,18.1 6.2,18.6 5.8,19 C5.6,19.2 5.6,19.6 5.7,19.9 C5.8,20.2 6.1,20.4 6.5,20.4 C6.6,20.4 6.8,20.3 6.9,20.2 C7.4,19.8 7.8,19.3 8.2,18.9 C8.5,18.6 8.4,18.1 8.1,17.8 C7.9,17.4 7.4,17.4 7.1,17.7 Z" id="Path"></path>
                <path d="M18.7,17.7 C18.4,17.4 17.9,17.5 17.6,17.8 C17.3,18.1 17.3,18.6 17.5,18.9 C17.9,19.4 18.4,19.8 18.8,20.2 C19,20.4 19.4,20.4 19.7,20.3 C20,20.2 20.2,19.9 20.2,19.5 C20.2,19.4 20.1,19.2 20,19.1 C19.6,18.5 19.2,18.1 18.7,17.7 Z" id="Path"></path>
                <path d="M13.7,20.5 C13.7,20 13.3,19.7 12.9,19.7 C12.4,19.7 12.1,20 12.1,20.5 C12.1,21.1 12.1,21.6 12.1,22.2 C12.1,22.7 12.5,23 12.9,23 C13.4,23 13.7,22.6 13.7,22.2 C13.7,21.9 13.7,21.7 13.7,21.4 C13.7,21.4 13.7,21.4 13.7,21.4 C13.7,21.1 13.7,20.8 13.7,20.5 Z" id="Path"></path>
            </g>
            <path d="M22.2,52 L3.7,52 C1.6,52 -1.77635684e-15,53.7 -1.77635684e-15,55.7 L-1.77635684e-15,74.2 C-1.77635684e-15,76.3 1.7,77.9 3.7,77.9 L22.2,77.9 C24.3,77.9 25.9,76.2 25.9,74.2 L25.9,55.7 C25.9,53.7 24.2,52 22.2,52 Z M24.4,74.3 C24.4,75.5 23.4,76.5 22.2,76.5 L3.7,76.5 C2.5,76.5 1.5,75.5 1.5,74.3 L1.5,55.8 C1.5,54.6 2.5,53.6 3.7,53.6 L22.2,53.6 C23.4,53.6 24.4,54.6 24.4,55.8 L24.4,74.3 Z" id="Shape" fill="#24A8DA"></path>
            <path d="M12.1,57.4 C12.1,57.5 12.1,57.7 12.2,57.8 C12.3,58.2 12.7,58.3 13.1,58.3 C13.5,58.2 13.7,57.9 13.8,57.5 C13.8,57 13.8,56.5 13.8,56 C13.8,55.5 13.6,55.1 13.1,55 C13,55 12.9,55 12.8,55 C12.3,55.2 12.1,55.5 12.1,56 C12.1,56.5 12.1,57 12.1,57.4 Z" id="Path" fill="#24A8DA"></path>
            <path d="M6.2,64.8 C6.1,64.4 5.8,64.2 5.4,64.1 C4.9,64.1 4.4,64.1 3.9,64.1 C3.4,64.1 3,64.3 2.9,64.8 C2.9,64.9 2.9,65 2.9,65.1 C3.1,65.6 3.4,65.8 3.9,65.8 C4.4,65.8 4.8,65.8 5.3,65.8 C5.4,65.8 5.6,65.8 5.7,65.7 C6.1,65.6 6.3,65.2 6.2,64.8 Z" id="Path" fill="#24A8DA"></path>
            <path d="M21.8,64.2 C21.3,64.2 20.9,64.2 20.4,64.2 C20.3,64.2 20.1,64.2 20,64.3 C19.6,64.4 19.5,64.8 19.5,65.2 C19.6,65.6 19.9,65.8 20.3,65.9 C20.8,65.9 21.3,65.9 21.8,65.9 C22.3,65.9 22.7,65.7 22.8,65.2 C22.8,65.1 22.8,65 22.8,64.9 C22.7,64.3 22.4,64.2 21.8,64.2 Z" id="Path" fill="#24A8DA"></path>
            <path d="M12.9,59.6 C9.9,59.6 7.5,62 7.5,65 C7.5,68 9.9,70.4 12.9,70.4 C15.9,70.4 18.3,68 18.3,65 C18.3,62 15.9,59.6 12.9,59.6 Z M12.9,68.8 C10.8,68.8 9.2,67.1 9.2,65.1 C9.2,63 10.9,61.3 12.9,61.3 C15,61.3 16.7,63 16.7,65 C16.6,67.1 15,68.8 12.9,68.8 Z" id="Shape" fill="#24A8DA"></path>
            <path d="M7.1,60.4 C7.4,60.7 7.9,60.6 8.2,60.3 C8.5,60 8.5,59.5 8.3,59.2 C7.9,58.7 7.4,58.3 7,57.9 C6.8,57.7 6.4,57.7 6.1,57.8 C5.8,57.9 5.6,58.2 5.6,58.6 C5.6,58.7 5.7,58.9 5.8,59 C6.2,59.5 6.6,59.9 7.1,60.4 Z" id="Path" fill="#24A8DA"></path>
            <path d="M18.7,60.4 C19.2,60 19.6,59.5 20,59.1 C20.2,58.8 20.2,58.5 20.1,58.2 C19.9,57.9 19.7,57.7 19.3,57.7 C19.2,57.7 19,57.8 18.9,57.9 C18.4,58.3 18,58.8 17.6,59.2 C17.3,59.5 17.4,60 17.7,60.3 C17.9,60.6 18.4,60.6 18.7,60.4 Z" id="Path" fill="#24A8DA"></path>
            <path d="M7.1,69.7 C6.6,70.1 6.2,70.6 5.8,71 C5.6,71.2 5.6,71.6 5.7,71.9 C5.8,72.2 6.1,72.4 6.5,72.4 C6.6,72.4 6.8,72.3 6.9,72.2 C7.4,71.8 7.8,71.3 8.2,70.9 C8.5,70.6 8.4,70.1 8.1,69.8 C7.9,69.4 7.4,69.4 7.1,69.7 Z" id="Path" fill="#24A8DA"></path>
            <path d="M18.7,69.7 C18.4,69.4 17.9,69.5 17.6,69.8 C17.3,70.1 17.3,70.6 17.5,70.9 C17.9,71.4 18.4,71.8 18.8,72.2 C19,72.4 19.4,72.4 19.7,72.3 C20,72.2 20.2,71.9 20.2,71.5 C20.2,71.4 20.1,71.2 20,71.1 C19.6,70.5 19.2,70.1 18.7,69.7 Z" id="Path" fill="#24A8DA"></path>
            <path d="M13.7,72.5 C13.7,72 13.3,71.7 12.9,71.7 C12.4,71.7 12.1,72 12.1,72.5 C12.1,73.1 12.1,73.6 12.1,74.2 C12.1,74.7 12.5,75 12.9,75 C13.4,75 13.7,74.6 13.7,74.2 C13.7,73.9 13.7,73.7 13.7,73.4 C13.7,73.4 13.7,73.4 13.7,73.4 C13.7,73.1 13.7,72.8 13.7,72.5 Z" id="Path" fill="#24A8DA"></path>
        </g>
    </g>
</svg>