<?xml version="1.0" encoding="UTF-8"?>
<svg width="15px" height="28px" viewBox="0 0 15 28" version="1.1" xmlns="http://www.w3.org/2000/svg" xmlns:xlink="http://www.w3.org/1999/xlink">
    <!-- Generator: Sketch 56.2 (81672) - https://sketch.com -->
    <title>Group 3</title>
    <desc>Created with Sketch.</desc>
    <g id="Page-1" stroke="none" stroke-width="1" fill="none" fill-rule="evenodd">
        <g id="Group-3" fill-rule="nonzero">
            <g id="Group-2">
                <g id="Group" transform="translate(0.000000, 14.000000)" fill="#009AD4">
                    <path d="M7.9,14 C7.6,14 7.4,14 7.1,14 C7,14 6.9,14 6.8,14 C5.3,13.8 4,13.3 2.8,12.2 C1.6,11.1 0.9,9.8 0.6,8.2 C0.6,7.9 0.5,7.7 0.5,7.4 C0.5,7.1 0.5,6.9 0.5,6.6 C0.5,6.6 0.5,6.5 0.5,6.5 C0.6,5.4 0.9,4.4 1.5,3.4 C2.6,1.6 4.2,0.5 6.3,0.1 C6.6,0.1 6.8,-2.84217094e-14 7.1,-2.84217094e-14 C7.4,-2.84217094e-14 7.6,-2.84217094e-14 7.9,-2.84217094e-14 C8,-2.84217094e-14 8.1,-2.84217094e-14 8.2,-2.84217094e-14 C9.7,0.2 11,0.7 12.1,1.7 C13.6,3 14.4,4.7 14.5,6.7 C14.6,8.1 14.2,9.4 13.5,10.6 C12.4,12.4 10.8,13.5 8.7,13.9 C8.4,14 8.2,14 7.9,14 Z M7.5,13 C10.8,13 13.4,10.3 13.4,7.1 C13.4,3.8 10.8,1.2 7.5,1.2 C4.2,1.2 1.6,3.9 1.6,7.1 C1.6,10.3 4.2,13 7.5,13 Z" id="Shape"></path>
                    <path d="M8.3,7 C7.8,6.5 7.3,6 6.7,5.4 C6.5,5.2 6.2,4.9 6,4.7 C5.8,4.5 5.7,4.1 6,3.9 C6.2,3.7 6.6,3.7 6.8,3.9 C7.7,4.8 8.5,5.6 9.4,6.5 C9.7,6.8 9.7,7.1 9.4,7.3 C8.5,8.2 7.6,9.1 6.8,9.9 C6.6,10.1 6.4,10.1 6.2,10 C6,9.9 5.9,9.7 5.9,9.5 C5.9,9.3 6,9.2 6.1,9.1 C6.8,8.4 7.5,7.7 8.3,6.9 C8.2,7.1 8.2,7.1 8.3,7 Z" id="Path"></path>
                </g>
                <g id="Group" fill="#ACB4B4">
                    <path d="M7.9,14 C7.6,14 7.4,14 7.1,14 C7,14 6.9,14 6.8,14 C5.3,13.8 4,13.3 2.8,12.2 C1.6,11.1 0.9,9.8 0.6,8.2 C0.6,7.9 0.5,7.7 0.5,7.4 C0.5,7.1 0.5,6.9 0.5,6.6 C0.5,6.6 0.5,6.5 0.5,6.5 C0.6,5.4 0.9,4.4 1.5,3.4 C2.6,1.6 4.2,0.5 6.3,0.1 C6.6,0.1 6.8,-2.84217094e-14 7.1,-2.84217094e-14 C7.4,-2.84217094e-14 7.6,-2.84217094e-14 7.9,-2.84217094e-14 C8,-2.84217094e-14 8.1,-2.84217094e-14 8.2,-2.84217094e-14 C9.7,0.2 11,0.7 12.1,1.7 C13.6,3 14.4,4.7 14.5,6.7 C14.6,8.1 14.2,9.4 13.5,10.6 C12.4,12.4 10.8,13.5 8.7,13.9 C8.4,14 8.2,14 7.9,14 Z M7.5,13 C10.8,13 13.4,10.3 13.4,7.1 C13.4,3.8 10.8,1.2 7.5,1.2 C4.2,1.2 1.6,3.9 1.6,7.1 C1.6,10.3 4.2,13 7.5,13 Z" id="Shape"></path>
                    <path d="M8.3,7 C7.8,6.5 7.3,6 6.7,5.4 C6.5,5.2 6.2,4.9 6,4.7 C5.8,4.5 5.7,4.1 6,3.9 C6.2,3.7 6.6,3.7 6.8,3.9 C7.7,4.8 8.5,5.6 9.4,6.5 C9.7,6.8 9.7,7.1 9.4,7.3 C8.5,8.2 7.6,9.1 6.8,9.9 C6.6,10.1 6.4,10.1 6.2,10 C6,9.9 5.9,9.7 5.9,9.5 C5.9,9.3 6,9.2 6.1,9.1 C6.8,8.4 7.5,7.7 8.3,6.9 C8.2,7.1 8.2,7.1 8.3,7 Z" id="Path"></path>
                </g>
            </g>
        </g>
    </g>
</svg>