<?xml version="1.0" encoding="UTF-8"?>
<svg width="26px" height="78px" viewBox="0 0 26 78" version="1.1" xmlns="http://www.w3.org/2000/svg" xmlns:xlink="http://www.w3.org/1999/xlink">
    <!-- Generator: Sketch 56.2 (81672) - https://sketch.com -->
    <title>Group 4</title>
    <desc>Created with Sketch.</desc>
    <g id="Page-1" stroke="none" stroke-width="1" fill="none" fill-rule="evenodd">
        <g id="Group-4" transform="translate(0.000000, 0.000000)" fill-rule="nonzero">
            <path d="M22.2,5.5067062e-14 L3.7,5.5067062e-14 C1.6,5.5067062e-14 1.77635684e-15,1.7 1.77635684e-15,3.7 L1.77635684e-15,22.2 C1.77635684e-15,24.3 1.7,25.9 3.7,25.9 L22.2,25.9 C24.3,25.9 25.9,24.2 25.9,22.2 L25.9,3.7 C26,1.7 24.3,5.5067062e-14 22.2,5.5067062e-14 Z M24.5,22.3 C24.5,23.5 23.5,24.5 22.3,24.5 L3.8,24.5 C2.6,24.5 1.6,23.5 1.6,22.3 L1.6,3.8 C1.6,2.6 2.6,1.6 3.8,1.6 L22.3,1.6 C23.5,1.6 24.5,2.6 24.5,3.8 L24.5,22.3 Z" id="Shape" fill="#3E3E3E"></path>
            <path d="M22.2,26 L3.7,26 C1.6,26 1.77635684e-15,27.7 1.77635684e-15,29.7 L1.77635684e-15,48.2 C1.77635684e-15,50.3 1.7,51.9 3.7,51.9 L22.2,51.9 C24.3,51.9 25.9,50.2 25.9,48.2 L25.9,29.7 C26,27.7 24.3,26 22.2,26 Z M24.5,48.3 C24.5,49.5 23.5,50.5 22.3,50.5 L3.8,50.5 C2.6,50.5 1.6,49.5 1.6,48.3 L1.6,29.8 C1.6,28.6 2.6,27.6 3.8,27.6 L22.3,27.6 C23.5,27.6 24.5,28.6 24.5,29.8 L24.5,48.3 Z" id="Shape-Copy" fill="#ABB3B3"></path>
            <path d="M22.2,52 L3.7,52 C1.6,52 1.77635684e-15,53.7 1.77635684e-15,55.7 L1.77635684e-15,74.2 C1.77635684e-15,76.3 1.7,77.9 3.7,77.9 L22.2,77.9 C24.3,77.9 25.9,76.2 25.9,74.2 L25.9,55.7 C26,53.7 24.3,52 22.2,52 Z M24.5,74.3 C24.5,75.5 23.5,76.5 22.3,76.5 L3.8,76.5 C2.6,76.5 1.6,75.5 1.6,74.3 L1.6,55.8 C1.6,54.6 2.6,53.6 3.8,53.6 L22.3,53.6 C23.5,53.6 24.5,54.6 24.5,55.8 L24.5,74.3 Z" id="Shape-Copy-3" fill="#24A8DA"></path>
            <path d="M20.8,15.3 C19.5,15.8 18.1,16 16.7,15.7 C15.2,15.5 13.8,14.8 12.7,13.8 C11.3,12.6 10.5,11 10.2,9.2 C10,7.8 10.1,6.4 10.7,5.1 C10.8,5 10.8,4.8 10.8,4.7 C10.8,4.3 10.5,4.2 10.2,4 C10.1,4 10,4 9.9,4 C9.4,4.3 8.8,4.5 8.3,4.9 C6.2,6.3 4.8,8.3 4.3,10.7 C4.2,11.1 4.2,11.6 4.1,12 C4.1,12.1 4.1,12.1 4.1,12.2 C4.1,12.6 4.1,12.9 4.1,13.3 C4.1,13.6 4.2,14 4.2,14.3 C4.5,16.1 5.3,17.7 6.5,19 C7.9,20.5 9.6,21.5 11.7,21.9 C15.2,22.5 18.1,21.5 20.5,18.8 C21.2,18 21.7,17.1 22.1,16.2 C22.1,16.2 22.1,16.2 22.1,16.2 C22.1,16.1 22.1,16 22.1,15.9 C22,15.8 22,15.7 21.9,15.6 C21.5,15.2 21.2,15.2 20.8,15.3 Z M16.6,19.8 C15.4,20.4 14,20.6 12.7,20.5 C9.1,20.2 6.2,17.5 5.6,14.1 C5,10.5 6.8,7.6 8.8,6.3 C8.3,9.5 9.1,12.3 11.4,14.6 C13.7,16.9 16.5,17.7 19.7,17.2 C18.8,18.4 17.8,19.2 16.6,19.8 Z" id="Shape" fill="#3E3E3E"></path>
            <path d="M20.8,41.3 C19.5,41.8 18.1,42 16.7,41.7 C15.2,41.5 13.8,40.8 12.7,39.8 C11.3,38.6 10.5,37 10.2,35.2 C10,33.8 10.1,32.4 10.7,31.1 C10.8,31 10.8,30.8 10.8,30.7 C10.8,30.3 10.5,30.2 10.2,30 C10.1,30 10,30 9.9,30 C9.4,30.3 8.8,30.5 8.3,30.9 C6.2,32.3 4.8,34.3 4.3,36.7 C4.2,37.1 4.2,37.6 4.1,38 C4.1,38.1 4.1,38.1 4.1,38.2 C4.1,38.6 4.1,38.9 4.1,39.3 C4.1,39.6 4.2,40 4.2,40.3 C4.5,42.1 5.3,43.7 6.5,45 C7.9,46.5 9.6,47.5 11.7,47.9 C15.2,48.5 18.1,47.5 20.5,44.8 C21.2,44 21.7,43.1 22.1,42.2 C22.1,42.2 22.1,42.2 22.1,42.2 C22.1,42.1 22.1,42 22.1,41.9 C22,41.8 22,41.7 21.9,41.6 C21.5,41.2 21.2,41.2 20.8,41.3 Z M16.6,45.8 C15.4,46.4 14,46.6 12.7,46.5 C9.1,46.2 6.2,43.5 5.6,40.1 C5,36.5 6.8,33.6 8.8,32.3 C8.3,35.5 9.1,38.3 11.4,40.6 C13.7,42.9 16.5,43.7 19.7,43.2 C18.8,44.4 17.8,45.2 16.6,45.8 Z" id="Shape-Copy-2" fill="#ABB3B3"></path>
            <path d="M20.8,67.3 C19.5,67.8 18.1,68 16.7,67.7 C15.2,67.5 13.8,66.8 12.7,65.8 C11.3,64.6 10.5,63 10.2,61.2 C10,59.8 10.1,58.4 10.7,57.1 C10.8,57 10.8,56.8 10.8,56.7 C10.8,56.3 10.5,56.2 10.2,56 C10.1,56 10,56 9.9,56 C9.4,56.3 8.8,56.5 8.3,56.9 C6.2,58.3 4.8,60.3 4.3,62.7 C4.2,63.1 4.2,63.6 4.1,64 C4.1,64.1 4.1,64.1 4.1,64.2 C4.1,64.6 4.1,64.9 4.1,65.3 C4.1,65.6 4.2,66 4.2,66.3 C4.5,68.1 5.3,69.7 6.5,71 C7.9,72.5 9.6,73.5 11.7,73.9 C15.2,74.5 18.1,73.5 20.5,70.8 C21.2,70 21.7,69.1 22.1,68.2 C22.1,68.2 22.1,68.2 22.1,68.2 C22.1,68.1 22.1,68 22.1,67.9 C22,67.8 22,67.7 21.9,67.6 C21.5,67.2 21.2,67.2 20.8,67.3 Z M16.6,71.8 C15.4,72.4 14,72.6 12.7,72.5 C9.1,72.2 6.2,69.5 5.6,66.1 C5,62.5 6.8,59.6 8.8,58.3 C8.3,61.5 9.1,64.3 11.4,66.6 C13.7,68.9 16.5,69.7 19.7,69.2 C18.8,70.4 17.8,71.2 16.6,71.8 Z" id="Shape-Copy-4" fill="#24A8DA"></path>
        </g>
    </g>
</svg>