<?xml version="1.0" encoding="UTF-8"?>
<svg width="23px" height="22px" viewBox="0 0 23 22" version="1.1" xmlns="http://www.w3.org/2000/svg" xmlns:xlink="http://www.w3.org/1999/xlink">
    <!-- Generator: Sketch 56.2 (81672) - https://sketch.com -->
    <title>Groupicon-</title>
    <desc>Created with Sketch.</desc>
    <g id="Page-1" stroke="none" stroke-width="1" fill="none" fill-rule="evenodd">
        <g id="Group" fill="#3E3E3E" fill-rule="nonzero">
            <path d="M22.2,2.3 C22.2,1 21.2,0 19.9,0 C14.4,0 8.7,0 3,0 C1.7,0 0.7,1 0.7,2.3 C0.7,6.4 0.7,12.1 0.7,15.5 C0.7,15.8 0.7,16 0.8,16.2 C1.1,17.1 1.9,17.7 2.9,17.7 C3.4,17.7 3.9,17.7 4.4,17.7 C4.6,17.7 4.8,17.7 5,17.7 L5,18.7 C5,19.5 5,20.3 5,21.1 C5,21.4 5.2,21.7 5.4,21.8 C5.5,21.9 5.6,21.9 5.8,21.9 C6,21.9 6.1,21.8 6.3,21.7 C6.4,21.7 6.4,21.6 6.5,21.6 L7.4,20.8 C8.7,19.8 10,18.7 11.3,17.7 C11.4,17.6 11.5,17.6 11.6,17.6 C13.2,17.6 14.9,17.6 16.5,17.6 C17.6,17.6 18.8,17.6 19.9,17.6 C21.2,17.6 22.2,16.6 22.2,15.3 C22.2,11.8 22.2,6.1 22.2,2.3 Z M6.6,17.1 C6.6,16.5 6.3,16.2 5.7,16.2 C5.6,16.2 5.4,16.2 5.3,16.2 C5.1,16.2 4.9,16.2 4.7,16.2 C4.2,16.2 3.7,16.2 3.1,16.2 C2.6,16.2 2.4,16 2.4,15.5 C2.4,11.8 2.4,6.1 2.4,2.4 C2.4,1.9 2.6,1.7 3.1,1.7 C8.7,1.7 14.3,1.7 19.9,1.7 C20.4,1.7 20.6,1.9 20.6,2.4 C20.6,6.1 20.6,11.8 20.6,15.5 C20.6,16 20.4,16.2 19.9,16.2 L18.5,16.2 C16.1,16.2 13.7,16.2 11.3,16.2 C11.3,16.2 11.3,16.2 11.3,16.2 C11,16.2 10.7,16.3 10.5,16.5 C9.5,17.3 8.5,18.1 7.6,18.8 L6.7,19.5 C6.7,19.5 6.7,19.5 6.6,19.6 L6.6,19 C6.6,18.3 6.6,17.7 6.6,17.1 Z" id="Shape"></path>
            <path d="M5.9,7.3 C7.3,7.3 8.6,7.3 10,7.3 L11.6,7.3 L11.6,7.2 L11.6,7.2 L11.6,7.3 L17.1,7.3 C17.1,7.3 17.1,7.3 17.2,7.3 C17.2,7.3 17.2,7.3 17.3,7.3 C17.3,7.3 17.4,7.3 17.4,7.3 C17.8,7.3 18.1,7 18.1,6.6 C18.1,6.2 17.8,5.8 17.4,5.8 C17.3,5.8 17.3,5.8 17.2,5.8 L17.2,5.8 C13.5,5.8 9.8,5.8 6.1,5.8 C6.1,5.8 6.1,5.8 6.1,5.8 C6.1,5.8 6.1,5.8 6.1,5.8 C6.1,5.8 6,5.8 6,5.8 C5.7,5.8 5.4,6 5.3,6.3 C5.2,6.5 5.2,6.8 5.4,7 C5.3,7.1 5.6,7.3 5.9,7.3 Z" id="Path"></path>
            <path d="M11.4,11.1 C11.9,11.1 12.3,10.8 12.3,10.3 C12.3,10.1 12.2,9.9 12.1,9.7 C11.9,9.5 11.7,9.4 11.4,9.4 C10.8,9.4 10.1,9.4 9.5,9.4 L8.7,9.4 L7.9,9.4 C7.3,9.4 6.6,9.4 6,9.4 C5.7,9.4 5.5,9.5 5.3,9.7 C5.2,9.8 5.1,10 5.1,10.3 C5.1,10.8 5.5,11.1 6,11.1 C6.9,11.1 7.8,11.1 8.7,11.1 C9.6,11.1 10.5,11.1 11.4,11.1 Z" id="Path"></path>
        </g>
    </g>
</svg>