<?xml version="1.0" encoding="UTF-8"?>
<svg width="27px" height="23px" viewBox="0 0 27 23" version="1.1" xmlns="http://www.w3.org/2000/svg" xmlns:xlink="http://www.w3.org/1999/xlink">
    <!-- Generator: Sketch 56.2 (81672) - https://sketch.com -->
    <title>Group</title>
    <desc>Created with Sketch.</desc>
    <g id="Page-1" stroke="none" stroke-width="1" fill="none" fill-rule="evenodd">
        <g id="ICONS-COES" transform="translate(-126.000000, -461.000000)" fill="#000000" fill-rule="nonzero">
            <g id="Group" transform="translate(126.000000, 461.000000)">
                <path d="M19.1,18.1 C19,17.6 18.7,17.3 18.2,17.3 C17.8,17.3 17.4,17.6 17.3,18.1 C17.3,18.4 17.3,18.6 17.3,18.9 C17.3,19.3 17.7,19.6 18.1,19.6 C18.5,19.6 18.9,19.4 19,19 C19.1,18.8 19.1,18.6 19.1,18.4 C19.1,18.4 19.1,18.4 19.1,18.4 C19.1,18.3 19.1,18.2 19.1,18.1 Z" id="Path"></path>
                <path d="M16.6,18.1 C16.6,17.6 16.2,17.2 15.7,17.2 C15.2,17.2 14.9,17.6 14.8,18.1 C14.8,18.3 14.8,18.5 14.8,18.7 C14.8,19.1 15.2,19.5 15.6,19.5 C16,19.5 16.4,19.2 16.5,18.8 C16.5,18.7 16.5,18.5 16.5,18.4 C16.5,18.4 16.5,18.4 16.5,18.4 C16.6,18.3 16.6,18.2 16.6,18.1 Z" id="Path"></path>
                <path d="M26.3,6.1 C26.3,4.9 25.6,4.1 24.4,4.1 C21.2,4.1 17.9,4.1 14.7,4.1 C14.4,4.1 14.3,4 14.2,3.8 C13.9,3.2 13.6,2.6 13.3,2 C13,1.3 12.5,1 11.8,0.9 L5.3,0.9 C4.6,1 4,1.5 3.8,2.3 C3.7,2.5 3.7,2.8 3.7,3 C3.7,3.5 3.7,4 3.7,4.5 C3.5,4.5 3.4,4.5 3.3,4.5 C2.9,4.5 2.4,4.5 2,4.5 C1.2,4.5 0.6,5 0.3,5.8 C0.3,11.1 0.3,16.4 0.3,21.7 C0.7,22.7 1.5,23 2.5,23 C8.6,23 14.7,23 20.8,23 C22,23 22.8,22.2 22.8,21 C22.8,20.5 22.8,20 22.8,19.4 C23.3,19.4 23.8,19.4 24.4,19.4 C25.7,19.4 26.4,18.7 26.4,17.4 C26.3,16.8 26.3,8.6 26.3,6.1 Z M21,21.1 C14.7,21.1 8.3,21.1 2,21.1 C2,16.2 2,11.3 2,6.3 C2.1,6.3 2.2,6.3 2.2,6.3 C4.1,6.3 6,6.3 7.9,6.3 C8.1,6.3 8.2,6.4 8.3,6.5 C8.6,7.1 8.9,7.7 9.1,8.3 C9.5,9.1 10.1,9.5 11,9.5 C14.2,9.5 17.4,9.5 20.6,9.5 C20.7,9.5 20.8,9.5 21,9.5 C21,13.4 21,17.3 21,21.1 Z M24.6,17.5 C24,17.5 23.4,17.5 22.8,17.5 C22.8,17.4 22.8,17.3 22.8,17.1 C22.8,14.6 22.8,12.2 22.8,9.7 C22.8,8.5 21.9,7.7 20.8,7.7 C17.6,7.7 14.4,7.7 11.2,7.7 C10.9,7.7 10.8,7.6 10.7,7.4 C10.4,6.8 10.1,6.2 9.8,5.6 C9.5,4.9 8.9,4.5 8.1,4.5 C7.2,4.5 6.4,4.5 5.5,4.5 C5.5,3.9 5.5,3.3 5.5,2.7 C5.6,2.7 5.7,2.7 5.7,2.7 C7.6,2.7 9.5,2.7 11.4,2.7 C11.6,2.7 11.7,2.8 11.8,2.9 C12.1,3.5 12.4,4.1 12.7,4.7 C13.1,5.5 13.7,5.9 14.5,5.9 C17.7,5.9 20.9,5.9 24.2,5.9 C24.3,5.9 24.4,5.9 24.6,5.9 C24.6,9.8 24.6,13.7 24.6,17.5 Z" id="Shape"></path>
            </g>
        </g>
    </g>
</svg>