<?xml version="1.0" encoding="UTF-8"?>
<svg width="27px" height="27px" viewBox="0 0 27 27" version="1.1" xmlns="http://www.w3.org/2000/svg" xmlns:xlink="http://www.w3.org/1999/xlink">
    <!-- Generator: Sketch 56.2 (81672) - https://sketch.com -->
    <title>Group</title>
    <desc>Created with Sketch.</desc>
    <g id="Page-1" stroke="none" stroke-width="1" fill="none" fill-rule="evenodd">
        <g id="Group" fill="#000000" fill-rule="nonzero">
            <path d="M22.9,0.5 L4.4,0.5 C2.3,0.5 0.7,2.2 0.7,4.2 L0.7,22.7 C0.7,24.8 2.4,26.4 4.4,26.4 L22.9,26.4 C25,26.4 26.6,24.7 26.6,22.7 L26.6,4.2 C26.6,2.2 24.9,0.5 22.9,0.5 Z M25.1,22.8 C25.1,24 24.1,25 22.9,25 L4.4,25 C3.2,25 2.2,24 2.2,22.8 L2.2,4.3 C2.2,3.1 3.2,2.1 4.4,2.1 L22.9,2.1 C24.1,2.1 25.1,3.1 25.1,4.3 L25.1,22.8 Z" id="Shape"></path>
            <path d="M12.8,5.9 C12.8,6 12.8,6.2 12.9,6.3 C13,6.7 13.4,6.8 13.8,6.8 C14.2,6.7 14.4,6.4 14.5,6 C14.5,5.5 14.5,5 14.5,4.5 C14.5,4 14.3,3.6 13.8,3.5 C13.7,3.5 13.6,3.5 13.5,3.5 C13,3.7 12.8,4 12.8,4.5 C12.8,5 12.8,5.5 12.8,5.9 Z" id="Path"></path>
            <path d="M6.9,13.3 C6.8,12.9 6.5,12.7 6.1,12.6 C5.6,12.6 5.1,12.6 4.6,12.6 C4.1,12.6 3.7,12.8 3.6,13.3 C3.6,13.4 3.6,13.5 3.6,13.6 C3.8,14.1 4.1,14.3 4.6,14.3 C5.1,14.3 5.5,14.3 6,14.3 C6.1,14.3 6.3,14.3 6.4,14.2 C6.8,14.1 7,13.7 6.9,13.3 Z" id="Path"></path>
            <path d="M22.5,12.7 C22,12.7 21.6,12.7 21.1,12.7 C21,12.7 20.8,12.7 20.7,12.8 C20.3,12.9 20.2,13.3 20.2,13.7 C20.3,14.1 20.6,14.3 21,14.4 C21.5,14.4 22,14.4 22.5,14.4 C23,14.4 23.4,14.2 23.5,13.7 C23.5,13.6 23.5,13.5 23.5,13.4 C23.4,12.8 23.1,12.7 22.5,12.7 Z" id="Path"></path>
            <path d="M13.6,8.1 C10.6,8.1 8.2,10.5 8.2,13.5 C8.2,16.5 10.6,18.9 13.6,18.9 C16.6,18.9 19,16.5 19,13.5 C19,10.5 16.6,8.1 13.6,8.1 Z M13.6,17.3 C11.5,17.3 9.9,15.6 9.9,13.6 C9.9,11.5 11.6,9.8 13.6,9.8 C15.7,9.8 17.4,11.5 17.4,13.5 C17.3,15.6 15.7,17.3 13.6,17.3 Z" id="Shape"></path>
            <path d="M7.8,8.9 C8.1,9.2 8.6,9.1 8.9,8.8 C9.2,8.5 9.2,8 9,7.7 C8.6,7.2 8.1,6.8 7.7,6.4 C7.5,6.2 7.1,6.2 6.8,6.3 C6.5,6.4 6.3,6.7 6.3,7.1 C6.3,7.2 6.4,7.4 6.5,7.5 C6.9,8 7.3,8.4 7.8,8.9 Z" id="Path"></path>
            <path d="M19.4,8.9 C19.9,8.5 20.3,8 20.7,7.6 C20.9,7.3 20.9,7 20.8,6.7 C20.6,6.4 20.4,6.2 20,6.2 C19.9,6.2 19.7,6.3 19.6,6.4 C19.1,6.8 18.7,7.3 18.3,7.7 C18,8 18.1,8.5 18.4,8.8 C18.6,9.1 19.1,9.1 19.4,8.9 Z" id="Path"></path>
            <path d="M7.8,18.2 C7.3,18.6 6.9,19.1 6.5,19.5 C6.3,19.7 6.3,20.1 6.4,20.4 C6.5,20.7 6.8,20.9 7.2,20.9 C7.3,20.9 7.5,20.8 7.6,20.7 C8.1,20.3 8.5,19.8 8.9,19.4 C9.2,19.1 9.1,18.6 8.8,18.3 C8.6,17.9 8.1,17.9 7.8,18.2 Z" id="Path"></path>
            <path d="M19.4,18.2 C19.1,17.9 18.6,18 18.3,18.3 C18,18.6 18,19.1 18.2,19.4 C18.6,19.9 19.1,20.3 19.5,20.7 C19.7,20.9 20.1,20.9 20.4,20.8 C20.7,20.7 20.9,20.4 20.9,20 C20.9,19.9 20.8,19.7 20.7,19.6 C20.3,19 19.9,18.6 19.4,18.2 Z" id="Path"></path>
            <path d="M14.4,21 C14.4,20.5 14,20.2 13.6,20.2 C13.1,20.2 12.8,20.5 12.8,21 C12.8,21.6 12.8,22.1 12.8,22.7 C12.8,23.2 13.2,23.5 13.6,23.5 C14.1,23.5 14.4,23.1 14.4,22.7 C14.4,22.4 14.4,22.2 14.4,21.9 C14.4,21.9 14.4,21.9 14.4,21.9 C14.4,21.6 14.4,21.3 14.4,21 Z" id="Path"></path>
        </g>
    </g>
</svg>