<?xml version="1.0" encoding="UTF-8"?>
<svg width="22px" height="23px" viewBox="0 0 22 23" version="1.1" xmlns="http://www.w3.org/2000/svg" xmlns:xlink="http://www.w3.org/1999/xlink">
    <!-- Generator: Sketch 56.2 (81672) - https://sketch.com -->
    <title>icon-phone-outline</title>
    <desc>Created with Sketch.</desc>
    <g id="Page-1" stroke="none" stroke-width="1" fill="none" fill-rule="evenodd">
        <g id="icon-phone-outline" fill="#FFFFFF" fill-rule="nonzero">
            <path d="M16.8,23 C15.1,23 13.6,22.5 12.2,21.7 C7.3,19 3.5,15.2 1,10.1 C0.3,8.7 -0.1,7.2 0.1,5.7 C0.3,4.1 1,2.8 2.5,2.1 C3.3,1.8 4,1.4 4.8,1.1 C5.9,0.7 7,1.1 7.6,2.1 C8.3,3.3 9,4.4 9.6,5.6 C10.2,6.7 9.9,8 8.8,8.7 C8.7,8.8 8.6,8.8 8.5,8.9 C7.8,9.4 7.7,10.2 8.2,10.8 C9.3,12.3 10.7,13.6 12.2,14.8 C12.9,15.3 13.7,15.2 14.1,14.5 C14.1,14.5 14.1,14.5 14.1,14.4 C15.1,12.9 16.2,12.7 17.7,13.6 C18.7,14.2 19.7,14.7 20.7,15.3 C21.9,16 22.2,17.1 21.7,18.3 C21.4,19 21.1,19.8 20.8,20.5 C20.1,22 18.9,22.6 17.4,22.8 C17.2,23 16.9,23 16.8,23 Z M16.4,21.2 C18,21.2 18.8,20.7 19.4,19.5 C19.7,18.9 19.9,18.3 20.1,17.8 C20.3,17.4 20.2,17.2 19.8,16.9 C18.8,16.3 17.8,15.7 16.7,15.1 C16.1,14.8 16,14.8 15.6,15.4 C14.5,17 12.5,17.4 11,16.2 C9.4,15 8,13.6 6.8,12 C6.4,11.5 6.2,10.9 6.1,10.2 C6.1,8.9 6.6,8 7.6,7.3 C8.1,7 8.1,6.8 7.8,6.3 C7.2,5.2 6.6,4.2 6,3.1 C5.8,2.7 5.6,2.6 5.1,2.8 C4.4,3.1 3.8,3.4 3.1,3.6 C2.1,4 1.7,4.8 1.6,5.7 C1.5,7 1.8,8.2 2.4,9.4 C4.7,14 8.2,17.5 12.6,20 C14,20.7 15.3,21.2 16.4,21.2 Z" id="Shape"></path>
        </g>
    </g>
</svg>