<?xml version="1.0" encoding="UTF-8"?>
<svg width="23px" height="22px" viewBox="0 0 23 22" version="1.1" xmlns="http://www.w3.org/2000/svg" xmlns:xlink="http://www.w3.org/1999/xlink">
    <!-- Generator: Sketch 56.2 (81672) - https://sketch.com -->
    <title>icon-sheet</title>
    <desc>Created with Sketch.</desc>
    <g id="Page-1" stroke="none" stroke-width="1" fill="none" fill-rule="evenodd">
        <g id="icon-sheet" fill="#FFFFFF" fill-rule="nonzero">
            <path d="M22.5,0.7 C22.5,5.3 22.5,10 22.5,14.6 C22.4,14.8 22.3,15 22.1,15.1 C20,17.3 18,19.5 15.9,21.6 C15.7,21.9 15.4,22 15.1,22 C10.9,22 5.7,22 1.5,22 C0.8,22 0.5,21.7 0.5,21 C0.5,14.4 0.5,7.7 0.5,1.1 C0.5,0.6 0.7,0.2 1.2,0.1 C7.7,0.1 15.3,0.1 21.9,0.1 C22.1,0.1 22.3,0.3 22.5,0.7 Z M20.8,1.7 C14.9,1.7 8,1.7 2.1,1.7 C2.1,7.9 2.1,14.1 2.1,20.2 C5.8,20.2 10.6,20.2 14.4,20.2 C14.4,20.1 14.4,20 14.4,19.9 C14.4,18.1 14.4,16.2 14.4,14.4 C14.4,13.7 14.7,13.4 15.3,13.4 C17,13.4 18.8,13.4 20.5,13.4 C20.6,13.4 20.7,13.4 20.7,13.4 C20.8,9.6 20.8,5.7 20.8,1.7 Z M19.2,15.3 C18.1,15.3 17,15.3 15.8,15.3 C15.8,16.6 15.8,17.8 15.8,19 C17,17.7 18.1,16.5 19.2,15.3 Z" id="Shape"></path>
            <path d="M12,11.9 C10.5,11.9 9,11.9 7.4,11.9 C6.8,11.9 6.4,11.3 6.6,10.8 C6.7,10.5 7,10.2 7.3,10.2 C7.3,10.2 7.4,10.2 7.4,10.2 C10.4,10.2 13.5,10.2 16.5,10.2 C16.9,10.2 17.2,10.4 17.3,10.8 C17.5,11.4 17.1,12 16.5,12 C15.3,12 14.1,12 12.9,12 C12.6,11.9 12.3,11.9 12,11.9 Z" id="Path"></path>
            <path d="M11.9,8.5 C10.4,8.5 8.9,8.5 7.4,8.5 C7,8.5 6.7,8.3 6.6,7.8 C6.5,7.4 6.8,6.9 7.2,6.8 C7.3,6.8 7.4,6.8 7.5,6.8 C10.5,6.8 13.5,6.8 16.5,6.8 C16.6,6.8 16.7,6.8 16.9,6.9 C17.2,7 17.5,7.4 17.4,7.8 C17.3,8.2 17,8.5 16.7,8.5 C16.6,8.5 16.6,8.5 16.5,8.5 C14.9,8.5 13.4,8.5 11.9,8.5 Z" id="Path"></path>
        </g>
    </g>
</svg>