<?xml version="1.0" encoding="UTF-8" standalone="no"?>
<!-- Created with Inkscape (http://www.inkscape.org/) -->

<svg
   xmlns:dc="http://purl.org/dc/elements/1.1/"
   xmlns:cc="http://creativecommons.org/ns#"
   xmlns:rdf="http://www.w3.org/1999/02/22-rdf-syntax-ns#"
   xmlns:svg="http://www.w3.org/2000/svg"
   xmlns="http://www.w3.org/2000/svg"
   xmlns:sodipodi="http://sodipodi.sourceforge.net/DTD/sodipodi-0.dtd"
   xmlns:inkscape="http://www.inkscape.org/namespaces/inkscape"
   width="5.6444445mm"
   height="6.8015556mm"
   viewBox="0 0 20 24.1"
   id="svg4775"
   version="1.1"
   inkscape:version="0.91 r13725"
   sodipodi:docname="icon-download-file.svg">
  <defs
     id="defs4777" />
  <sodipodi:namedview
     id="base"
     pagecolor="#ffffff"
     bordercolor="#666666"
     borderopacity="1.0"
     inkscape:pageopacity="0.0"
     inkscape:pageshadow="2"
     inkscape:zoom="26.016597"
     inkscape:cx="10"
     inkscape:cy="12.05"
     inkscape:document-units="px"
     inkscape:current-layer="layer1"
     showgrid="false"
     fit-margin-top="0"
     fit-margin-left="0"
     fit-margin-right="0"
     fit-margin-bottom="0"
     inkscape:window-width="1333"
     inkscape:window-height="744"
     inkscape:window-x="33"
     inkscape:window-y="24"
     inkscape:window-maximized="1" />
  <metadata
     id="metadata4780">
    <rdf:RDF>
      <cc:Work
         rdf:about="">
        <dc:format>image/svg+xml</dc:format>
        <dc:type
           rdf:resource="http://purl.org/dc/dcmitype/StillImage" />
        <dc:title />
      </cc:Work>
    </rdf:RDF>
  </metadata>
  <g
     inkscape:label="Layer 1"
     inkscape:groupmode="layer"
     id="layer1"
     transform="translate(-156.18238,-326.97151)">
    <g
       transform="translate(-205.71762,169.27151)"
       id="g617"
       style="fill:#474747;fill-opacity:1">
      <path
         inkscape:connector-curvature="0"
         d="m 381.5,163.9 c -1.9,-1.9 -3.9,-3.9 -5.8,-5.8 -0.1,-0.1 -0.3,-0.3 -0.4,-0.4 -3.6,0 -7.2,0 -10.8,0 0,0 -0.1,0 -0.1,0.1 -1.6,0.4 -2.5,1.6 -2.5,3.2 0,5.8 0,11.7 0,17.5 0,1.9 1.4,3.3 3.4,3.3 4.4,0 8.8,0 13.2,0 0.3,0 0.5,0 0.8,-0.1 1.6,-0.3 2.6,-1.6 2.6,-3.2 0,-4.6 0,-9.1 0,-13.7 -0.1,-0.4 -0.2,-0.7 -0.4,-0.9 z m -5.9,-4.2 c 1.4,1.4 2.7,2.7 4.1,4.1 -0.1,0 -0.2,0 -0.3,0 -0.8,0 -1.5,0 -2.3,0 -1,0 -1.6,-0.6 -1.6,-1.5 0,-0.8 0,-1.6 0,-2.4 0.1,0 0.1,-0.1 0.1,-0.2 z m 5,5.5 c 0,4.4 0,8.8 0,13.2 0,0.9 -0.4,1.5 -1.2,1.9 -0.3,0.1 -0.6,0.2 -1,0.2 -4.4,0 -8.8,0 -13.2,0 -1.3,0 -2.2,-0.9 -2.2,-2.1 0,-5.9 0,-11.7 0,-17.6 0,-1.2 0.9,-2.1 2.2,-2.1 3,0 6,0 9,0 0.1,0 0.1,0 0.2,0 0,0.1 0,0.2 0,0.3 0,1.1 0,2.2 0,3.3 0,1.6 1.1,2.7 2.8,2.7 1,0 2.1,0 3.1,0 0.1,0 0.2,0 0.3,0 0,0.1 0,0.2 0,0.2 z"
         id="path619"
         style="fill:#474747;fill-opacity:1" />
      <path
         inkscape:connector-curvature="0"
         d="m 371.2,174.3 c 0.4,0.4 0.7,0.4 1.1,0 1.1,-1.1 2.2,-2.3 3.3,-3.4 0.1,-0.1 0.1,-0.1 0.2,-0.2 0.3,-0.4 0,-0.9 -0.4,-0.9 -0.2,0 -0.4,0.1 -0.6,0.2 -0.7,0.8 -1.5,1.5 -2.2,2.3 -0.1,0.1 -0.1,0.1 -0.1,0.2 0,0 -0.1,0 -0.1,-0.1 0,-0.1 0,-0.2 0,-0.2 0,-1.9 0,-3.9 0,-5.8 0,-0.1 0,-0.2 0,-0.3 0,-0.3 -0.3,-0.5 -0.6,-0.5 -0.3,0 -0.6,0.2 -0.6,0.5 0,0.1 0,0.2 0,0.3 0,1.9 0,3.8 0,5.8 0,0.1 0,0.2 0,0.3 0,0 -0.1,0 -0.1,0 0,-0.1 -0.1,-0.1 -0.1,-0.2 -0.7,-0.8 -1.5,-1.5 -2.2,-2.3 -0.2,-0.2 -0.3,-0.3 -0.6,-0.3 -0.2,0 -0.4,0.1 -0.5,0.4 -0.1,0.3 0,0.5 0.2,0.7 1.1,1.2 2.2,2.3 3.3,3.5 z"
         id="path621"
         style="fill:#474747;fill-opacity:1" />
      <path
         inkscape:connector-curvature="0"
         d="m 376.7,176.5 c -1.6,0 -3.3,0 -4.9,0 -1.7,0 -3.3,0 -5,0 -0.3,0 -0.6,0.2 -0.6,0.4 -0.1,0.3 0.1,0.5 0.3,0.6 0.1,0 0.3,0.1 0.4,0.1 3.3,0 6.5,0 9.8,0 0.1,0 0.2,0 0.3,0 0.2,-0.1 0.4,-0.2 0.4,-0.4 0.1,-0.2 0,-0.4 -0.2,-0.5 -0.1,-0.1 -0.3,-0.2 -0.5,-0.2 z"
         id="path623"
         style="fill:#474747;fill-opacity:1" />
    </g>
  </g>
</svg>
