<?xml version="1.0" encoding="UTF-8"?>
<svg width="23px" height="22px" viewBox="0 0 23 22" version="1.1" xmlns="http://www.w3.org/2000/svg" xmlns:xlink="http://www.w3.org/1999/xlink">
    <!-- Generator: Sketch 56.2 (81672) - https://sketch.com -->
    <title>icon-currency</title>
    <desc>Created with Sketch.</desc>
    <g id="Page-1" stroke="none" stroke-width="1" fill="none" fill-rule="evenodd">
        <g id="icon-currency" fill="#FFFFFF" fill-rule="nonzero">
            <g id="Path">
                <path d="M19,2.5 C19,2 19,1.5 19,1.1 C19,0.4 19.6,-0.1 20.2,0.1 C20.6,0.2 21,0.6 21,1 C21,2.4 21,3.7 21,5.1 C21,5.6 20.6,6 20,6.1 C18.6,6.1 17.3,6.1 15.9,6.1 C15.3,6.1 14.9,5.6 14.9,5.1 C14.9,4.6 15.3,4.1 15.9,4.1 C16.4,4.1 17,4.1 17.5,4.1 C17.5,4.1 17.5,4.1 17.6,4 C17.5,4 17.5,4 17.4,3.9 C12.2,-0.1 4.7,2.5 3.2,8.9 C2,13.8 5,18.7 9.9,19.8 C10.5,19.9 11.2,20 11.9,20 C12.4,20 12.8,20.3 12.9,20.8 C13,21.3 12.8,21.7 12.3,21.9 C12.1,22 12,22 11.8,22 C6.5,21.9 2,18.1 1.1,12.8 C0.1,6.9 4,1.2 9.9,0.2 C13.2,-0.4 16.1,0.4 18.7,2.4 C18.8,2.4 18.9,2.5 19,2.5 C19,2.5 19,2.5 19,2.5 Z"></path>
                <path d="M20,18.1 C20,18.6 19.5,19.1 19,19.1 C18.5,19.1 18,18.6 18,18.1 C18,17.5 18.5,17.1 19,17.1 C19.6,17.1 20,17.6 20,18.1 Z"></path>
                <path d="M16.8,20.3 C16.8,20.8 16.3,21.3 15.8,21.3 C15.3,21.3 14.8,20.8 14.8,20.3 C14.8,19.7 15.3,19.3 15.8,19.3 C16.3,19.3 16.8,19.7 16.8,20.3 Z"></path>
                <path d="M22,10.1 C22.6,10.1 23,10.6 23,11.1 C23,11.7 22.5,12.1 22,12.1 C21.4,12.1 21,11.6 21,11.1 C21,10.5 21.4,10 22,10.1 Z"></path>
                <path d="M21.2,13.9 C21.8,13.9 22.2,14.4 22.2,14.9 C22.2,15.5 21.7,15.9 21.2,15.9 C20.6,15.9 20.2,15.4 20.2,14.9 C20.2,14.3 20.7,13.9 21.2,13.9 Z"></path>
            </g>
            <path d="M8.7,13.9 C9.2,14.2 10.1,14.6 11,14.6 C12.3,14.6 12.9,14 12.9,13.2 C12.9,12.4 12.4,11.9 11.1,11.4 C9.4,10.8 8.6,9.8 8.6,8.7 C8.6,7.2 9.9,5.9 11.9,5.9 C12.9,5.9 13.7,6.2 14.3,6.5 L13.9,7.8 C13.5,7.6 12.8,7.2 11.9,7.2 C10.9,7.2 10.3,7.8 10.3,8.5 C10.3,9.3 10.9,9.7 12.1,10.1 C13.8,10.7 14.6,11.6 14.6,13 C14.6,14.7 13.3,15.9 11,15.9 C10,15.9 9,15.6 8.3,15.2 L8.7,13.9 Z" id="Path"></path>
            <path d="M11.6,17.1 C11.3,17.1 11.1,16.9 11.1,16.5 L11.2,4.4 C11.2,4.1 11.4,3.9 11.8,3.9 C12.1,3.9 12.3,4.1 12.3,4.5 L12.2,16.6 C12.2,16.8 11.9,17.1 11.6,17.1 Z" id="Path"></path>
        </g>
    </g>
</svg>