<?xml version="1.0" encoding="UTF-8"?>
<svg width="23px" height="23px" viewBox="0 0 23 23" version="1.1" xmlns="http://www.w3.org/2000/svg" xmlns:xlink="http://www.w3.org/1999/xlink">
    <!-- Generator: Sketch 56.2 (81672) - https://sketch.com -->
    <title>Group</title>
    <desc>Created with Sketch.</desc>
    <g id="Page-1" stroke="none" stroke-width="1" fill="none" fill-rule="evenodd">
        <g id="ICONS-COES(1)" transform="translate(-203.000000, -1406.000000)" fill="#FFFFFF" fill-rule="nonzero">
            <g id="Group" transform="translate(203.000000, 1406.000000)">
                <path d="M10.9,0.8 C11.4,0.8 11.8,0.8 12.3,0.8 C12.4,0.8 12.4,0.8 12.5,0.8 C14.4,0.9 16.1,1.5 17.6,2.5 C20.2,4.3 21.9,6.7 22.4,9.8 C22.5,10.2 22.5,10.6 22.6,11 C22.6,11.5 22.6,11.9 22.6,12.4 C22.6,12.5 22.6,12.5 22.6,12.6 C22.4,14.7 21.8,16.6 20.5,18.2 C18.8,20.6 16.4,22 13.5,22.5 C13.1,22.6 12.7,22.6 12.3,22.7 C11.8,22.7 11.4,22.7 10.9,22.7 C10.9,22.7 10.8,22.7 10.8,22.7 C8.7,22.5 6.8,21.9 5.1,20.6 C2.7,18.9 1.3,16.5 0.8,13.6 C0.7,13.2 0.7,12.8 0.6,12.4 C0.6,11.9 0.6,11.5 0.6,11 C0.6,10.7 0.7,10.5 0.7,10.2 C1,8 1.9,6 3.4,4.3 C5.1,2.4 7.2,1.3 9.7,0.8 C10.1,0.9 10.5,0.9 10.9,0.8 Z M1.7,11.8 C1.7,17.3 6.1,21.7 11.6,21.7 C17.1,21.7 21.5,17.3 21.5,11.8 C21.5,6.3 17.1,1.9 11.6,1.9 C6.1,1.9 1.7,6.3 1.7,11.8 Z" id="Shape"></path>
                <path d="M11.6,12.6 C11.5,12.7 11.5,12.7 11.4,12.8 C10.7,13.5 10,14.2 9.4,14.8 C9.3,14.9 9.3,14.9 9.2,15 C9,15.2 8.7,15.2 8.5,15 C8.3,14.8 8.3,14.5 8.5,14.3 C8.5,14.2 8.6,14.2 8.7,14.1 C9.4,13.4 10.1,12.7 10.7,12.1 C10.8,12 10.8,12 10.9,11.9 C10.8,11.8 10.8,11.8 10.7,11.7 C10,11 9.3,10.3 8.6,9.6 C8.5,9.5 8.4,9.4 8.4,9.2 C8.3,9 8.4,8.8 8.6,8.7 C8.8,8.6 9,8.6 9.2,8.7 C9.3,8.8 9.3,8.8 9.4,8.9 C10.1,9.6 10.8,10.3 11.4,10.9 C11.5,11 11.5,11 11.6,11.1 C11.7,11 11.7,11 11.8,10.9 C12.5,10.2 13.2,9.5 13.9,8.8 C14,8.7 14.1,8.6 14.3,8.6 C14.5,8.5 14.7,8.6 14.9,8.8 C15,9 15,9.2 14.9,9.4 C14.8,9.5 14.8,9.5 14.7,9.6 C14,10.3 13.3,11 12.7,11.6 C12.6,11.7 12.6,11.7 12.5,11.8 C12.6,11.9 12.6,11.9 12.7,12 C13.4,12.7 14.1,13.4 14.7,14.1 C14.8,14.2 14.8,14.2 14.9,14.3 C15,14.5 15,14.8 14.8,15 C14.6,15.2 14.3,15.2 14.1,15.1 C14,15 14,15 13.9,14.9 C13.2,14.2 12.5,13.5 11.9,12.9 C11.7,12.7 11.7,12.7 11.6,12.6 Z" id="Path"></path>
            </g>
        </g>
    </g>
</svg>