<?xml version="1.0" encoding="UTF-8"?>
<svg width="20px" height="27px" viewBox="0 0 20 27" version="1.1" xmlns="http://www.w3.org/2000/svg" xmlns:xlink="http://www.w3.org/1999/xlink">
    <!-- Generator: Sketch 56.2 (81672) - https://sketch.com -->
    <title>icon-map</title>
    <desc>Created with Sketch.</desc>
    <g id="Page-1" stroke="none" stroke-width="1" fill="none" fill-rule="evenodd">
        <g id="icon-map" fill="#353535" fill-rule="nonzero">
            <path d="M19.9000001,8 C19.3000001,4.4 16.2000001,1.3 12.4000001,0.5 C12.0000001,0.4 11.7000001,0.4 11.3000001,0.3 C11.1000001,0.3 11.0000001,0.3 10.8000001,0.2 L9.40000013,0.2 L9.30000013,0.2 C9.30000013,0.2 9.20000013,0.2 9.20000013,0.2 C9.00000013,0.2 8.80000013,0.3 8.60000013,0.3 C8.20000013,0.4 7.80000013,0.4 7.40000013,0.5 C4.20000013,1.3 1.70000013,3.5 0.700000128,6.4 C-0.299999872,9.1 0.100000128,11.9 1.80000013,14.3 C3.60000013,16.9 5.50000013,19.5 7.30000013,22.1 L9.80000013,25.7 C9.80000013,25.8 9.90000013,25.8 9.90000013,25.9 L10.2000001,26.3 L10.5000001,26 C10.6000001,25.9 10.6000001,25.9 10.6000001,25.8 L13.4000001,21.9 C15.1000001,19.4 16.9000001,17 18.6000001,14.5 C19.7000001,12.5 20.2000001,10.3 19.9000001,8 Z M16.6000001,13.2 C15.0000001,15.5 13.4000001,17.7 11.8000001,20 L10.0000001,22.6 L7.30000013,18.8 C6.00000013,17 4.70000013,15.1 3.40000013,13.3 C2.30000013,11.7 1.90000013,9.8 2.20000013,8 C2.60000013,6.1 3.90000013,4.4 5.70000013,3.3 C7.00000013,2.6 8.40000013,2.2 9.90000013,2.2 C11.0000001,2.2 12.2000001,2.4 13.3000001,2.9 C15.5000001,3.8 17.1000001,5.6 17.7000001,7.8 C18.2000001,9.7 17.8000001,11.6 16.6000001,13.2 Z" id="Shape"></path>
            <path d="M10.0000001,4.7 C10.0000001,4.7 10.0000001,4.7 10.0000001,4.7 C8.60000013,4.7 7.40000013,5.2 6.40000013,6.1 C5.40000013,7 4.90000013,8.2 4.90000013,9.4 C4.90000013,10.7 5.40000013,11.8 6.40000013,12.7 C7.40000013,13.6 8.60000013,14.1 10.0000001,14.1 C10.0000001,14.1 10.0000001,14.1 10.0000001,14.1 C11.4000001,14.1 12.6000001,13.6 13.6000001,12.7 C14.6000001,11.8 15.1000001,10.6 15.1000001,9.4 C15.1000001,6.8 12.8000001,4.7 10.0000001,4.7 Z M13.0000001,9.4 C13.0000001,10.1 12.7000001,10.7 12.2000001,11.2 C11.6000001,11.8 10.8000001,12.1 10.0000001,12.1 C10.0000001,12.1 10.0000001,12.1 10.0000001,12.1 C9.20000013,12.1 8.40000013,11.8 7.80000013,11.2 C7.30000013,10.7 7.00000013,10 7.00000013,9.4 C7.00000013,7.9 8.40000013,6.7 10.0000001,6.7 C10.0000001,6.7 10.0000001,6.7 10.0000001,6.7 C11.7000001,6.6 13.0000001,7.9 13.0000001,9.4 Z" id="Shape"></path>
        </g>
    </g>
</svg>