<?xml version="1.0" encoding="UTF-8" standalone="no"?>
<!-- Created with Inkscape (http://www.inkscape.org/) -->

<svg
   xmlns:dc="http://purl.org/dc/elements/1.1/"
   xmlns:cc="http://creativecommons.org/ns#"
   xmlns:rdf="http://www.w3.org/1999/02/22-rdf-syntax-ns#"
   xmlns:svg="http://www.w3.org/2000/svg"
   xmlns="http://www.w3.org/2000/svg"
   xmlns:sodipodi="http://sodipodi.sourceforge.net/DTD/sodipodi-0.dtd"
   xmlns:inkscape="http://www.inkscape.org/namespaces/inkscape"
   width="6.208889mm"
   height="6.7733335mm"
   viewBox="0 0 22 24.000001"
   id="svg5420"
   version="1.1"
   inkscape:version="0.91 r13725"
   sodipodi:docname="icon-download-zip.svg">
  <defs
     id="defs5422" />
  <sodipodi:namedview
     id="base"
     pagecolor="#ffffff"
     bordercolor="#666666"
     borderopacity="1.0"
     inkscape:pageopacity="0.0"
     inkscape:pageshadow="2"
     inkscape:zoom="26.125002"
     inkscape:cx="11"
     inkscape:cy="12.000001"
     inkscape:document-units="px"
     inkscape:current-layer="layer1"
     showgrid="false"
     fit-margin-top="0"
     fit-margin-left="0"
     fit-margin-right="0"
     fit-margin-bottom="0"
     inkscape:window-width="1333"
     inkscape:window-height="744"
     inkscape:window-x="33"
     inkscape:window-y="24"
     inkscape:window-maximized="1" />
  <metadata
     id="metadata5425">
    <rdf:RDF>
      <cc:Work
         rdf:about="">
        <dc:format>image/svg+xml</dc:format>
        <dc:type
           rdf:resource="http://purl.org/dc/dcmitype/StillImage" />
        <dc:title />
      </cc:Work>
    </rdf:RDF>
  </metadata>
  <g
     inkscape:label="Layer 1"
     inkscape:groupmode="layer"
     id="layer1"
     transform="translate(13.26098,-386.93761)">
    <g
       transform="translate(-342.46098,229.73761)"
       id="g611"
       style="fill:#474747;fill-opacity:1">
      <path
         inkscape:connector-curvature="0"
         d="m 348.5,181.2 c -5.5,0 -11,0 -16.5,0 -0.6,-0.2 -0.8,-0.6 -0.8,-1.2 0,-1.4 0,-2.8 0,-4.2 0,-0.1 0,-0.2 0,-0.3 -0.2,0 -0.4,0 -0.5,0 -0.9,0 -1.5,-0.6 -1.5,-1.4 0,-2.3 0,-4.6 0,-6.9 0,-0.8 0.6,-1.4 1.5,-1.4 0.2,0 0.3,0 0.5,0 0,-0.1 0,-0.2 0,-0.3 0,-2.4 0,-4.8 0,-7.2 0,-0.7 0.4,-1.1 1.1,-1.1 3.8,0 7.6,0 11.4,0 0.3,0 0.5,0.1 0.7,0.3 1.5,1.7 3,3.3 4.5,5 0.2,0.2 0.3,0.4 0.3,0.7 0,0.8 0,1.6 0,2.3 0,0.1 0,0.2 0,0.3 0.2,0 0.3,0 0.5,0 0.9,0 1.5,0.6 1.5,1.4 0,2.3 0,4.6 0,6.9 0,0.8 -0.6,1.4 -1.5,1.4 -0.2,0 -0.3,0 -0.5,0 0,0.1 0,0.2 0,0.3 0,1.4 0,2.8 0,4.2 0.1,0.6 -0.1,1 -0.7,1.2 z m -5,-23 c -3.8,0 -7.5,0 -11.3,0 0,2.5 0,5.1 0,7.6 5.4,0 10.7,0 16,0 0,-0.8 0,-1.6 0,-2.3 -0.1,0 -0.2,0 -0.3,0 -1.3,0 -2.6,0 -3.8,0 -0.5,0 -0.7,-0.2 -0.7,-0.6 0,-1.5 0,-2.9 0,-4.4 0.1,-0.1 0.1,-0.2 0.1,-0.3 z m 4.8,17.3 c -5.4,0 -10.7,0 -16,0 0,0.1 0,0.2 0,0.2 0,1.3 0,2.7 0,4 0,0.2 0.1,0.3 0.3,0.3 5.2,0 10.3,0 15.5,0 0.1,0 0.2,0 0.3,0 -0.1,-1.5 -0.1,-3 -0.1,-4.5 z m -10.7,-7.2 c -0.1,0.1 -0.1,0.2 -0.2,0.3 -1,1.4 -2,2.8 -3.1,4.2 -0.3,0.4 -0.2,0.8 -0.2,1.2 1.9,0 3.8,0 5.6,0 0,-0.4 0,-0.9 0,-1.3 -1.1,0 -2.3,0 -3.4,0 0.1,-0.1 0.1,-0.2 0.2,-0.2 1,-1.4 2,-2.8 3,-4.2 0.3,-0.4 0.2,-0.8 0.2,-1.2 -1.8,0 -3.5,0 -5.2,0 0,0.4 0,0.9 0,1.3 1,-0.1 2,-0.1 3.1,-0.1 z m 7.9,5.7 c 0,-0.9 0,-1.7 0,-2.5 0.5,0 1,0 1.5,-0.1 1,-0.2 1.7,-0.7 2,-1.7 0.3,-1.3 -0.4,-2.5 -1.8,-2.7 -0.8,-0.1 -1.6,-0.1 -2.3,-0.1 -0.3,0 -0.7,0.1 -1,0.1 0,2.3 0,4.6 0,6.9 0.5,0.1 1.1,0.1 1.6,0.1 z m -3,-7 c -0.6,0 -1.1,0 -1.6,0 0,2.3 0,4.7 0,7 0.5,0 1.1,0 1.6,0 0,-2.3 0,-4.6 0,-7 z"
         id="path613"
         style="fill:#474747;fill-opacity:1" />
      <path
         inkscape:connector-curvature="0"
         d="m 345.5,168.2 c 0.5,-0.1 1,-0.1 1.4,0.1 0.4,0.2 0.5,0.5 0.5,0.9 0,0.4 -0.2,0.8 -0.6,1 -0.4,0.2 -0.8,0.2 -1.3,0.1 0,-0.7 0,-1.4 0,-2.1 z"
         id="path615"
         style="fill:#474747;fill-opacity:1" />
    </g>
  </g>
</svg>
