<?xml version="1.0" encoding="UTF-8"?>
<svg width="22px" height="23px" viewBox="0 0 22 23" version="1.1" xmlns="http://www.w3.org/2000/svg" xmlns:xlink="http://www.w3.org/1999/xlink">
    <!-- Generator: Sketch 56.2 (81672) - https://sketch.com -->
    <title>Group 2</title>
    <desc>Created with Sketch.</desc>
    <g id="Page-1" stroke="none" stroke-width="1" fill="none" fill-rule="evenodd">
        <g id="Group-2" transform="translate(0.043709, 0.755561)" fill-rule="nonzero">
            <path d="M17.9562911,2.44443938 C17.9562911,2.44443938 17.8562911,2.44443938 17.9562911,2.44443938 C17.8562911,2.44443938 17.7562911,2.34443938 17.7562911,2.34443938 C15.1562911,0.344439376 12.1562911,-0.355560624 8.95629105,0.244439376 C3.05629105,1.34443938 -0.843708945,7.04443938 0.156291055,12.9444394 C1.05629105,18.1444394 5.55629105,22.0444394 10.8562911,22.0444394 C11.0562911,22.0444394 11.2562911,22.0444394 11.3562911,21.9444394 C11.7562911,21.7444394 12.0562911,21.2444394 11.9562911,20.8444394 C11.8562911,20.4444394 11.4562911,20.1444394 10.9562911,20.0444394 C10.2562911,19.9444394 9.65629105,19.9444394 8.95629105,19.8444394 C4.05629105,18.7444394 0.956291055,13.9444394 2.15629105,8.94443938 C3.65629105,2.54443938 11.1562911,-0.0555606245 16.3562911,3.84443938 C16.3562911,3.84443938 16.4562911,3.94443938 16.5562911,3.94443938 C16.5562911,3.94443938 16.5562911,3.94443938 16.4562911,4.04443938 C15.9562911,4.04443938 15.3562911,4.04443938 14.8562911,4.04443938 C14.2562911,4.04443938 13.8562911,4.54443938 13.8562911,5.04443938 C13.8562911,5.54443938 14.2562911,6.04443938 14.8562911,6.04443938 C16.2562911,6.04443938 17.5562911,6.04443938 18.9562911,6.04443938 C19.4562911,6.04443938 19.9562911,5.64443938 19.9562911,5.04443938 C19.9562911,3.64443938 19.9562911,2.34443938 19.9562911,0.944439376 C19.9562911,0.544439376 19.6562911,0.144439376 19.1562911,0.0444393755 C18.4562911,-0.155560624 17.9562911,0.344439376 17.9562911,1.04443938 C17.9562911,1.44443938 17.9562911,1.94443938 17.9562911,2.44443938 Z M9.95629105,7.94443938 C9.95629105,7.94443938 9.95629105,7.94443938 9.95629105,7.94443938 C9.95629105,8.94443938 9.95629105,9.94443938 9.95629105,10.9444394 C9.95629105,11.2444394 10.0562911,11.4444394 10.2562911,11.6444394 C11.2562911,12.6444394 11.4562911,13.0444394 12.4562911,14.0444394 C12.7562911,14.3444394 13.0562911,14.3444394 13.4562911,14.2444394 C14.1562911,14.0444394 14.4562911,13.1444394 13.8562911,12.5444394 C13.0562911,11.7444394 12.9562911,11.5444394 12.1562911,10.7444394 C12.0562911,10.6444394 11.9562911,10.5444394 11.9562911,10.3444394 C11.9562911,8.64443938 11.9562911,7.94443938 11.9562911,6.24443938 C11.9562911,6.14443938 11.9562911,5.94443938 11.9562911,5.84443938 C11.8562911,5.34443938 11.3562911,5.04443938 10.8562911,5.14443938 C10.3562911,5.24443938 10.0562911,5.64443938 10.0562911,6.04443938 C9.95629105,7.04443938 9.95629105,6.94443938 9.95629105,7.94443938 Z M19.0562911,18.0444394 C19.0562911,17.5444394 18.6562911,17.0444394 18.0562911,17.0444394 C17.4562911,17.0444394 17.0562911,17.5444394 17.0562911,18.0444394 C17.0562911,18.5444394 17.5562911,19.0444394 18.0562911,19.0444394 C18.5562911,19.0444394 19.0562911,18.5444394 19.0562911,18.0444394 Z M15.7562911,20.2444394 C15.7562911,19.7444394 15.3562911,19.2444394 14.7562911,19.2444394 C14.1562911,19.2444394 13.7562911,19.7444394 13.7562911,20.2444394 C13.7562911,20.7444394 14.2562911,21.2444394 14.7562911,21.2444394 C15.3562911,21.2444394 15.7562911,20.7444394 15.7562911,20.2444394 Z M20.9562911,9.94443938 C20.3562911,9.94443938 19.9562911,10.3444394 19.9562911,10.9444394 C19.9562911,11.5444394 20.3562911,11.9444394 20.9562911,11.9444394 C21.5562911,11.9444394 21.9562911,11.5444394 21.9562911,10.9444394 C21.9562911,10.4444394 21.5562911,9.94443938 20.9562911,9.94443938 Z M20.2562911,13.8444394 C19.6562911,13.8444394 19.2562911,14.2444394 19.2562911,14.8444394 C19.2562911,15.4444394 19.6562911,15.8444394 20.2562911,15.8444394 C20.8562911,15.8444394 21.2562911,15.4444394 21.2562911,14.8444394 C21.2562911,14.2444394 20.7562911,13.8444394 20.2562911,13.8444394 Z" id="Shape" fill="#FFFFFF"></path>
            <path d="M17.9562911,2.44443938 C17.9562911,1.94443938 17.9562911,1.44443938 17.9562911,1.04443938 C17.9562911,0.344439376 18.5562911,-0.155560624 19.1562911,0.0444393755 C19.5562911,0.144439376 19.9562911,0.544439376 19.9562911,0.944439376 C19.9562911,2.34443938 19.9562911,3.64443938 19.9562911,5.04443938 C19.9562911,5.54443938 19.5562911,6.04443938 18.9562911,6.04443938 C17.5562911,6.04443938 16.2562911,6.04443938 14.8562911,6.04443938 C14.2562911,6.04443938 13.8562911,5.64443938 13.8562911,5.04443938 C13.8562911,4.54443938 14.2562911,4.04443938 14.8562911,4.04443938 C15.3562911,4.04443938 15.9562911,4.04443938 16.4562911,4.04443938 C16.4562911,4.04443938 16.4562911,4.04443938 16.5562911,3.94443938 C16.4562911,3.94443938 16.4562911,3.94443938 16.3562911,3.84443938 C11.1562911,-0.0555606245 3.65629105,2.54443938 2.15629105,8.94443938 C0.956291055,13.8444394 4.05629105,18.6444394 8.95629105,19.8444394 C9.55629105,19.9444394 10.2562911,20.0444394 10.9562911,20.0444394 C11.4562911,20.0444394 11.8562911,20.3444394 11.9562911,20.8444394 C12.0562911,21.3444394 11.8562911,21.7444394 11.3562911,21.9444394 C11.1562911,22.0444394 11.0562911,22.0444394 10.8562911,22.0444394 C5.55629105,21.9444394 1.05629105,18.1444394 0.156291055,12.9444394 C-0.843708945,7.04443938 3.05629105,1.34443938 8.95629105,0.244439376 C12.2562911,-0.355560624 15.1562911,0.344439376 17.7562911,2.34443938 C17.7562911,2.34443938 17.8562911,2.34443938 17.9562911,2.44443938 C17.8562911,2.44443938 17.9562911,2.44443938 17.9562911,2.44443938 Z" id="Path" fill="#000000"></path>
            <path d="M9.95629105,7.94443938 C9.95629105,6.94443938 9.95629105,7.04443938 9.95629105,6.04443938 C9.95629105,5.54443938 10.3562911,5.14443938 10.7562911,5.14443938 C11.2562911,5.04443938 11.7562911,5.34443938 11.8562911,5.84443938 C11.8562911,5.94443938 11.8562911,6.14443938 11.8562911,6.24443938 C11.8562911,7.94443938 11.8562911,8.64443938 11.8562911,10.3444394 C11.8562911,10.5444394 11.8562911,10.6444394 12.0562911,10.7444394 C12.8562911,11.5444394 12.9562911,11.7444394 13.7562911,12.5444394 C14.3562911,13.1444394 14.0562911,14.0444394 13.3562911,14.2444394 C12.9562911,14.3444394 12.6562911,14.2444394 12.3562911,14.0444394 C11.3562911,13.0444394 11.1562911,12.7444394 10.1562911,11.6444394 C9.95629105,11.4444394 9.85629105,11.1444394 9.85629105,10.9444394 C9.95629105,9.94443938 9.95629105,8.94443938 9.95629105,7.94443938 C9.95629105,7.94443938 9.95629105,7.94443938 9.95629105,7.94443938 Z" id="Path" fill="#000000"></path>
            <path d="M19.0562911,18.0444394 C19.0562911,18.5444394 18.6562911,19.0444394 18.0562911,19.0444394 C17.5562911,19.0444394 17.0562911,18.6444394 17.0562911,18.0444394 C17.0562911,17.4444394 17.5562911,17.0444394 18.0562911,17.0444394 C18.5562911,17.0444394 19.0562911,17.4444394 19.0562911,18.0444394 Z" id="Path" fill="#000000"></path>
            <path d="M15.7562911,20.2444394 C15.7562911,20.7444394 15.2562911,21.2444394 14.7562911,21.2444394 C14.2562911,21.2444394 13.7562911,20.8444394 13.7562911,20.2444394 C13.7562911,19.6444394 14.2562911,19.2444394 14.7562911,19.2444394 C15.3562911,19.2444394 15.7562911,19.6444394 15.7562911,20.2444394 Z" id="Path" fill="#000000"></path>
            <path d="M20.9562911,9.94443938 C21.5562911,9.94443938 21.9562911,10.4444394 21.9562911,10.9444394 C21.9562911,11.5444394 21.4562911,11.9444394 20.9562911,11.9444394 C20.3562911,11.9444394 19.9562911,11.4444394 19.9562911,10.9444394 C19.9562911,10.4444394 20.4562911,9.94443938 20.9562911,9.94443938 Z" id="Path" fill="#000000"></path>
            <path d="M20.2562911,13.8444394 C20.8562911,13.8444394 21.2562911,14.3444394 21.2562911,14.8444394 C21.2562911,15.4444394 20.7562911,15.8444394 20.2562911,15.8444394 C19.6562911,15.8444394 19.2562911,15.4444394 19.2562911,14.8444394 C19.2562911,14.2444394 19.6562911,13.8444394 20.2562911,13.8444394 Z" id="Path" fill="#000000"></path>
        </g>
    </g>
</svg>