<?xml version="1.0" encoding="UTF-8"?>
<svg width="26px" height="27px" viewBox="0 0 26 27" version="1.1" xmlns="http://www.w3.org/2000/svg" xmlns:xlink="http://www.w3.org/1999/xlink">
    <!-- Generator: Sketch 56.2 (81672) - https://sketch.com -->
    <title>Group 3</title>
    <desc>Created with Sketch.</desc>
    <g id="Page-1" stroke="none" stroke-width="1" fill="none" fill-rule="evenodd">
        <g id="Group-3" transform="translate(0.000000, 0.300000)" fill="#FFFFFF" fill-rule="nonzero">
            <path d="M26,6.4 C26,11.4 26,16.4 26,21.4 C26,21.4 26,21.5 26,21.5 C25.6,24.1 23.6,25.9 20.9,25.9 C15.6,25.9 10.4,25.9 5.1,25.9 C4.7,25.9 4.3,25.9 3.9,25.8 C1.6,25.3 0,23.3 0,20.9 C0,16.3 0,11.6 0,7 C0,6.8 0,6.5 0.1,6.3 C0.4,4.1 2.4,2.2 4.6,2 C5.1,2 5.5,2 6,2 C6,1.7 6,1.5 6,1.3 C5.9,0.7 6.2,0.2 6.8,0 C6.9,0 7.1,0 7.2,0 C7.8,0.2 8.1,0.7 8,1.3 C8,1.5 8,1.7 8,2 C11.3,2 14.6,2 18,2 C18,1.8 18,1.6 18,1.3 C17.9,0.7 18.2,0.2 18.8,0 C18.9,0 19.1,0 19.2,0 C19.8,0.2 20.1,0.6 20,1.3 C20,1.5 20,1.8 20,2 C20.3,2 20.6,2 20.9,2 C23.3,2 25.2,3.5 25.8,5.7 C25.9,5.9 25.9,6.2 26,6.4 Z M24,9.9 C16.7,9.9 9.4,9.9 2.1,9.9 C2.1,10 2.1,10.1 2.1,10.2 C2.1,13.7 2.1,17.2 2.1,20.7 C2.1,22.5 3.4,23.8 5.2,23.8 C10.4,23.8 15.7,23.8 20.9,23.8 C22.7,23.8 24,22.5 24,20.7 C24,17.2 24,13.7 24,10.2 C24,10.1 24,10.1 24,9.9 Z M8,4 C8,4.1 8,4.2 8,4.3 C8,4.9 8,5.4 8,6 C8,6.6 7.6,7.1 7,7.1 C6.4,7.1 6,6.7 6,6 C6,5.5 6,5 6,4.6 C6,4.4 6,4.3 6,4.1 C3.1,3.8 1.7,5.6 2.1,8 C9.4,8 16.7,8 24,8 C24.4,5.3 22.6,3.7 20.1,4.1 C20.1,4.2 20.1,4.3 20.1,4.4 C20.1,5 20.1,5.5 20.1,6.1 C20.1,6.7 19.7,7.1 19.1,7.1 C18.5,7.1 18.1,6.7 18.1,6.1 C18.1,5.7 18.1,5.4 18.1,5 C18.1,4.7 18.1,4.4 18.1,4.1 C14.6,4 11.3,4 8,4 Z" id="Shape"></path>
            <path d="M7,18.9 C7.3,18.9 7.7,18.9 8,18.9 C8.6,18.9 9,19.4 9,19.9 C9,20.5 8.6,20.9 8,20.9 C7.3,20.9 6.7,20.9 6,20.9 C5.4,20.9 5,20.4 5,19.9 C5,19.3 5.5,18.9 6,18.9 C6.3,18.9 6.7,18.9 7,18.9 Z" id="Path"></path>
            <path d="M19,20.9 C18.7,20.9 18.4,20.9 18.1,20.9 C17.5,20.9 17.1,20.5 17.1,19.9 C17.1,19.3 17.5,18.9 18.1,18.9 C18.8,18.9 19.4,18.9 20.1,18.9 C20.7,18.9 21.1,19.4 21.1,19.9 C21.1,20.5 20.6,20.9 20.1,20.9 C19.6,20.9 19.3,20.9 19,20.9 Z" id="Path"></path>
            <path d="M19,14.9 C18.7,14.9 18.4,14.9 18,14.9 C17.4,14.9 17,14.4 17,13.9 C17,13.3 17.5,12.9 18,12.9 C18.6,12.9 19.3,12.9 19.9,12.9 C20.5,12.9 20.9,13.3 21,13.9 C21,14.5 20.6,14.9 20,14.9 C19.6,14.9 19.3,14.9 19,14.9 Z" id="Path"></path>
            <path d="M7,12.9 C7.3,12.9 7.7,12.9 8,12.9 C8.6,12.9 9,13.4 9,13.9 C9,14.5 8.6,14.9 8,14.9 C7.3,14.9 6.7,14.9 6,14.9 C5.4,14.9 5,14.4 5,13.9 C5,13.3 5.5,12.9 6,12.9 C6.3,12.9 6.7,12.9 7,12.9 Z" id="Path"></path>
            <path d="M13,12.9 C13.3,12.9 13.7,12.9 14,12.9 C14.6,12.9 15,13.4 15,13.9 C15,14.5 14.6,14.9 14,14.9 C13.3,14.9 12.6,14.9 12,14.9 C11.4,14.9 11,14.4 11,13.9 C11,13.4 11.4,12.9 12,12.9 C12.3,12.9 12.7,12.9 13,12.9 Z" id="Path"></path>
            <path d="M13,18.9 C13.3,18.9 13.7,18.9 14,18.9 C14.6,18.9 15,19.4 15,19.9 C15,20.5 14.6,20.9 14,20.9 C13.3,20.9 12.7,20.9 12,20.9 C11.4,20.9 11,20.4 11,19.9 C11,19.4 11.4,18.9 12,18.9 C12.3,18.9 12.6,18.9 13,18.9 Z" id="Path"></path>
        </g>
    </g>
</svg>