<?xml version="1.0" encoding="UTF-8"?>
<svg width="22px" height="25px" viewBox="0 0 22 25" version="1.1" xmlns="http://www.w3.org/2000/svg" xmlns:xlink="http://www.w3.org/1999/xlink">
    <!-- Generator: Sketch 56.2 (81672) - https://sketch.com -->
    <title>Groupicon-</title>
    <desc>Created with Sketch.</desc>
    <g id="Page-1" stroke="none" stroke-width="1" fill="none" fill-rule="evenodd">
        <g id="Group" fill="#3E3E3E" fill-rule="nonzero">
            <path d="M5.9,0 C10.5,0 15.1,0 19.7,0 C19.7,0 19.8,0 19.8,0 C21.2,0.2 22,1.1 22,2.4 C22,3.9 22,5.4 22,6.8 C22,10.8 22,14.7 22,18.7 C22,19.2 21.9,19.6 21.6,20 C21,20.7 20.3,21 19.3,21 C19,21 18.7,21 18.4,21 C18.4,21.1 18.4,21.2 18.4,21.3 C18.4,21.7 18.4,22 18.4,22.4 C18.4,23.4 17.6,24.1 16.5,24.1 C11.7,24.1 6.8,24.1 2,24.1 C0.8,24.1 5.68434189e-14,23.4 5.68434189e-14,22.3 C5.68434189e-14,18.3 5.68434189e-14,14.2 5.68434189e-14,10.2 C5.68434189e-14,8.4 5.68434189e-14,6.6 5.68434189e-14,4.8 C5.68434189e-14,3.8 0.8,3.1 1.9,3.1 C2.4,3.1 2.9,3.1 3.4,3.1 C3.5,3.1 3.5,3.1 3.6,3.1 C3.6,2.8 3.6,2.6 3.6,2.4 C3.6,1.6 4,0.9 4.8,0.5 C5.2,0.2 5.6,0.1 5.9,0 Z M1.7,13.5 C1.7,16.4 1.7,19.3 1.7,22.2 C1.7,22.5 1.7,22.5 2.1,22.5 C6.9,22.5 11.6,22.5 16.4,22.5 C16.8,22.5 16.8,22.5 16.8,22.2 C16.8,16.4 16.8,10.6 16.8,4.9 C16.8,4.6 16.8,4.6 16.4,4.6 C11.6,4.6 6.9,4.6 2.1,4.6 C1.7,4.6 1.7,4.6 1.7,4.9 C1.7,7.7 1.7,10.6 1.7,13.5 Z M18.4,19.5 C18.7,19.5 19,19.5 19.3,19.5 C20,19.5 20.3,19.2 20.3,18.6 C20.3,14.2 20.3,9.8 20.3,5.3 C20.3,4.3 20.3,3.3 20.3,2.3 C20.3,1.9 20.1,1.6 19.7,1.5 C19.5,1.5 19.4,1.4 19.2,1.4 C14.9,1.4 10.6,1.4 6.4,1.4 C6.3,1.4 6.2,1.4 6.2,1.4 C5.8,1.4 5.4,1.7 5.4,2 C5.4,2.3 5.4,2.6 5.4,2.9 C5.5,2.9 5.6,2.9 5.7,2.9 C9.3,2.9 12.9,2.9 16.5,2.9 C17.1,2.9 17.7,3.1 18.1,3.6 C18.4,3.9 18.5,4.3 18.5,4.7 C18.5,9.5 18.5,14.3 18.5,19.1 C18.4,19.3 18.4,19.4 18.4,19.5 Z" id="Shape"></path>
            <path d="M9.4,8.6 C10.7,8.6 11.9,8.6 13.2,8.6 C13.8,8.6 14.1,8.9 14.1,9.3 C14.1,9.7 13.7,10.1 13.2,10.1 C10.6,10.1 8.1,10.1 5.5,10.1 C5,10.1 4.6,9.8 4.6,9.3 C4.6,8.9 5,8.6 5.5,8.6 C6.8,8.6 8.1,8.6 9.4,8.6 Z" id="Path"></path>
            <path d="M9.4,11.6 C10.7,11.6 11.9,11.6 13.2,11.6 C13.8,11.6 14.1,11.9 14.1,12.3 C14.1,12.7 13.7,13.1 13.2,13.1 C10.6,13.1 8.1,13.1 5.5,13.1 C5,13.1 4.6,12.8 4.6,12.3 C4.6,11.9 5,11.6 5.5,11.6 C6.8,11.6 8.1,11.6 9.4,11.6 Z" id="Path"></path>
            <path d="M9.3,14.6 C10.6,14.6 11.9,14.6 13.1,14.6 C13.7,14.6 14,14.9 14,15.3 C14,15.7 13.6,16.1 13.1,16.1 C10.5,16.1 8,16.1 5.4,16.1 C4.9,16.1 4.5,15.8 4.5,15.3 C4.5,14.9 4.9,14.6 5.4,14.6 C6.8,14.6 8.1,14.6 9.3,14.6 Z" id="Path"></path>
        </g>
    </g>
</svg>