<?xml version="1.0" encoding="UTF-8"?>
<svg width="23px" height="23px" viewBox="0 0 23 23" version="1.1" xmlns="http://www.w3.org/2000/svg" xmlns:xlink="http://www.w3.org/1999/xlink">
    <!-- Generator: Sketch 56.2 (81672) - https://sketch.com -->
    <title>Group</title>
    <desc>Created with Sketch.</desc>
    <g id="Page-1" stroke="none" stroke-width="1" fill="none" fill-rule="evenodd">
        <g id="ICONS-COES" transform="translate(-171.000000, -462.000000)" fill-rule="nonzero">
            <g id="Group" transform="translate(171.000000, 462.000000)">
                <path d="M0.1,1.8 C0.2,1.6 0.3,1.3 0.4,1.1 C0.7,0.7 1.1,0.5 1.6,0.5 C2.4,0.5 3.2,0.5 3.9,0.5 C4.8,0.5 5.5,1.2 5.5,2.1 C5.5,2.9 5.5,3.6 5.5,4.4 C5.5,5.3 4.8,6 3.9,6 C3.1,6 2.4,6 1.6,6 C0.8,6 0.2,5.5 0,4.8 C0,4.8 0,4.7 0,4.7 C0.1,3.7 0.1,2.7 0.1,1.8 Z M2.8,4.6 C3.2,4.6 3.5,4.6 3.9,4.6 C4.1,4.6 4.2,4.5 4.2,4.3 C4.2,3.6 4.2,2.9 4.2,2.1 C4.2,1.9 4.1,1.8 3.9,1.8 C3.2,1.8 2.5,1.8 1.8,1.8 C1.6,1.8 1.5,1.9 1.5,2.1 C1.5,2.8 1.5,3.5 1.5,4.2 C1.5,4.4 1.6,4.5 1.8,4.5 C2.1,4.6 2.5,4.6 2.8,4.6 Z" id="Shape" fill="#000000"></path>
                <path d="M17.9,22.5 C17.8,22.5 17.8,22.4 17.7,22.4 C17,22.2 16.6,21.6 16.6,20.9 C16.6,20.1 16.6,19.3 16.6,18.6 C16.6,17.7 17.3,17 18.2,17 C19,17 19.7,17 20.5,17 C21.4,17 22.1,17.7 22.1,18.6 C22.1,19.4 22.1,20.1 22.1,20.9 C22.1,21.7 21.6,22.3 20.9,22.5 C20.9,22.5 20.8,22.5 20.8,22.5 C19.8,22.5 18.8,22.5 17.9,22.5 Z M19.3,21.1 C19.7,21.1 20,21.1 20.4,21.1 C20.6,21.1 20.7,21 20.7,20.8 C20.7,20.1 20.7,19.4 20.7,18.7 C20.7,18.5 20.6,18.4 20.4,18.4 C19.7,18.4 19,18.4 18.2,18.4 C18,18.4 17.9,18.5 17.9,18.7 C17.9,19.4 17.9,20.1 17.9,20.8 C17.9,21 18,21.1 18.2,21.1 C18.6,21.1 18.9,21.1 19.3,21.1 Z" id="Shape" fill="#000000"></path>
                <path d="M9.6,22.5 C9.5,22.5 9.5,22.4 9.4,22.4 C8.7,22.2 8.3,21.6 8.3,20.9 C8.3,20.1 8.3,19.3 8.3,18.6 C8.3,17.7 9,17 9.9,17 C10.7,17 11.4,17 12.2,17 C13.1,17 13.8,17.7 13.8,18.6 C13.8,19.4 13.8,20.1 13.8,20.9 C13.8,21.7 13.3,22.3 12.6,22.5 C12.6,22.5 12.5,22.5 12.5,22.5 C11.5,22.5 10.6,22.5 9.6,22.5 Z M11,21.1 C11.4,21.1 11.7,21.1 12.1,21.1 C12.3,21.1 12.4,21 12.4,20.8 C12.4,20.1 12.4,19.4 12.4,18.7 C12.4,18.5 12.3,18.4 12.1,18.4 C11.4,18.4 10.7,18.4 10,18.4 C9.8,18.4 9.7,18.5 9.7,18.7 C9.7,19.4 9.7,20.1 9.7,20.8 C9.7,21 9.8,21.1 10,21.1 C10.3,21.1 10.7,21.1 11,21.1 Z" id="Shape" fill="#000000"></path>
                <path d="M0.1,18.3 C0.1,18.2 0.2,18.1 0.2,18.1 C0.4,17.5 1,17 1.7,17 C2.5,17 3.3,17 4,17 C4.9,17 5.6,17.7 5.6,18.6 C5.6,19.4 5.6,20.1 5.6,20.9 C5.6,21.7 5.1,22.3 4.3,22.5 C4.3,22.5 4.3,22.5 4.2,22.5 C3.3,22.5 2.3,22.5 1.4,22.5 C1,22.4 0.6,22.2 0.4,21.8 C0.3,21.6 0.2,21.4 0.1,21.1 C0.1,20.2 0.1,19.2 0.1,18.3 Z M2.8,21.1 C3.2,21.1 3.5,21.1 3.9,21.1 C4.1,21.1 4.2,21 4.2,20.8 C4.2,20.1 4.2,19.4 4.2,18.7 C4.2,18.5 4.1,18.4 3.9,18.4 C3.2,18.4 2.5,18.4 1.8,18.4 C1.6,18.4 1.5,18.5 1.5,18.7 C1.5,19.4 1.5,20.1 1.5,20.8 C1.5,21.1 1.6,21.1 1.8,21.1 C2.1,21.1 2.5,21.1 2.8,21.1 Z" id="Shape" fill="#000000"></path>
                <path d="M0.1,10 C0.1,9.9 0.2,9.8 0.2,9.8 C0.4,9.2 1,8.7 1.7,8.7 C2.5,8.7 3.3,8.7 4,8.7 C4.9,8.7 5.6,9.4 5.6,10.3 C5.6,11.1 5.6,11.8 5.6,12.6 C5.6,13.5 4.9,14.2 4,14.2 C3.2,14.2 2.5,14.2 1.7,14.2 C0.9,14.2 0.3,13.7 0.1,13 C0.1,13 0.1,12.9 0.1,12.9 C0.1,11.9 0.1,11 0.1,10 Z M4.2,11.4 C4.2,11 4.2,10.7 4.2,10.3 C4.2,10.1 4.1,10 3.9,10 C3.2,10 2.5,10 1.8,10 C1.6,10 1.5,10.1 1.5,10.3 C1.5,11 1.5,11.7 1.5,12.4 C1.5,12.6 1.6,12.7 1.8,12.7 C2.5,12.7 3.2,12.7 3.9,12.7 C4.1,12.7 4.2,12.6 4.2,12.4 C4.2,12.2 4.2,11.8 4.2,11.4 Z" id="Shape" fill="#000000"></path>
                <path d="M0.1,21.1 C0.2,21.3 0.3,21.6 0.4,21.8 C0.6,22.2 1,22.3 1.4,22.5 C1,22.5 0.5,22.5 0.1,22.5 C0.1,22 0.1,21.6 0.1,21.1 Z" id="Path" fill="#FFFFFF"></path>
                <path d="M13.8,3.2 C13.8,3.6 13.8,4 13.8,4.4 C13.8,5.3 13.1,6 12.2,6 C11.4,6 10.6,6 9.9,6 C9,6 8.3,5.3 8.3,4.4 C8.3,3.6 8.3,2.8 8.3,2.1 C8.3,1.2 9,0.5 9.9,0.5 C10.7,0.5 11.4,0.5 12.2,0.5 C13.1,0.5 13.8,1.2 13.8,2.1 C13.8,2.4 13.8,2.8 13.8,3.2 Z M11.1,1.8 C10.7,1.8 10.4,1.8 10,1.8 C9.8,1.8 9.7,1.9 9.7,2.1 C9.7,2.8 9.7,3.5 9.7,4.2 C9.7,4.4 9.8,4.5 10,4.5 C10.7,4.5 11.4,4.5 12.1,4.5 C12.3,4.5 12.4,4.4 12.4,4.2 C12.4,3.5 12.4,2.8 12.4,2.1 C12.4,1.9 12.3,1.8 12.1,1.8 C11.8,1.8 11.4,1.8 11.1,1.8 Z" id="Shape" fill="#000000"></path>
                <path d="M19.3,0.5 C19.7,0.5 20.1,0.5 20.5,0.5 C21.4,0.5 22.1,1.2 22.1,2.1 C22.1,2.9 22.1,3.7 22.1,4.4 C22.1,5.3 21.4,6 20.5,6 C19.7,6 18.9,6 18.2,6 C17.3,6 16.6,5.3 16.6,4.4 C16.6,3.6 16.6,2.9 16.6,2.1 C16.6,1.2 17.3,0.5 18.2,0.5 C18.5,0.5 18.9,0.5 19.3,0.5 Z M17.9,3.2 C17.9,3.6 17.9,3.9 17.9,4.3 C17.9,4.5 18,4.6 18.2,4.6 C18.9,4.6 19.6,4.6 20.3,4.6 C20.5,4.6 20.6,4.5 20.6,4.3 C20.6,3.6 20.6,2.9 20.6,2.2 C20.6,2 20.5,1.9 20.3,1.9 C19.6,1.9 18.9,1.9 18.2,1.9 C18,1.9 17.9,2 17.9,2.2 C17.9,2.5 17.9,2.9 17.9,3.2 Z" id="Shape" fill="#000000"></path>
                <path d="M19.3,14.2 C18.9,14.2 18.5,14.2 18.1,14.2 C17.2,14.2 16.5,13.5 16.5,12.6 C16.5,11.8 16.5,11.1 16.5,10.3 C16.5,9.4 17.2,8.7 18.1,8.7 C18.9,8.7 19.6,8.7 20.4,8.7 C21.3,8.7 22,9.4 22,10.3 C22,11.1 22,11.8 22,12.6 C22,13.5 21.3,14.2 20.4,14.2 C20.1,14.2 19.7,14.2 19.3,14.2 Z M19.3,12.8 C19.7,12.8 20,12.8 20.4,12.8 C20.6,12.8 20.7,12.7 20.7,12.5 C20.7,11.8 20.7,11.1 20.7,10.4 C20.7,10.2 20.6,10.1 20.4,10.1 C19.7,10.1 19,10.1 18.3,10.1 C18.1,10.1 18,10.2 18,10.4 C18,11.1 18,11.8 18,12.5 C18,12.8 18.1,12.8 18.3,12.8 C18.6,12.8 19,12.8 19.3,12.8 Z" id="Shape" fill="#000000"></path>
                <path d="M11.1,8.7 C11.5,8.7 11.9,8.7 12.3,8.7 C13.2,8.7 13.9,9.4 13.9,10.3 C13.9,11.1 13.9,11.9 13.9,12.6 C13.9,13.5 13.2,14.2 12.3,14.2 C11.5,14.2 10.8,14.2 10,14.2 C9.1,14.2 8.4,13.5 8.4,12.6 C8.4,11.8 8.4,11.1 8.4,10.3 C8.4,9.4 9.1,8.7 10,8.7 C10.3,8.7 10.7,8.7 11.1,8.7 Z M11.1,10.1 C10.7,10.1 10.4,10.1 10,10.1 C9.8,10.1 9.7,10.2 9.7,10.4 C9.7,11.1 9.7,11.8 9.7,12.6 C9.7,12.8 9.8,12.9 10,12.9 C10.7,12.9 11.4,12.9 12.2,12.9 C12.4,12.9 12.5,12.8 12.5,12.6 C12.5,11.9 12.5,11.2 12.5,10.5 C12.5,10.3 12.4,10.2 12.2,10.2 C11.8,10.1 11.4,10.1 11.1,10.1 Z" id="Shape" fill="#000000"></path>
            </g>
        </g>
    </g>
</svg>