<?xml version="1.0" encoding="UTF-8"?>
<svg width="22px" height="23px" viewBox="0 0 22 23" version="1.1" xmlns="http://www.w3.org/2000/svg" xmlns:xlink="http://www.w3.org/1999/xlink">
    <!-- Generator: Sketch 56.2 (81672) - https://sketch.com -->
    <title>Group 2</title>
    <desc>Created with Sketch.</desc>
    <g id="Page-1" stroke="none" stroke-width="1" fill="none" fill-rule="evenodd">
        <g id="Group-2" fill="#FFFFFF" fill-rule="nonzero">
            <g id="Group">
                <path d="M0,12.5 C0,12.1 0,11.6 0,11.2 C0,11.1 0,11.1 0,11 C0.1,9.5 0.5,8 1.3,6.6 C3,3.5 5.6,1.6 9.1,1 C9.5,0.9 9.9,0.9 10.4,0.8 C10.8,0.8 11.3,0.8 11.7,0.8 C11.8,0.8 11.8,0.8 11.9,0.8 C13.4,0.9 14.9,1.3 16.2,2.1 C19.8,4.1 21.8,7.2 22,11.4 C22.1,13.2 21.8,14.9 21,16.5 C19,20.4 15.9,22.5 11.5,22.8 C9.7,22.9 8,22.6 6.4,21.8 C3,20.1 1,17.5 0.2,13.8 C0.1,13.3 0,12.9 0,12.5 Z M20.6,11.8 C20.6,6.5 16.3,2.2 11,2.2 C5.7,2.2 1.4,6.5 1.4,11.8 C1.4,17.1 5.7,21.4 11,21.4 C16.3,21.5 20.6,17.1 20.6,11.8 Z" id="Shape"></path>
                <path d="M10.3,14.3 C10.3,14.2 10.3,14.1 10.3,14 C10.3,11.7 10.3,9.5 10.3,7.2 C10.3,7.1 10.3,7 10.3,7 C10.3,6.6 10.6,6.4 11,6.4 C11.4,6.4 11.7,6.7 11.7,7 C11.7,7.1 11.7,7.2 11.7,7.2 C11.7,9.5 11.7,11.7 11.7,14 C11.7,14.1 11.7,14.2 11.7,14.3 C11.8,14.2 11.8,14.2 11.9,14.1 C12.8,13.2 13.6,12.4 14.5,11.6 C14.6,11.5 14.8,11.4 15,11.3 C15.3,11.2 15.6,11.4 15.7,11.6 C15.8,11.9 15.8,12.2 15.6,12.4 C15.4,12.7 15.1,12.9 14.8,13.2 C13.8,14.2 12.8,15.2 11.8,16.2 C11.4,16.6 10.8,16.6 10.4,16.2 C9.2,15 7.9,13.7 6.7,12.5 C6.5,12.3 6.4,12.1 6.5,11.8 C6.6,11.3 7.2,11.1 7.6,11.4 C7.7,11.5 7.7,11.5 7.8,11.6 C8.6,12.4 9.5,13.3 10.3,14.1 C10.1,14.1 10.2,14.2 10.3,14.3 Z" id="Path"></path>
            </g>
        </g>
    </g>
</svg>