<?xml version="1.0" encoding="UTF-8"?>
<svg width="24px" height="22px" viewBox="0 0 24 22" version="1.1" xmlns="http://www.w3.org/2000/svg" xmlns:xlink="http://www.w3.org/1999/xlink">
    <!-- Generator: Sketch 56.2 (81672) - https://sketch.com -->
    <title>icon-bars</title>
    <desc>Created with Sketch.</desc>
    <g id="Page-1" stroke="none" stroke-width="1" fill="none" fill-rule="evenodd">
        <g id="icon-bars" fill="#FFFFFF" fill-rule="nonzero">
            <path d="M1.1,5.7 L1.1,5.7 C2.2,4.9 2.7,4.5 3.3,4 C3.7,3.7 4.2,3.3 4.9,2.8 C5,2.7 5.1,2.7 5.3,2.8 C6.4,3.3 7.5,3.8 8.5,4.2 C9.1,4.5 9.8,4.8 10.4,5 C10.7,5.1 11,5.1 11.3,4.9 C11.9,4.4 12.4,4 13,3.5 C13.9,2.8 14.8,2 15.7,1.3 C15.7,1.3 16.1,1 16.1,0.7 C16.1,0.4 15.8,0.2 15.7,0.1 C15.5,-8.52651283e-14 15.2,-0.1 14.9,0.2 C14.5,0.6 14.1,0.9 13.6,1.3 C12.7,2 11.8,2.8 10.9,3.6 C10.8,3.7 10.8,3.7 10.6,3.6 C9.8,3.2 9,2.9 8.2,2.5 C7.3,2.1 6.4,1.7 5.5,1.3 C5.2,1.1 4.9,1.2 4.6,1.4 C3.8,2 3.3,2.4 2.8,2.8 C2.1,3.3 1.6,3.7 0.5,4.5 L0.5,4.5 C0.4,4.6 0.3,4.6 0.3,4.7 C0.1,5 0.1,5.3 0.3,5.5 C0.4,5.7 0.6,5.8 0.8,5.8 C0.9,5.8 1,5.8 1.1,5.7 C0.9,5.8 1,5.7 1.1,5.7 Z" id="Path"></path>
            <path d="M23.3,20.6 L23.3,20.6 C23,20.6 22.9,20.6 22.7,20.6 C22.6,20.6 22.5,20.6 22.4,20.6 L22.1,20.6 L22.1,17.8 C22.1,14.6 22.1,6.2 22.1,2.9 C22.1,2.3 21.9,2.1 21.3,2.1 C20.4,2.1 19.6,2.1 18.7,2.1 L17.8,2.1 C17.1,2.1 16.9,2.3 16.9,3.1 L16.9,20.7 L14.9,20.7 L14.9,18.5 C14.9,16.6 14.9,9.5 14.9,7.5 C14.9,6.8 14.7,6.6 14.1,6.6 C13.1,6.6 12.1,6.6 11,6.6 L10.6,6.6 C10,6.6 9.7,6.7 9.7,7.5 L9.7,20.6 L7.7,20.6 L7.7,18.2 C7.7,16.1 7.7,8.8 7.7,6.7 C7.7,6.1 7.5,5.8 6.9,5.8 C5.7,5.8 4.5,5.8 3.3,5.8 C2.7,5.8 2.5,6 2.5,6.7 L2.5,20.5 C2.4,20.5 2.3,20.5 2.2,20.5 C2,20.5 1.8,20.5 1.4,20.5 C1.2,20.5 1,20.6 0.8,20.7 C0.7,20.8 0.6,21 0.6,21.2 C0.6,21.4 0.7,21.6 0.9,21.7 C1,21.8 1.2,21.8 1.4,21.8 C1.4,21.8 1.4,21.8 1.4,21.8 C10.1,21.8 14.5,21.8 19.7,21.8 L23.1,21.8 L23.2,21.8 C23.3,21.8 23.3,21.8 23.4,21.8 C23.8,21.8 24,21.5 24,21.1 C23.9,20.9 23.7,20.6 23.3,20.6 Z M20.8,3.5 L20.8,20.6 L18.2,20.6 L18.2,3.5 L20.8,3.5 Z M13.6,8 L13.6,20.7 L11,20.7 L11,8 L13.6,8 Z M6.3,7.3 L6.3,20.6 L3.7,20.6 L3.7,7.3 L6.3,7.3 Z" id="Shape"></path>
        </g>
    </g>
</svg>