<?xml version="1.0" encoding="UTF-8" standalone="no"?>
<!-- Created with Inkscape (http://www.inkscape.org/) -->

<svg
   xmlns:dc="http://purl.org/dc/elements/1.1/"
   xmlns:cc="http://creativecommons.org/ns#"
   xmlns:rdf="http://www.w3.org/1999/02/22-rdf-syntax-ns#"
   xmlns:svg="http://www.w3.org/2000/svg"
   xmlns="http://www.w3.org/2000/svg"
   xmlns:sodipodi="http://sodipodi.sourceforge.net/DTD/sodipodi-0.dtd"
   xmlns:inkscape="http://www.inkscape.org/namespaces/inkscape"
   width="7.9586668mm"
   height="7.3284073mm"
   viewBox="0 0 28.2 25.966797"
   id="svg5382"
   version="1.1"
   inkscape:version="0.91 r13725"
   sodipodi:docname="icon-file-excel.svg">
  <defs
     id="defs5384" />
  <sodipodi:namedview
     id="base"
     pagecolor="#ffffff"
     bordercolor="#666666"
     borderopacity="1.0"
     inkscape:pageopacity="0.0"
     inkscape:pageshadow="2"
     inkscape:zoom="0.88457031"
     inkscape:cx="-25.790705"
     inkscape:cy="61.568079"
     inkscape:document-units="px"
     inkscape:current-layer="layer1"
     showgrid="false"
     fit-margin-top="0"
     fit-margin-left="0"
     fit-margin-right="0"
     fit-margin-bottom="0"
     inkscape:window-width="1333"
     inkscape:window-height="744"
     inkscape:window-x="33"
     inkscape:window-y="24"
     inkscape:window-maximized="1" />
  <metadata
     id="metadata5387">
    <rdf:RDF>
      <cc:Work
         rdf:about="">
        <dc:format>image/svg+xml</dc:format>
        <dc:type
           rdf:resource="http://purl.org/dc/dcmitype/StillImage" />
        <dc:title></dc:title>
      </cc:Work>
    </rdf:RDF>
  </metadata>
  <g
     inkscape:label="Layer 1"
     inkscape:groupmode="layer"
     id="layer1"
     transform="translate(-233.47783,-567.96349)">
    <g
       transform="translate(-55.322168,411.6788)"
       id="g599"
       style="fill:#474747;fill-opacity:1">
      <path
         inkscape:connector-curvature="0"
         d="m 317,160.3 c 0,5.9 0,11.9 0,17.8 -0.2,0.5 -0.6,0.7 -1.1,0.7 -3.6,0 -7.3,0 -10.9,0 -0.1,0 -0.2,0 -0.3,0 0,0.9 0,1.7 0,2.5 0,0.7 -0.5,1.1 -1.1,0.9 -4.6,-0.8 -9.2,-1.7 -13.8,-2.5 -0.5,-0.1 -0.8,-0.3 -1,-0.7 0,-6.5 0,-13 0,-19.5 0.2,-0.4 0.5,-0.6 0.9,-0.7 1.7,-0.3 3.4,-0.6 5.1,-0.9 3,-0.5 5.9,-1.1 8.9,-1.6 0.6,-0.1 1.1,0.3 1.1,0.9 0,0.5 0,1 0,1.5 0,0.3 0,0.7 0,1 0.1,0 0.2,0 0.4,0 3.6,0 7.3,0 10.9,0 0.3,0 0.7,0.1 0.9,0.6 z m -1.8,1.1 c -3.5,0 -7.1,0 -10.6,0 0,0.6 0,1.1 0,1.7 0.1,0 0.2,0 0.3,0 0.8,0 1.6,0 2.4,0 0.5,0 0.9,0.4 0.9,0.9 0,0.5 -0.4,0.9 -0.9,0.9 -0.2,0 -0.4,0 -0.5,0 -0.7,0 -1.4,0 -2.1,0 0,0.6 0,1.2 0,1.7 0.9,0 1.7,0 2.6,0 0.6,0 1,0.4 1,0.9 0,0.5 -0.4,0.9 -1,0.9 -0.8,0 -1.5,0 -2.3,0 -0.1,0 -0.2,0 -0.3,0 0,0.6 0,1.2 0,1.7 0.9,0 1.7,0 2.5,0 0.6,0 1,0.4 1,0.9 0,0.5 -0.4,0.9 -1,0.9 -0.8,0 -1.5,0 -2.3,0 -0.1,0 -0.2,0 -0.3,0 0,0.6 0,1.2 0,1.7 0.1,0 0.2,0 0.3,0 0.7,0 1.5,0 2.2,0 0.6,0 1,0.3 1,0.9 0,0.5 -0.4,0.9 -1,0.9 -0.7,0 -1.3,0 -2,0 -0.2,0 -0.3,0 -0.5,0 0,0.6 0,1.2 0,1.7 3.5,0 7.1,0 10.6,0 0,-5.3 0,-10.5 0,-15.7 z M 298,169 c 0.1,-0.1 0.1,-0.2 0.2,-0.2 0.9,-1.1 1.7,-2.2 2.6,-3.3 0.2,-0.2 0.3,-0.5 0.2,-0.8 -0.1,-0.3 -0.3,-0.6 -0.7,-0.6 -0.4,-0.1 -0.7,0.1 -0.9,0.4 -0.8,1 -1.6,2 -2.4,3 -0.1,0.1 -0.1,0.2 -0.2,0.3 -0.7,-0.8 -1.4,-1.6 -2.1,-2.4 -0.4,-0.4 -0.9,-0.5 -1.3,-0.2 -0.4,0.3 -0.4,0.9 0,1.3 0.5,0.6 1,1.1 1.5,1.7 0.3,0.3 0.6,0.6 0.9,1 -0.1,0.1 -0.1,0.1 -0.2,0.2 -0.7,0.9 -1.5,1.9 -2.2,2.8 -0.2,0.2 -0.3,0.5 -0.2,0.8 0.1,0.3 0.3,0.6 0.7,0.7 0.4,0.1 0.7,0 0.9,-0.3 0.4,-0.4 0.7,-0.9 1.1,-1.3 0.4,-0.5 0.8,-1 1.2,-1.5 0.1,0.1 0.2,0.2 0.2,0.2 0.8,0.9 1.5,1.7 2.3,2.6 0.4,0.4 0.9,0.5 1.3,0.1 0.4,-0.3 0.4,-0.8 0,-1.3 -0.4,-0.4 -0.7,-0.8 -1.1,-1.2 -0.7,-0.8 -1.2,-1.4 -1.8,-2 z"
         id="path601"
         style="fill:#474747;fill-opacity:1" />
      <path
         inkscape:connector-curvature="0"
         d="m 311.7,163.1 c 0.3,0 0.6,0 0.9,0 0.5,0 0.9,0.4 0.9,0.9 0,0.5 -0.4,0.9 -0.9,0.9 -0.6,0 -1.2,0 -1.7,0 -0.5,0 -0.9,-0.4 -0.9,-0.9 0,-0.5 0.4,-0.8 0.9,-0.9 0.2,0 0.5,0 0.8,0 z"
         id="path603"
         style="fill:#474747;fill-opacity:1" />
      <path
         inkscape:connector-curvature="0"
         d="m 311.7,166.6 c 0.3,0 0.6,0 0.9,0 0.5,0 0.9,0.4 0.9,0.9 0,0.5 -0.4,0.9 -0.9,0.9 -0.6,0 -1.2,0 -1.7,0 -0.5,0 -0.9,-0.4 -0.9,-0.9 0,-0.5 0.4,-0.8 0.9,-0.9 0.2,0 0.5,0 0.8,0 z"
         id="path605"
         style="fill:#474747;fill-opacity:1" />
      <path
         inkscape:connector-curvature="0"
         d="m 311.7,171.8 c -0.3,0 -0.6,0 -0.9,0 -0.5,0 -0.9,-0.4 -0.9,-0.9 0,-0.5 0.4,-0.8 0.9,-0.9 0.6,0 1.2,0 1.7,0 0.5,0 0.9,0.4 0.9,0.9 0,0.5 -0.4,0.9 -0.9,0.9 -0.2,0 -0.5,0 -0.8,0 z"
         id="path607"
         style="fill:#474747;fill-opacity:1" />
      <path
         inkscape:connector-curvature="0"
         d="m 311.7,175.3 c -0.3,0 -0.6,0 -0.9,0 -0.5,0 -0.9,-0.4 -0.9,-0.9 0,-0.5 0.4,-0.9 0.9,-0.9 0.6,0 1.2,0 1.8,0 0.5,0 0.9,0.4 0.9,0.9 0,0.5 -0.4,0.8 -0.9,0.9 -0.3,0 -0.6,0 -0.9,0 z"
         id="path609"
         style="fill:#474747;fill-opacity:1" />
    </g>
  </g>
</svg>
