<?xml version="1.0" encoding="UTF-8"?>
<svg width="25px" height="23px" viewBox="0 0 25 23" version="1.1" xmlns="http://www.w3.org/2000/svg" xmlns:xlink="http://www.w3.org/1999/xlink">
    <!-- Generator: Sketch 56.2 (81672) - https://sketch.com -->
    <title>Group</title>
    <desc>Created with Sketch.</desc>
    <g id="Page-1" stroke="none" stroke-width="1" fill="none" fill-rule="evenodd">
        <g id="Group" transform="translate(0.400000, 0.200000)" fill="#3E3E3E" fill-rule="nonzero">
            <path d="M0,10.9 C0,12.7 1.5,14.2 3.4,14.3 C5.3,14.3 6.9,12.9 6.9,11.1 C6.9,9.2 5.4,7.8 3.5,7.7 C1.6,7.7 0.1,9.2 0,10.9 Z M5,11 C5,11.8 4.3,12.4 3.5,12.4 C2.7,12.4 2,11.8 2,11 C2,10.2 2.7,9.6 3.5,9.6 C4.3,9.6 5,10.2 5,11 Z" id="Shape"></path>
            <path d="M3.5,6.5 C5.4,6.5 7,5 7,3.3 C7,1.5 5.5,0 3.5,0 C1.6,0 0.1,1.5 0,3.3 C0,5.1 1.6,6.5 3.5,6.5 Z M3.5,1.9 C4.3,1.9 5,2.5 5,3.3 C5,4.1 4.3,4.7 3.5,4.7 C2.7,4.7 2,4.1 2,3.3 C2,2.5 2.6,1.9 3.5,1.9 Z" id="Shape"></path>
            <path d="M3.5,15.5 C1.6,15.5 0.1,17 0.1,18.8 C0.1,20.6 1.6,22.1 3.5,22.1 C5.4,22.1 7,20.6 7,18.9 C6.9,16.9 5.4,15.5 3.5,15.5 Z M3.5,20.2 C2.7,20.2 2,19.6 2,18.8 C2,18 2.7,17.4 3.5,17.4 C4.3,17.4 5,18 5,18.8 C5,19.5 4.3,20.2 3.5,20.2 Z" id="Shape"></path>
            <path d="M10,4.2 L23.1,4.2 C23.6,4.2 24,3.8 24,3.3 C24,2.8 23.6,2.4 23.1,2.4 L10,2.4 C9.5,2.4 9.1,2.8 9.1,3.3 C9.1,3.8 9.4,4.2 10,4.2 Z" id="Path"></path>
            <path d="M23.1,10.1 L10,10.1 C9.5,10.1 9.1,10.5 9.1,11 C9.1,11.5 9.5,11.9 10,11.9 L23.1,11.9 C23.6,11.9 24,11.5 24,11 C24,10.5 23.6,10.1 23.1,10.1 Z" id="Path"></path>
            <path d="M23.1,17.8 L10,17.8 C9.5,17.8 9.1,18.2 9.1,18.7 C9.1,19.2 9.5,19.6 10,19.6 L23.1,19.6 C23.6,19.6 24,19.2 24,18.7 C24,18.2 23.6,17.8 23.1,17.8 Z" id="Path"></path>
        </g>
    </g>
</svg>