<?xml version="1.0" encoding="UTF-8"?>
<svg width="23px" height="26px" viewBox="0 0 23 26" version="1.1" xmlns="http://www.w3.org/2000/svg" xmlns:xlink="http://www.w3.org/1999/xlink">
    <!-- Generator: Sketch 56.2 (81672) - https://sketch.com -->
    <title>Groupicon-</title>
    <desc>Created with Sketch.</desc>
    <g id="Page-1" stroke="none" stroke-width="1" fill="none" fill-rule="evenodd">
        <g id="Group" fill="#3E3E3E" fill-rule="nonzero">
            <path d="M13.4,9.9 C13.7,9.9 14,9.9 14.3,9.9 C15.7,9.9 17.1,9.9 18.5,9.9 C18.9,9.9 19.2,10 19.4,10.3 C19.6,10.7 19.4,11 19.2,11.3 C15.7,15.9 12.2,20.4 8.8,25 C8.6,25.3 8.4,25.5 8,25.5 C7.5,25.5 7.2,25 7.3,24.4 C7.6,23.2 7.9,22.1 8.2,20.9 C8.7,18.9 9.3,16.9 9.8,14.8 C9.8,14.7 9.8,14.7 9.9,14.6 C9.7,14.6 9.6,14.6 9.5,14.6 C8,14.6 6.5,14.6 4.9,14.6 C4.5,14.6 4.2,14.5 4,14.2 C3.8,13.8 4,13.5 4.2,13.3 C7.2,9.2 10.2,5.1 13.3,1.1 C13.6,0.7 13.9,0.6 14.3,0.7 C14.7,0.9 14.8,1.2 14.7,1.7 C14.4,3.8 14,6 13.7,8.1 C13.6,8.6 13.5,9.2 13.4,9.9 Z M17.1,11.4 C16.9,11.4 16.8,11.4 16.6,11.4 C15.3,11.4 13.9,11.4 12.6,11.4 C12,11.4 11.6,11 11.7,10.4 C11.9,9.2 12.1,7.9 12.3,6.7 C12.4,5.9 12.5,5.1 12.7,4.4 C12.7,4.4 12.7,4.4 12.6,4.4 C10.5,7.2 8.4,10.1 6.3,13 C6.5,13 6.6,13 6.7,13 C8,13 9.4,13 10.7,13 C11.5,13 11.8,13.4 11.6,14.2 C11.2,15.6 10.9,16.9 10.5,18.3 C10.3,19.2 10,20 9.8,20.9 C9.8,20.9 9.8,20.9 9.9,20.9 C12.3,17.8 14.7,14.6 17.1,11.4 Z" id="Shape"></path>
            <path d="M22.7,13.2 C22.6,16.8 21.3,20.1 18.7,22.8 C18.5,23 18.2,23.2 17.9,23.1 C17.7,23 17.4,22.8 17.3,22.6 C17.1,22.3 17.3,22 17.5,21.8 C18.1,21.1 18.7,20.4 19.2,19.7 C22.2,14.9 21.6,8.7 17.8,4.5 C17.7,4.4 17.6,4.3 17.5,4.2 C17.2,3.8 17.2,3.4 17.5,3.1 C17.8,2.8 18.3,2.8 18.6,3.2 C19.2,3.9 19.8,4.6 20.3,5.4 C22,7.6 22.7,10.2 22.7,13.2 Z" id="Path"></path>
            <path d="M0.7,12.8 C0.8,9.2 2.1,5.9 4.7,3.2 C5.1,2.8 5.5,2.7 5.9,3.1 C6.2,3.4 6.2,3.9 5.8,4.3 C4,6.2 2.9,8.4 2.5,11 C1.9,15 2.9,18.5 5.6,21.6 C5.7,21.7 5.8,21.8 5.9,21.9 C6.2,22.3 6.2,22.7 5.9,23 C5.6,23.3 5.1,23.3 4.8,22.9 C4.2,22.2 3.6,21.5 3.1,20.7 C1.5,18.4 0.8,15.8 0.7,12.8 Z" id="Path"></path>
        </g>
    </g>
</svg>