<?xml version="1.0" encoding="UTF-8"?>
<svg width="27px" height="23px" viewBox="0 0 27 23" version="1.1" xmlns="http://www.w3.org/2000/svg" xmlns:xlink="http://www.w3.org/1999/xlink">
    <!-- Generator: Sketch 56.2 (81672) - https://sketch.com -->
    <title>Group</title>
    <desc>Created with Sketch.</desc>
    <g id="Page-1" stroke="none" stroke-width="1" fill="none" fill-rule="evenodd">
        <g id="Group" transform="translate(0.300000, 0.900000)" fill="#FFFFFF" fill-rule="nonzero">
            <path d="M18.8,17.2 C18.7,16.7 18.4,16.4 17.9,16.4 C17.5,16.4 17.1,16.7 17,17.2 C17,17.5 17,17.7 17,18 C17,18.4 17.4,18.7 17.8,18.7 C18.2,18.7 18.6,18.5 18.7,18.1 C18.8,17.9 18.8,17.7 18.8,17.5 C18.8,17.5 18.8,17.5 18.8,17.5 C18.8,17.4 18.8,17.3 18.8,17.2 Z" id="Path"></path>
            <path d="M16.3,17.2 C16.3,16.7 15.9,16.3 15.4,16.3 C14.9,16.3 14.6,16.7 14.5,17.2 C14.5,17.4 14.5,17.6 14.5,17.8 C14.5,18.2 14.9,18.6 15.3,18.6 C15.7,18.6 16.1,18.3 16.2,17.9 C16.2,17.8 16.2,17.6 16.2,17.5 C16.2,17.5 16.2,17.5 16.2,17.5 C16.3,17.4 16.3,17.3 16.3,17.2 Z" id="Path"></path>
            <path d="M26,5.2 C26,4 25.3,3.2 24.1,3.2 C20.9,3.2 17.6,3.2 14.4,3.2 C14.1,3.2 14,3.1 13.9,2.9 C13.6,2.3 13.3,1.7 13,1.1 C12.7,0.4 12.2,0.1 11.5,0 L5,0 C4.3,0.1 3.7,0.6 3.5,1.4 C3.4,1.6 3.4,1.9 3.4,2.1 C3.4,2.6 3.4,3.1 3.4,3.6 C3.2,3.6 3.1,3.6 3,3.6 C2.6,3.6 2.1,3.6 1.7,3.6 C0.9,3.6 0.3,4.1 0,4.9 C0,10.2 0,15.5 0,20.8 C0.4,21.8 1.2,22.1 2.2,22.1 C8.3,22.1 14.4,22.1 20.5,22.1 C21.7,22.1 22.5,21.3 22.5,20.1 C22.5,19.6 22.5,19.1 22.5,18.5 C23,18.5 23.5,18.5 24.1,18.5 C25.4,18.5 26.1,17.8 26.1,16.5 C26,15.9 26,7.7 26,5.2 Z M20.7,20.2 C14.4,20.2 8,20.2 1.7,20.2 C1.7,15.3 1.7,10.4 1.7,5.4 C1.8,5.4 1.9,5.4 1.9,5.4 C3.8,5.4 5.7,5.4 7.6,5.4 C7.8,5.4 7.9,5.5 8,5.6 C8.3,6.2 8.6,6.8 8.8,7.4 C9.2,8.2 9.8,8.6 10.7,8.6 C13.9,8.6 17.1,8.6 20.3,8.6 C20.4,8.6 20.5,8.6 20.7,8.6 C20.7,12.5 20.7,16.4 20.7,20.2 Z M24.3,16.6 C23.7,16.6 23.1,16.6 22.5,16.6 C22.5,16.5 22.5,16.4 22.5,16.2 C22.5,13.7 22.5,11.3 22.5,8.8 C22.5,7.6 21.6,6.8 20.5,6.8 C17.3,6.8 14.1,6.8 10.9,6.8 C10.6,6.8 10.5,6.7 10.4,6.5 C10.1,5.9 9.8,5.3 9.5,4.7 C9.2,4 8.6,3.6 7.8,3.6 C6.9,3.6 6.1,3.6 5.2,3.6 C5.2,3 5.2,2.4 5.2,1.8 C5.3,1.8 5.4,1.8 5.4,1.8 C7.3,1.8 9.2,1.8 11.1,1.8 C11.3,1.8 11.4,1.9 11.5,2 C11.8,2.6 12.1,3.2 12.4,3.8 C12.8,4.6 13.4,5 14.2,5 C17.4,5 20.6,5 23.9,5 C24,5 24.1,5 24.3,5 C24.3,8.9 24.3,12.8 24.3,16.6 Z" id="Shape"></path>
        </g>
    </g>
</svg>