<?xml version="1.0" encoding="UTF-8"?>
<svg width="27px" height="25px" viewBox="0 0 27 25" version="1.1" xmlns="http://www.w3.org/2000/svg" xmlns:xlink="http://www.w3.org/1999/xlink">
    <!-- Generator: Sketch 56.2 (81672) - https://sketch.com -->
    <title>Shape</title>
    <desc>Created with Sketch.</desc>
    <g id="Page-1" stroke="none" stroke-width="1" fill="none" fill-rule="evenodd">
        <path d="M0.5,0.6 C9.2,0.6 17.8,0.6 26.5,0.6 C26.5,2 26.5,3.3 26.5,4.7 C26,4.7 25.5,4.7 25,4.7 C25,10.3 25,19 25,24.6 C21.4,24.6 5.6,24.6 2.1,24.6 C2.1,19 2.1,10.3 2.1,4.7 C1.6,4.7 1.1,4.7 0.6,4.7 C0.5,3.3 0.5,2 0.5,0.6 Z M11.2,20.5 C11.2,17.1 11.2,10.7 11.2,7.4 C12.7,7.4 14.2,7.4 15.8,7.4 C15.8,10.8 15.8,17.1 15.8,20.5 C16.3,20.5 16.8,20.5 17.4,20.5 C17.4,16.7 17.4,9.9 17.4,6 C18.9,6 20.4,6 22,6 C22,9.8 22,16.7 22,20.5 C22.5,20.5 23,20.5 23.5,20.5 C23.5,16.2 23.5,8.9 23.5,4.7 C16.9,4.7 10.2,4.7 3.6,4.7 C3.6,9 3.6,16.3 3.6,20.5 C4.1,20.5 4.6,20.5 5.1,20.5 C5.1,17.6 5.1,11.7 5.1,8.8 C6.6,8.8 8.1,8.8 9.7,8.8 C9.7,11.7 9.7,17.6 9.7,20.5 C10.2,20.5 10.7,20.5 11.2,20.5 Z M2,3.3 C9.7,3.3 17.3,3.3 24.9,3.3 C24.9,2.8 24.9,2.4 24.9,2 C17.3,2 9.6,2 2,2 C2,2.5 2,2.9 2,3.3 Z M3.6,23.3 C10.2,23.3 16.9,23.3 23.5,23.3 C23.5,22.8 23.5,22.4 23.5,22 C16.9,22 10.2,22 3.6,22 C3.6,22.4 3.6,22.8 3.6,23.3 Z M20.4,20.5 C20.4,18 20.4,12.6 20.4,10.1 C19.9,10.1 19.4,10.1 18.9,10.1 C18.9,12.6 18.9,18 18.9,20.5 C19.4,20.5 19.9,20.5 20.4,20.5 Z M12.8,11.5 C12.8,13.5 12.8,18.5 12.8,20.5 C13.3,20.5 13.8,20.5 14.3,20.5 C14.3,18.5 14.3,13.5 14.3,11.5 C13.7,11.5 13.3,11.5 12.8,11.5 Z M8.1,20.5 C8.1,18.9 8.1,14.4 8.1,12.8 C7.6,12.8 7.1,12.8 6.6,12.8 C6.6,14.4 6.6,18.9 6.6,20.5 C7.1,20.5 7.6,20.5 8.1,20.5 Z M20.4,8.8 C20.4,8.3 20.4,7.9 20.4,7.5 C19.9,7.5 19.4,7.5 18.9,7.5 C18.9,8 18.9,8.4 18.9,8.8 C19.4,8.8 19.9,8.8 20.4,8.8 Z M14.3,8.8 C13.8,8.8 13.3,8.8 12.8,8.8 C12.8,9.3 12.8,9.7 12.8,10.1 C13.3,10.1 13.8,10.1 14.3,10.1 C14.3,9.7 14.3,9.3 14.3,8.8 Z M8.1,11.5 C8.1,11 8.1,10.6 8.1,10.2 C7.6,10.2 7.1,10.2 6.6,10.2 C6.6,10.7 6.6,11.1 6.6,11.5 C7.1,11.5 7.6,11.5 8.1,11.5 Z" id="Shape" fill="#000000" fill-rule="nonzero"></path>
    </g>
</svg>