<?xml version="1.0" encoding="UTF-8"?>
<svg width="23px" height="27px" viewBox="0 0 23 27" version="1.1" xmlns="http://www.w3.org/2000/svg" xmlns:xlink="http://www.w3.org/1999/xlink">
    <!-- Generator: Sketch 56.2 (81672) - https://sketch.com -->
    <title>Groupicon-</title>
    <desc>Created with Sketch.</desc>
    <g id="Page-1" stroke="none" stroke-width="1" fill="none" fill-rule="evenodd">
        <g id="Group" fill="#3E3E3E" fill-rule="nonzero">
            <path d="M22.4,6.1 C22.4,4.9 21.5,3.8 20.3,3.5 C20,3.4 19.7,3.4 19.3,3.4 C18.8,3.4 18.2,3.4 17.7,3.4 C17.5,3.4 17.4,3.4 17.2,3.4 C17.2,3.4 17.2,3.3 17.2,3.3 C17.2,3.1 17.2,2.9 17.2,2.7 C17.2,2.3 17,2.1 16.6,2 C16.4,2 16.3,2 16.1,2 C15.6,2 15,2 14.5,2 C14.4,2 14.4,2 14.3,1.9 C13.9,1.1 13.3,0.5 12.3,0.3 C12.2,0.3 12,0.2 11.9,0.2 C11.8,0.2 11.8,0.2 11.7,0.2 L11.7,0.2 L10.7,0.2 L10.7,0.2 C10.7,0.2 10.7,0.2 10.7,0.2 C10.7,0.2 10.7,0.2 10.7,0.2 C9.6,0.4 8.8,1 8.4,1.9 C8.4,2 8.3,2 8.3,2 C7.7,2 7.1,2 6.5,2 C5.9,2 5.7,2.3 5.7,2.8 C5.7,3 5.7,3.2 5.7,3.4 L5.7,3.5 C5.7,3.5 5.6,3.5 5.6,3.5 C5.3,3.5 5,3.5 4.8,3.5 C4.4,3.5 4,3.5 3.6,3.5 C1.8,3.5 0.5,4.7 0.5,6.3 C0.5,8.5 0.5,10.8 0.5,13 L0.5,18 C0.5,19.8 0.5,21.7 0.5,23.5 C0.5,24.4 0.9,25.1 1.7,25.6 C2.2,25.9 2.8,26.1 3.5,26.1 C3.5,26.1 3.5,26.1 3.5,26.1 C6,26.1 8.4,26.1 10.9,26.1 C13.7,26.1 16.6,26.1 19.4,26.1 C19.6,26.1 19.9,26.1 20.1,26 C21.5,25.8 22.4,24.8 22.4,23.5 C22.4,17.8 22.4,11.9 22.4,6.1 Z M7.3,5.5 L7.3,3.4 C7.3,3.4 7.3,3.4 7.3,3.4 C7.6,3.4 7.9,3.4 8.2,3.4 L8.7,3.4 C9.3,3.4 9.6,3.2 9.7,2.7 C9.9,2.1 10.5,1.6 11.1,1.5 C11.9,1.4 12.7,1.9 12.9,2.7 C13.1,3.3 13.3,3.5 14,3.5 L15.1,3.5 L15.4,3.5 L15.4,5.6 L7.3,5.6 L7.3,5.5 Z M2,9.8 C2,8.6 2,7.4 2,6.2 C2,5.4 2.5,4.9 3.4,4.9 C3.9,4.9 4.5,4.9 5,4.9 C5.2,4.9 5.4,4.9 5.6,4.9 L5.6,5.9 C5.6,5.9 5.6,6 5.6,6 C5.6,6.1 5.6,6.2 5.6,6.3 C5.6,6.8 6,7.1 6.5,7.1 C9.8,7.1 13.1,7.1 16.2,7.1 C16.7,7.1 17.1,6.8 17.1,6.2 C17.1,5.9 17.1,5.6 17.1,5.2 C17.1,5.1 17.1,5 17.1,4.9 C17.3,4.9 17.5,4.9 17.8,4.9 C18.4,4.9 19,4.9 19.6,4.9 C20.2,4.9 20.7,5.4 20.7,6 C20.7,6.1 20.7,6.1 20.7,6.2 L20.7,23.2 C20.7,24 20.3,24.4 19.5,24.4 C19.4,24.4 19.4,24.4 19.3,24.4 L19.3,24.4 L17.4,24.4 C12.9,24.4 8.2,24.4 3.6,24.4 C3.4,24.4 3.2,24.4 3,24.3 C2.4,24.2 2.2,23.8 2.2,23.3 C2.2,20.3 2.2,17.3 2.2,14.3 L2.2,11.3 L2,9.8 Z" id="Shape"></path>
            <path d="M10.8,11.6 C11.9,11.6 12.9,11.6 14,11.6 C15.4,11.6 16.7,11.6 18.1,11.6 C18.2,11.6 18.3,11.6 18.4,11.6 C18.8,11.5 19.1,11.2 19.1,10.8 C19.1,10.4 18.7,10 18.2,10 C17.3,10 16.4,10 15.5,10 L14.5,10 L13.4,10 C12.5,10 11.7,10 10.8,10 C10.5,10 10.3,10.1 10.1,10.3 C9.9,10.5 9.9,10.7 9.9,10.9 C9.9,11.4 10.3,11.6 10.8,11.6 Z" id="Path"></path>
            <path d="M18.2,19.9 C17.3,19.9 16.5,19.9 15.6,19.9 L14.5,19.9 L13.3,19.9 C12.5,19.9 11.6,19.9 10.8,19.9 C10.5,19.9 10.3,20 10.1,20.1 C10,20.2 9.9,20.4 9.9,20.7 C9.9,21.2 10.3,21.4 10.9,21.4 C11.9,21.4 12.9,21.4 13.9,21.4 C15.3,21.4 16.7,21.4 18.1,21.4 C18.2,21.4 18.4,21.4 18.5,21.4 C18.9,21.3 19.1,21 19.1,20.7 C19.1,20.5 19,20.3 18.9,20.2 C18.7,20 18.4,19.9 18.2,19.9 Z" id="Path"></path>
            <path d="M10.7,16.5 C11.9,16.5 13.2,16.5 14.5,16.5 C15.2,16.5 15.8,16.5 16.5,16.5 L18.3,16.5 C18.3,16.5 18.4,16.5 18.4,16.5 C18.8,16.5 19.1,16.1 19.1,15.7 C19.1,15.3 18.7,15 18.2,15 C17.3,15 16.4,15 15.5,15 L14.5,15 L14.3,15 C14,15 13.7,15 13.4,15 C12.5,15 11.6,15 10.7,15 C10.5,15 10.2,15.1 10.1,15.2 C10,15.3 9.9,15.5 9.9,15.7 C9.9,16.2 10.2,16.5 10.7,16.5 Z" id="Path"></path>
            <path d="M5.2,17.1 C5.4,17.3 5.6,17.3 5.8,17.3 C6,17.3 6.2,17.2 6.3,17.1 C7.2,16.3 8.1,15.5 8.9,14.8 C9.1,14.7 9.1,14.5 9.1,14.3 C9.1,14.1 9,13.9 8.8,13.7 C8.4,13.4 8,13.4 7.6,13.8 C7.1,14.2 6.6,14.6 6.2,15.1 L5.7,15.5 C5.6,15.4 5.6,15.4 5.5,15.4 C5.3,15.2 5.1,15 4.9,14.9 C4.5,14.6 4.1,14.5 3.7,14.8 C3.5,14.9 3.5,15.1 3.4,15.3 C3.4,15.5 3.5,15.7 3.7,15.9 C4.3,16.2 4.8,16.6 5.2,17.1 Z" id="Path"></path>
            <path d="M5.2,12.1 C5.4,12.3 5.6,12.4 5.8,12.4 C6,12.4 6.2,12.3 6.3,12.2 C7.3,11.4 8.1,10.6 8.9,9.9 C9.1,9.7 9.2,9.5 9.1,9.3 C9.1,9.1 9,8.9 8.8,8.7 C8.4,8.5 8,8.5 7.7,8.8 C7.2,9.2 6.7,9.7 6.3,10.1 L5.9,10.5 C5.8,10.5 5.8,10.4 5.7,10.4 C5.5,10.2 5.3,10.1 5.1,9.9 C4.7,9.6 4.2,9.5 3.9,9.8 C3.6,10.1 3.6,10.6 3.9,10.9 C4.3,11.3 4.8,11.7 5.2,12.1 Z" id="Path"></path>
            <path d="M5.2,21.9 C5.4,22.1 5.6,22.1 5.8,22.1 C6,22.1 6.2,22 6.3,21.9 C7.3,21 8.1,20.3 8.9,19.6 C9.1,19.4 9.2,19.2 9.1,19 C9.1,18.8 8.9,18.5 8.7,18.4 C8.5,18.3 8.1,18.2 7.7,18.6 C7.2,19 6.7,19.4 6.3,19.9 L5.8,20.3 C5.7,20.3 5.7,20.2 5.6,20.2 C5.4,20 5.2,19.9 5,19.7 C4.6,19.4 4.1,19.3 3.8,19.6 C3.5,19.9 3.5,20.4 3.8,20.7 C4.3,21.1 4.7,21.5 5.2,21.9 Z" id="Path"></path>
        </g>
    </g>
</svg>