<?xml version="1.0" encoding="UTF-8"?>
<svg width="25px" height="23px" viewBox="0 0 25 23" version="1.1" xmlns="http://www.w3.org/2000/svg" xmlns:xlink="http://www.w3.org/1999/xlink">
    <!-- Generator: Sketch 56.2 (81672) - https://sketch.com -->
    <title>Group</title>
    <desc>Created with Sketch.</desc>
    <g id="Page-1" stroke="none" stroke-width="1" fill="none" fill-rule="evenodd">
        <g id="ICONS-COES" transform="translate(-84.000000, -462.000000)" fill="#000000" fill-rule="nonzero">
            <g id="Group" transform="translate(84.000000, 462.000000)">
                <path d="M0.4,11.1 C0.4,12.9 1.9,14.4 3.8,14.5 C5.7,14.5 7.3,13.1 7.3,11.3 C7.3,9.4 5.8,8 3.9,7.9 C2,7.9 0.5,9.4 0.4,11.1 Z M5.4,11.2 C5.4,12 4.7,12.6 3.9,12.6 C3.1,12.6 2.4,12 2.4,11.2 C2.4,10.4 3.1,9.8 3.9,9.8 C4.7,9.8 5.4,10.4 5.4,11.2 Z" id="Shape"></path>
                <path d="M3.9,6.7 C5.8,6.7 7.4,5.2 7.4,3.5 C7.4,1.7 5.9,0.2 3.9,0.2 C2,0.2 0.5,1.7 0.4,3.5 C0.4,5.3 2,6.7 3.9,6.7 Z M3.9,2.1 C4.7,2.1 5.4,2.7 5.4,3.5 C5.4,4.3 4.7,4.9 3.9,4.9 C3.1,4.9 2.4,4.3 2.4,3.5 C2.4,2.7 3,2.1 3.9,2.1 Z" id="Shape"></path>
                <path d="M3.9,15.7 C2,15.7 0.5,17.2 0.5,19 C0.5,20.8 2,22.3 3.9,22.3 C5.8,22.3 7.4,20.8 7.4,19.1 C7.3,17.1 5.8,15.7 3.9,15.7 Z M3.9,20.4 C3.1,20.4 2.4,19.8 2.4,19 C2.4,18.2 3.1,17.6 3.9,17.6 C4.7,17.6 5.4,18.2 5.4,19 C5.4,19.7 4.7,20.4 3.9,20.4 Z" id="Shape"></path>
                <path d="M10.4,4.4 L23.5,4.4 C24,4.4 24.4,4 24.4,3.5 C24.4,3 24,2.6 23.5,2.6 L10.4,2.6 C9.9,2.6 9.5,3 9.5,3.5 C9.5,4 9.8,4.4 10.4,4.4 Z" id="Path"></path>
                <path d="M23.5,10.3 L10.4,10.3 C9.9,10.3 9.5,10.7 9.5,11.2 C9.5,11.7 9.9,12.1 10.4,12.1 L23.5,12.1 C24,12.1 24.4,11.7 24.4,11.2 C24.4,10.7 24,10.3 23.5,10.3 Z" id="Path"></path>
                <path d="M23.5,18 L10.4,18 C9.9,18 9.5,18.4 9.5,18.9 C9.5,19.4 9.9,19.8 10.4,19.8 L23.5,19.8 C24,19.8 24.4,19.4 24.4,18.9 C24.4,18.4 24,18 23.5,18 Z" id="Path"></path>
            </g>
        </g>
    </g>
</svg>