<?xml version="1.0" encoding="UTF-8"?>
<svg width="23px" height="26px" viewBox="0 0 23 26" version="1.1" xmlns="http://www.w3.org/2000/svg" xmlns:xlink="http://www.w3.org/1999/xlink">
    <!-- Generator: Sketch 56.2 (81672) - https://sketch.com -->
    <title>Group</title>
    <desc>Created with Sketch.</desc>
    <g id="Page-1" stroke="none" stroke-width="1" fill="none" fill-rule="evenodd">
        <g id="Group" transform="translate(0.700000, 0.663932)" fill="#FFFFFF" fill-rule="nonzero">
            <path d="M12.7,9.23606798 C13,9.23606798 13.3,9.23606798 13.6,9.23606798 C15,9.23606798 16.4,9.23606798 17.8,9.23606798 C18.2,9.23606798 18.5,9.33606798 18.7,9.63606798 C18.9,10.036068 18.7,10.336068 18.5,10.636068 C15,15.236068 11.5,19.736068 8.1,24.336068 C7.9,24.636068 7.7,24.836068 7.3,24.836068 C6.8,24.836068 6.5,24.336068 6.6,23.736068 C6.9,22.536068 7.2,21.436068 7.5,20.236068 C8,18.236068 8.6,16.236068 9.1,14.136068 C9.1,14.036068 9.1,14.036068 9.2,13.936068 C9,13.936068 8.9,13.936068 8.8,13.936068 C7.3,13.936068 5.8,13.936068 4.2,13.936068 C3.8,13.936068 3.5,13.836068 3.3,13.536068 C3.1,13.136068 3.3,12.836068 3.5,12.636068 C6.5,8.53606798 9.5,4.43606798 12.6,0.436067977 C12.9,0.0360679775 13.2,-0.0639320225 13.6,0.0360679775 C14,0.236067977 14.1,0.536067977 14,1.03606798 C13.7,3.13606798 13.3,5.33606798 13,7.43606798 C12.9,7.93606798 12.8,8.53606798 12.7,9.23606798 Z M16.4,10.736068 C16.2,10.736068 16.1,10.736068 15.9,10.736068 C14.6,10.736068 13.2,10.736068 11.9,10.736068 C11.3,10.736068 10.9,10.336068 11,9.73606798 C11.2,8.53606798 11.4,7.23606798 11.6,6.03606798 C11.7,5.23606798 11.8,4.43606798 12,3.73606798 C12,3.73606798 12,3.73606798 11.9,3.73606798 C9.8,6.53606798 7.7,9.43606798 5.6,12.336068 C5.8,12.336068 5.9,12.336068 6,12.336068 C7.3,12.336068 8.7,12.336068 10,12.336068 C10.8,12.336068 11.1,12.736068 10.9,13.536068 C10.5,14.936068 10.2,16.236068 9.8,17.636068 C9.6,18.536068 9.3,19.336068 9.1,20.236068 C9.1,20.236068 9.1,20.236068 9.2,20.236068 C11.6,17.136068 14,13.936068 16.4,10.736068 Z" id="Shape"></path>
            <path d="M22,12.536068 C21.9,16.136068 20.6,19.436068 18,22.136068 C17.8,22.336068 17.5,22.536068 17.2,22.436068 C17,22.336068 16.7,22.136068 16.6,21.936068 C16.4,21.636068 16.6,21.336068 16.8,21.136068 C17.4,20.436068 18,19.736068 18.5,19.036068 C21.5,14.236068 20.9,8.03606798 17.1,3.83606798 C17,3.73606798 16.9,3.63606798 16.8,3.53606798 C16.5,3.13606798 16.5,2.73606798 16.8,2.43606798 C17.1,2.13606798 17.6,2.13606798 17.9,2.53606798 C18.5,3.23606798 19.1,3.93606798 19.6,4.73606798 C21.3,6.93606798 22,9.53606798 22,12.536068 Z" id="Path"></path>
            <path d="M0,12.136068 C0.1,8.53606798 1.4,5.23606798 4,2.53606798 C4.4,2.13606798 4.8,2.03606798 5.2,2.43606798 C5.5,2.73606798 5.5,3.23606798 5.1,3.63606798 C3.3,5.53606798 2.2,7.73606798 1.8,10.336068 C1.2,14.336068 2.2,17.836068 4.9,20.936068 C5,21.036068 5.1,21.136068 5.2,21.236068 C5.5,21.636068 5.5,22.036068 5.2,22.336068 C4.9,22.636068 4.4,22.636068 4.1,22.236068 C3.5,21.536068 2.9,20.836068 2.4,20.036068 C0.8,17.736068 0.1,15.136068 0,12.136068 Z" id="Path"></path>
        </g>
    </g>
</svg>