<?xml version="1.0" encoding="UTF-8"?>
<svg width="23px" height="22px" viewBox="0 0 23 22" version="1.1" xmlns="http://www.w3.org/2000/svg" xmlns:xlink="http://www.w3.org/1999/xlink">
    <!-- Generator: Sketch 56.2 (81672) - https://sketch.com -->
    <title>Groupicon-</title>
    <desc>Created with Sketch.</desc>
    <g id="Page-1" stroke="none" stroke-width="1" fill="none" fill-rule="evenodd">
        <g id="Group" fill="#3E3E3E" fill-rule="nonzero">
            <path d="M22.5,0.7 C22.5,5.3 22.5,10 22.5,14.6 C22.4,14.8 22.3,15 22.1,15.1 C20,17.3 18,19.5 15.9,21.6 C15.7,21.9 15.4,22 15.1,22 C10.9,22 5.7,22 1.5,22 C0.8,22 0.5,21.7 0.5,21 C0.5,14.4 0.5,7.7 0.5,1.1 C0.5,0.6 0.7,0.2 1.2,0.1 C7.7,0.1 15.3,0.1 21.9,0.1 C22.1,0.1 22.3,0.3 22.5,0.7 Z M20.8,1.7 C14.9,1.7 8,1.7 2.1,1.7 C2.1,7.9 2.1,14.1 2.1,20.2 C5.8,20.2 10.6,20.2 14.4,20.2 C14.4,20.1 14.4,20 14.4,19.9 C14.4,18.1 14.4,16.2 14.4,14.4 C14.4,13.7 14.7,13.4 15.3,13.4 C17,13.4 18.8,13.4 20.5,13.4 C20.6,13.4 20.7,13.4 20.7,13.4 C20.8,9.6 20.8,5.7 20.8,1.7 Z M19.2,15.3 C18.1,15.3 17,15.3 15.8,15.3 C15.8,16.6 15.8,17.8 15.8,19 C17,17.7 18.1,16.5 19.2,15.3 Z" id="Shape"></path>
            <path d="M12.6,8 C13.8,9.2 13.4,8.9 14.6,10.1 C15,10.5 15,11.2 14.4,11.5 C14.1,11.7 13.7,11.6 13.5,11.4 C13.5,11.4 13.4,11.3 13.4,11.3 C11,8.9 10.3,8 7.9,5.7 C7.6,5.4 7.5,5 7.7,4.7 C8,4.2 8.7,4 9.1,4.5 C10,5.4 11,6.4 11.9,7.3 C12.1,7.5 12.4,7.8 12.6,8 Z" id="Path"></path>
            <path d="M11.1,9.3 C9.9,10.5 10.2,10.1 9,11.3 C8.6,11.7 7.9,11.7 7.6,11.1 C7.4,10.8 7.5,10.4 7.7,10.2 C7.7,10.2 7.8,10.1 7.8,10.1 C10.2,7.7 11.1,7 13.4,4.6 C13.7,4.3 14.1,4.2 14.4,4.4 C14.9,4.7 15.1,5.4 14.6,5.8 C13.7,6.7 12.7,7.7 11.8,8.6 C11.6,8.8 11.4,9.1 11.1,9.3 Z" id="Path"></path>
            <path d="M8.9,15.4 C7.4,15.4 5.9,15.4 4.4,15.4 C4,15.4 3.7,15.2 3.6,14.7 C3.5,14.3 3.8,13.8 4.2,13.7 C4.3,13.7 4.4,13.7 4.5,13.7 C7.5,13.7 8.5,13.7 11.5,13.7 C11.6,13.7 11.7,13.7 11.9,13.8 C12.2,13.9 12.5,14.3 12.4,14.7 C12.3,15.1 12,15.4 11.7,15.4 C11.6,15.4 11.6,15.4 11.5,15.4 C9.9,15.4 10.4,15.4 8.9,15.4 Z" id="Path"></path>
            <path d="M8.9,18.4 C7.4,18.4 5.9,18.4 4.4,18.4 C4,18.4 3.7,18.2 3.6,17.7 C3.5,17.3 3.8,16.8 4.2,16.7 C4.3,16.7 4.4,16.7 4.5,16.7 C7.5,16.7 8.5,16.7 11.5,16.7 C11.6,16.7 11.7,16.7 11.9,16.8 C12.2,16.9 12.5,17.3 12.4,17.7 C12.3,18.1 12,18.4 11.7,18.4 C11.6,18.4 11.6,18.4 11.5,18.4 C9.9,18.4 10.4,18.4 8.9,18.4 Z" id="Path"></path>
        </g>
    </g>
</svg>