<?xml version="1.0" encoding="UTF-8"?>
<svg width="26px" height="27px" viewBox="0 0 26 27" version="1.1" xmlns="http://www.w3.org/2000/svg" xmlns:xlink="http://www.w3.org/1999/xlink">
    <!-- Generator: Sketch 56.2 (81672) - https://sketch.com -->
    <title>Group</title>
    <desc>Created with Sketch.</desc>
    <g id="Page-1" stroke="none" stroke-width="1" fill="none" fill-rule="evenodd">
        <g id="Group" fill="#000000" fill-rule="nonzero">
            <path d="M22.2,0.6 L3.7,0.6 C1.6,0.6 0,2.3 0,4.3 L0,22.8 C0,24.9 1.7,26.5 3.7,26.5 L22.2,26.5 C24.3,26.5 25.9,24.8 25.9,22.8 L25.9,4.3 C26,2.3 24.3,0.6 22.2,0.6 Z M24.5,22.9 C24.5,24.1 23.5,25.1 22.3,25.1 L3.8,25.1 C2.6,25.1 1.6,24.1 1.6,22.9 L1.6,4.4 C1.6,3.2 2.6,2.2 3.8,2.2 L22.3,2.2 C23.5,2.2 24.5,3.2 24.5,4.4 L24.5,22.9 Z" id="Shape"></path>
            <path d="M20.8,15.9 C19.5,16.4 18.1,16.6 16.7,16.3 C15.2,16.1 13.8,15.4 12.7,14.4 C11.3,13.2 10.5,11.6 10.2,9.8 C10,8.4 10.1,7 10.7,5.7 C10.8,5.6 10.8,5.4 10.8,5.3 C10.8,4.9 10.5,4.8 10.2,4.6 C10.1,4.6 10,4.6 9.9,4.6 C9.4,4.9 8.8,5.1 8.3,5.5 C6.2,6.9 4.8,8.9 4.3,11.3 C4.2,11.7 4.2,12.2 4.1,12.6 C4.1,12.7 4.1,12.7 4.1,12.8 C4.1,13.2 4.1,13.5 4.1,13.9 C4.1,14.2 4.2,14.6 4.2,14.9 C4.5,16.7 5.3,18.3 6.5,19.6 C7.9,21.1 9.6,22.1 11.7,22.5 C15.2,23.1 18.1,22.1 20.5,19.4 C21.2,18.6 21.7,17.7 22.1,16.8 C22.1,16.8 22.1,16.8 22.1,16.8 C22.1,16.7 22.1,16.6 22.1,16.5 C22,16.4 22,16.3 21.9,16.2 C21.5,15.8 21.2,15.8 20.8,15.9 Z M16.6,20.4 C15.4,21 14,21.2 12.7,21.1 C9.1,20.8 6.2,18.1 5.6,14.7 C5,11.1 6.8,8.2 8.8,6.9 C8.3,10.1 9.1,12.9 11.4,15.2 C13.7,17.5 16.5,18.3 19.7,17.8 C18.8,19 17.8,19.8 16.6,20.4 Z" id="Shape"></path>
        </g>
    </g>
</svg>