<?xml version="1.0" encoding="UTF-8"?>
<svg width="20px" height="27px" viewBox="0 0 20 27" version="1.1" xmlns="http://www.w3.org/2000/svg" xmlns:xlink="http://www.w3.org/1999/xlink">
    <!-- Generator: Sketch 56.2 (81672) - https://sketch.com -->
    <title>Group 2</title>
    <desc>Created with Sketch.</desc>
    <g id="Page-1" stroke="none" stroke-width="1" fill="none" fill-rule="evenodd">
        <g id="Group-2" transform="translate(0.159641, 0.200000)" fill="#FFFFFF" fill-rule="nonzero">
            <path d="M19.7403591,7.8 C19.1403591,4.2 16.0403591,1.1 12.2403591,0.3 C11.8403591,0.2 11.5403591,0.2 11.1403591,0.1 C10.9403591,0.1 10.8403591,0.1 10.6403591,2.84217094e-14 L9.24035913,2.84217094e-14 L9.14035913,2.84217094e-14 C9.14035913,2.84217094e-14 9.04035913,2.84217094e-14 9.04035913,2.84217094e-14 C8.84035913,2.84217094e-14 8.64035913,0.1 8.44035913,0.1 C8.04035913,0.2 7.64035913,0.2 7.24035913,0.3 C4.04035913,1.1 1.54035913,3.3 0.540359128,6.2 C-0.459640872,8.9 -0.0596408721,11.7 1.64035913,14.1 C3.44035913,16.7 5.34035913,19.3 7.14035913,21.9 L9.64035913,25.5 C9.64035913,25.6 9.74035913,25.6 9.74035913,25.7 L10.0403591,26.1 L10.3403591,25.8 C10.4403591,25.7 10.4403591,25.7 10.4403591,25.6 L13.2403591,21.7 C14.9403591,19.2 16.7403591,16.8 18.4403591,14.3 C19.5403591,12.3 20.0403591,10.1 19.7403591,7.8 Z M16.4403591,13 C14.8403591,15.3 13.2403591,17.5 11.6403591,19.8 L9.84035913,22.4 L7.14035913,18.6 C5.84035913,16.8 4.54035913,14.9 3.24035913,13.1 C2.14035913,11.5 1.74035913,9.6 2.04035913,7.8 C2.44035913,5.9 3.74035913,4.2 5.54035913,3.1 C6.84035913,2.4 8.24035913,2 9.74035913,2 C10.8403591,2 12.0403591,2.2 13.1403591,2.7 C15.3403591,3.6 16.9403591,5.4 17.5403591,7.6 C18.0403591,9.5 17.6403591,11.4 16.4403591,13 Z" id="Shape"></path>
            <path d="M9.84035913,4.5 C9.84035913,4.5 9.84035913,4.5 9.84035913,4.5 C8.44035913,4.5 7.24035913,5 6.24035913,5.9 C5.24035913,6.8 4.74035913,8 4.74035913,9.2 C4.74035913,10.5 5.24035913,11.6 6.24035913,12.5 C7.24035913,13.4 8.44035913,13.9 9.84035913,13.9 C9.84035913,13.9 9.84035913,13.9 9.84035913,13.9 C11.2403591,13.9 12.4403591,13.4 13.4403591,12.5 C14.4403591,11.6 14.9403591,10.4 14.9403591,9.2 C14.9403591,6.6 12.6403591,4.5 9.84035913,4.5 Z M12.8403591,9.2 C12.8403591,9.9 12.5403591,10.5 12.0403591,11 C11.4403591,11.6 10.6403591,11.9 9.84035913,11.9 C9.84035913,11.9 9.84035913,11.9 9.84035913,11.9 C9.04035913,11.9 8.24035913,11.6 7.64035913,11 C7.14035913,10.5 6.84035913,9.8 6.84035913,9.2 C6.84035913,7.7 8.24035913,6.5 9.84035913,6.5 C9.84035913,6.5 9.84035913,6.5 9.84035913,6.5 C11.5403591,6.4 12.8403591,7.7 12.8403591,9.2 Z" id="Shape"></path>
        </g>
    </g>
</svg>