<?xml version="1.0" encoding="UTF-8"?>
<svg width="22px" height="23px" viewBox="0 0 22 23" version="1.1" xmlns="http://www.w3.org/2000/svg" xmlns:xlink="http://www.w3.org/1999/xlink">
    <!-- Generator: Sketch 56.2 (81672) - https://sketch.com -->
    <title>Group 2</title>
    <desc>Created with Sketch.</desc>
    <g id="Page-1" stroke="none" stroke-width="1" fill="none" fill-rule="evenodd">
        <g id="Group" fill="#000000" fill-rule="nonzero">
            <g id="Group-2" transform="translate(0.000000, 0.800000)">
                <path d="M-2.66453526e-14,11.7 C-2.66453526e-14,11.3 -2.66453526e-14,10.8 -2.66453526e-14,10.4 C-2.66453526e-14,10.3 -2.66453526e-14,10.3 -2.66453526e-14,10.2 C0.1,8.7 0.5,7.2 1.3,5.8 C3,2.7 5.6,0.8 9.1,0.2 C9.5,0.1 9.9,0.1 10.4,-1.59872116e-14 C10.8,-1.59872116e-14 11.3,-1.59872116e-14 11.7,-1.59872116e-14 C11.8,-1.59872116e-14 11.8,-1.59872116e-14 11.9,-1.59872116e-14 C13.4,0.1 14.9,0.5 16.2,1.3 C19.8,3.3 21.8,6.4 22,10.6 C22.1,12.4 21.8,14.1 21,15.7 C19,19.6 15.9,21.7 11.5,22 C9.7,22.1 8,21.8 6.4,21 C3,19.3 1,16.7 0.2,13 C0.1,12.5 -2.66453526e-14,12.1 -2.66453526e-14,11.7 Z M20.6,11 C20.6,5.7 16.3,1.4 11,1.4 C5.7,1.4 1.4,5.7 1.4,11 C1.4,16.3 5.7,20.6 11,20.6 C16.3,20.7 20.6,16.3 20.6,11 Z" id="Shape"></path>
                <path d="M10.3,13.5 C10.3,13.4 10.3,13.3 10.3,13.2 C10.3,10.9 10.3,8.7 10.3,6.4 C10.3,6.3 10.3,6.2 10.3,6.2 C10.3,5.8 10.6,5.6 11,5.6 C11.4,5.6 11.7,5.9 11.7,6.2 C11.7,6.3 11.7,6.4 11.7,6.4 C11.7,8.7 11.7,10.9 11.7,13.2 C11.7,13.3 11.7,13.4 11.7,13.5 C11.8,13.4 11.8,13.4 11.9,13.3 C12.8,12.4 13.6,11.6 14.5,10.8 C14.6,10.7 14.8,10.6 15,10.5 C15.3,10.4 15.6,10.6 15.7,10.8 C15.8,11.1 15.8,11.4 15.6,11.6 C15.4,11.9 15.1,12.1 14.8,12.4 C13.8,13.4 12.8,14.4 11.8,15.4 C11.4,15.8 10.8,15.8 10.4,15.4 C9.2,14.2 7.9,12.9 6.7,11.7 C6.5,11.5 6.4,11.3 6.5,11 C6.6,10.5 7.2,10.3 7.6,10.6 C7.7,10.7 7.7,10.7 7.8,10.8 C8.6,11.6 9.5,12.5 10.3,13.3 C10.1,13.3 10.2,13.4 10.3,13.5 Z" id="Path"></path>
            </g>
        </g>
    </g>
</svg>