<?xml version="1.0" encoding="UTF-8" standalone="no"?>
<!-- Created with Inkscape (http://www.inkscape.org/) -->

<svg
   xmlns:dc="http://purl.org/dc/elements/1.1/"
   xmlns:cc="http://creativecommons.org/ns#"
   xmlns:rdf="http://www.w3.org/1999/02/22-rdf-syntax-ns#"
   xmlns:svg="http://www.w3.org/2000/svg"
   xmlns="http://www.w3.org/2000/svg"
   xmlns:sodipodi="http://sodipodi.sourceforge.net/DTD/sodipodi-0.dtd"
   xmlns:inkscape="http://www.inkscape.org/namespaces/inkscape"
   width="6.1806664mm"
   height="7.0555553mm"
   viewBox="0 0 21.899999 24.999999"
   id="svg4775"
   version="1.1"
   inkscape:version="0.91 r13725"
   sodipodi:docname="icon-file-pdf.svg">
  <defs
     id="defs4777" />
  <sodipodi:namedview
     id="base"
     pagecolor="#ffffff"
     bordercolor="#666666"
     borderopacity="1.0"
     inkscape:pageopacity="0.0"
     inkscape:pageshadow="2"
     inkscape:zoom="3.5382812"
     inkscape:cx="18.539976"
     inkscape:cy="-45.181608"
     inkscape:document-units="px"
     inkscape:current-layer="layer1"
     showgrid="false"
     fit-margin-top="0"
     fit-margin-left="0"
     fit-margin-right="0"
     fit-margin-bottom="0"
     inkscape:window-width="1333"
     inkscape:window-height="744"
     inkscape:window-x="33"
     inkscape:window-y="24"
     inkscape:window-maximized="1" />
  <metadata
     id="metadata4780">
    <rdf:RDF>
      <cc:Work
         rdf:about="">
        <dc:format>image/svg+xml</dc:format>
        <dc:type
           rdf:resource="http://purl.org/dc/dcmitype/StillImage" />
        <dc:title></dc:title>
      </cc:Work>
    </rdf:RDF>
  </metadata>
  <g
     inkscape:label="Layer 1"
     inkscape:groupmode="layer"
     id="layer1"
     transform="translate(-166.5373,-767.41354)">
    <g
       transform="translate(-84.662696,610.71354)"
       id="g591"
       style="fill:#474747;fill-opacity:1">
      <path
         inkscape:connector-curvature="0"
         d="m 270.7,181.7 c -5.2,0 -10.4,0 -15.6,0 0,0 -0.1,0 -0.1,0 -1.1,-0.2 -1.8,-0.8 -2.2,-1.8 -0.1,-0.4 -0.1,-0.9 -0.2,-1.3 0,-0.2 0,-0.5 0,-0.7 -0.2,0 -0.4,0 -0.5,0 -0.6,-0.1 -0.9,-0.5 -0.9,-1.2 0,-1.5 0,-3 0,-4.6 0,-0.6 0,-1.3 0,-1.9 0,-0.6 0.5,-1 1.1,-1 0.1,0 0.2,0 0.3,0 0,-0.1 0,-0.2 0,-0.3 0,-3.1 0,-6.3 0,-9.4 0,-1.6 1.2,-2.8 3,-2.8 3.5,0 7,0 10.5,0 0.2,0 0.3,0.1 0.4,0.2 2.1,2 4.3,4 6.4,5.9 0.2,0.1 0.2,0.3 0.2,0.5 0,5.2 0,10.3 0,15.5 0,0.1 0,0.2 0,0.4 0,0.8 -0.4,1.5 -1.1,2 -0.3,0.3 -0.8,0.4 -1.3,0.5 z m -5,-23.4 c -0.1,0 -0.2,0 -0.3,0 -3.2,0 -6.5,0 -9.7,0 -0.9,0 -1.3,0.4 -1.3,1.2 0,3.1 0,6.2 0,9.4 0,0.1 0,0.2 0,0.3 0.1,0 0.2,0 0.3,0 4.4,0 8.8,0 13.2,0 0.9,0 1.4,0.4 1.4,1.3 0,2 0,4 0,6.1 0,0.8 -0.5,1.3 -1.4,1.3 -4.4,0 -8.8,0 -13.2,0 -0.1,0 -0.2,0 -0.3,0 0,0.4 0,0.7 0,1 0,0.8 0.4,1.2 1.3,1.2 4.8,0 9.7,0 14.5,0 0.8,0 1.3,-0.4 1.3,-1.2 0,-5 0,-10 0,-15 0,-0.1 0,-0.2 0,-0.3 -0.1,0 -0.2,0 -0.3,0 -1.2,0 -2.4,0 -3.5,0 -0.9,0 -1.7,-0.8 -1.8,-1.6 0,-1.1 0,-2.2 0,-3.3 -0.2,-0.1 -0.2,-0.2 -0.2,-0.4 z m -7.2,17.6 c 0.7,0 1.3,0.1 2,0 1.5,-0.1 2.3,-0.9 2.3,-2.3 0,-1.1 -0.6,-1.9 -1.7,-2.1 -0.9,-0.2 -1.7,-0.1 -2.6,0 0,1.4 0,2.9 0,4.4 z m -3.1,-1.6 c 0.1,0 0.2,0 0.3,0 0.4,0 0.9,0 1.3,-0.2 0.6,-0.2 0.9,-0.8 0.9,-1.4 0,-0.6 -0.4,-1 -1,-1.2 -0.8,-0.3 -1.7,-0.1 -2.5,-0.1 0,1.5 0,3 0,4.4 0.4,0 0.7,0 1.1,0 -0.1,-0.5 -0.1,-1 -0.1,-1.5 z m 8.1,1.6 c 0.4,0 0.7,0 1.1,0 0,-0.6 0,-1.2 0,-1.8 0.6,0 1.2,0 1.7,0 0,-0.3 0,-0.5 0,-0.8 -0.6,0 -1.2,0 -1.7,0 0,-0.4 0,-0.7 0,-1 0.6,0 1.2,0 1.9,0 0,-0.3 0,-0.5 0,-0.8 -1,0 -2,0 -3,0 0,1.4 0,2.9 0,4.4 z"
         id="path593"
         style="fill:#474747;fill-opacity:1" />
      <path
         inkscape:connector-curvature="0"
         d="m 259.6,172.2 c 0.7,-0.2 1.4,0 1.8,0.5 0.4,0.5 0.3,1.4 0,1.9 -0.3,0.5 -1,0.7 -1.7,0.5 -0.1,-1 -0.1,-1.9 -0.1,-2.9 z"
         id="path595"
         style="fill:#474747;fill-opacity:1" />
      <path
         inkscape:connector-curvature="0"
         d="m 255.4,173.5 c 0,-0.5 0,-0.8 0,-1.2 0,-0.1 0.1,-0.2 0.1,-0.2 0.2,0 0.4,0 0.6,0 0.4,0.1 0.5,0.3 0.6,0.6 0,0.3 -0.1,0.6 -0.5,0.7 -0.3,0.1 -0.5,0.1 -0.8,0.1 z"
         id="path597"
         style="fill:#474747;fill-opacity:1" />
    </g>
    <g
       transform="translate(-14.624104,489.56778)"
       id="layer1-3"
       inkscape:label="Layer 1" />
  </g>
</svg>
