<?xml version="1.0" encoding="UTF-8"?>
<svg width="27px" height="28px" viewBox="0 0 27 28" version="1.1" xmlns="http://www.w3.org/2000/svg" xmlns:xlink="http://www.w3.org/1999/xlink">
    <!-- Generator: Sketch 56.2 (81672) - https://sketch.com -->
    <title>Shape</title>
    <desc>Created with Sketch.</desc>
    <g id="Page-1" stroke="none" stroke-width="1" fill="none" fill-rule="evenodd">
        <path d="M26.6,25.5 L19.6,18.8 C21.6,16.8 22.9,14.1 22.9,11.1 C22.9,5.1 17.8,0.2 11.5,0.2 C5.2,0.2 0.1,5.1 0.1,11.1 C0.1,17.1 5.2,22 11.5,22 C14,22 16.3,21.2 18.1,20 L25.3,26.8 C25.5,27 25.7,27.1 26,27.1 C26.3,27.1 26.5,27 26.7,26.8 C27,26.5 27,25.9 26.6,25.5 Z M1.8,11.1 C1.8,6.1 6.1,2 11.4,2 C16.7,2 21,6.1 21,11.1 C21,16.1 16.7,20.2 11.4,20.2 C6.1,20.2 1.8,16.1 1.8,11.1 Z" id="Shape" fill="#000000" fill-rule="nonzero"></path>
    </g>
</svg>