<?xml version="1.0" encoding="UTF-8"?>
<svg width="27px" height="27px" viewBox="0 0 27 27" version="1.1" xmlns="http://www.w3.org/2000/svg" xmlns:xlink="http://www.w3.org/1999/xlink">
    <!-- Generator: Sketch 56.2 (81672) - https://sketch.com -->
    <title>icon-phone</title>
    <desc>Created with Sketch.</desc>
    <g id="Page-1" stroke="none" stroke-width="1" fill="none" fill-rule="evenodd">
        <g id="icon-phone" fill="#FFFFFF" fill-rule="nonzero">
            <path d="M15.1,5.3 C15.1,5.3 15.1,5.3 15.1,5.3 C14.6,5.4 14.3,5.7 14.3,6.1 C14.3,6.5 14.5,6.7 15,6.8 C17.4,7.3 19.1,8.7 20.2,10.9 C20.4,11.4 20.6,12 20.7,12.6 C20.8,13 21.2,13.2 21.6,13.1 C22,13 22.2,12.6 22.1,12.2 C21.5,9.2 19.8,7.1 17.1,5.9 C16.5,5.7 15.8,5.5 15.1,5.3 Z" id="Path"></path>
            <path d="M0.8,7.8 C0.8,7.5 0.9,7.2 0.9,6.9 C1,6.2 1.4,5.5 1.9,5 C2.6,4.3 3.3,3.5 4,2.9 C5.1,1.9 6.4,1.9 7.5,2.9 C8.7,4 9.8,5.2 10.9,6.3 C11.7,7.2 11.7,8.5 10.9,9.4 C10.3,10.1 9.7,10.7 9,11.3 C8.9,11.4 8.9,11.5 8.9,11.7 C9.5,13 10.4,14.1 11.4,15.1 C12.4,16.2 13.5,17.1 14.7,17.9 C15,18.1 15.4,18.3 15.8,18.5 C16.2,18.1 16.6,17.7 17,17.2 C17.3,16.9 17.6,16.7 17.9,16.4 C18.8,15.7 20.1,15.7 21,16.4 C22.2,17.6 23.4,18.7 24.5,20 C25.4,20.9 25.4,22.3 24.5,23.2 C23.7,24.1 22.9,24.9 22.1,25.7 C21.2,26.5 20.1,26.7 18.9,26.6 C16.7,26.4 14.7,25.5 12.8,24.5 C10.5,23.2 8.4,21.6 6.6,19.6 C4.4,17.2 2.6,14.6 1.4,11.5 C1,10.5 0.7,9.4 0.7,8.3 C0.7,8.2 0.7,8.2 0.7,8.1 C0.8,8 0.8,7.9 0.8,7.8 Z M19.4,25.2 C20.3,25.2 21,24.9 21.6,24.3 C22.1,23.7 22.7,23.2 23.2,22.7 C23.3,22.6 23.4,22.5 23.5,22.3 C23.8,21.9 23.8,21.4 23.5,21 C23.4,20.9 23.3,20.8 23.2,20.7 C22.3,19.8 21.3,18.8 20.4,17.9 C20.3,17.8 20.3,17.8 20.2,17.7 C19.8,17.3 19.3,17.3 18.8,17.7 C18.7,17.8 18.6,17.9 18.5,18 C17.9,18.6 17.3,19.2 16.7,19.8 C16.3,20.2 15.8,20.3 15.3,20 C14.9,19.8 14.6,19.6 14.2,19.4 C12.7,18.5 11.3,17.3 10.1,16 C9,14.8 8.1,13.6 7.4,12.2 C7.1,11.4 7.1,11.1 7.7,10.5 C8.3,9.9 8.9,9.3 9.5,8.7 C9.9,8.2 9.9,7.8 9.5,7.3 C9.4,7.2 9.4,7.1 9.3,7.1 C8.3,6.1 7.4,5.2 6.4,4.2 C5.8,3.6 5.2,3.6 4.6,4.2 C4,4.8 3.4,5.3 2.9,5.9 C2.6,6.2 2.4,6.5 2.2,6.9 C1.9,7.7 2,8.5 2.1,9.3 C2.4,10.5 2.8,11.7 3.4,12.8 C4.6,15.2 6.2,17.3 8.1,19.2 C10.5,21.6 13.3,23.5 16.5,24.7 C17.8,25 18.6,25.1 19.4,25.2 Z" id="Shape"></path>
            <path d="M15.4,0.6 C16,0.8 16.6,0.9 17.2,1.1 C19.1,1.7 20.8,2.6 22.2,3.9 C23.8,5.3 25,6.9 25.8,8.9 C26.3,9.9 26.6,11 26.8,12.1 C26.9,12.5 26.6,12.8 26.3,12.9 C25.9,13 25.5,12.8 25.4,12.4 C25.2,11.9 25.1,11.3 25,10.8 C24.3,8.4 22.9,6.4 20.9,4.8 C19.3,3.5 17.4,2.6 15.3,2.2 C14.7,2.1 14.5,1.8 14.5,1.4 C14.5,1 14.8,0.8 15.1,0.7 C15.2,0.6 15.3,0.6 15.4,0.6 Z" id="Path"></path>
            <path d="M15.1,5.3 C15.8,5.5 16.5,5.7 17.1,6 C19.8,7.2 21.5,9.4 22.1,12.3 C22.2,12.7 22,13.1 21.6,13.2 C21.2,13.3 20.8,13.1 20.7,12.7 C20.5,12.1 20.4,11.5 20.2,11 C19.2,8.8 17.4,7.4 15,6.9 C14.6,6.8 14.3,6.6 14.3,6.2 C14.3,5.7 14.6,5.4 15.1,5.3 C15.1,5.3 15.1,5.3 15.1,5.3 Z" id="Path"></path>
        </g>
    </g>
</svg>