<svg xmlns="http://www.w3.org/2000/svg" width="18.048" height="22.379" viewBox="0 0 18.048 22.379">
  <g id="Grupo_17" data-name="Grupo 17" transform="translate(-151 -564.311)">
    <g id="file" transform="translate(137 562.311)">
      <path id="Trazado_1" data-name="Trazado 1" d="M30.243,24.379H15.8a1.807,1.807,0,0,1-1.8-1.8V3.8A1.807,1.807,0,0,1,15.8,2h7.343a1.792,1.792,0,0,1,1.276.529l7.1,7.1a1.792,1.792,0,0,1,.529,1.276V22.574A1.807,1.807,0,0,1,30.243,24.379ZM15.8,2.722A1.084,1.084,0,0,0,14.722,3.8V22.574A1.084,1.084,0,0,0,15.8,23.657H30.243a1.084,1.084,0,0,0,1.083-1.083V10.9a1.091,1.091,0,0,0-.317-.766l-7.1-7.1a1.076,1.076,0,0,0-.766-.317Z" fill="#fd4233"/>
      <path id="Trazado_2" data-name="Trazado 2" d="M43.979,48.1a.57.57,0,0,0-.166-.285,2.306,2.306,0,0,0-1.489-.352,12.3,12.3,0,0,0-1.79.132,4.461,4.461,0,0,1-.83-.574,6.063,6.063,0,0,1-1.5-2.326c.022-.085.04-.159.058-.235a15.134,15.134,0,0,0,.263-2.725.792.792,0,0,0-.047-.195l-.031-.079a.646.646,0,0,0-.588-.451L37.682,41h0a.665.665,0,0,0-.679.426,7.893,7.893,0,0,0,.413,3.554l-.1.253c-.291.711-.655,1.426-.976,2.056l-.042.081c-.339.662-.646,1.225-.926,1.7l-.287.152c-.022.011-.514.273-.63.341a3.522,3.522,0,0,0-1.738,1.778.436.436,0,0,0,.166.484l.278.141a.854.854,0,0,0,.379.09c.7,0,1.509-.87,2.626-2.819a26.121,26.121,0,0,1,4.044-.96,6.978,6.978,0,0,0,2.947.935,1.363,1.363,0,0,0,.347-.038.6.6,0,0,0,.345-.235,1.249,1.249,0,0,0,.137-.843Zm-10.6,3.431a4.848,4.848,0,0,1,1.377-1.648c.047-.038.162-.146.267-.247A4.979,4.979,0,0,1,33.382,51.527ZM37.8,41.361c.224,0,.352.565.363,1.1a2.252,2.252,0,0,1-.267,1.179,5.72,5.72,0,0,1-.189-1.471S37.693,41.361,37.8,41.361Zm-1.317,7.244q.236-.42.485-.888a16.627,16.627,0,0,0,.852-1.859A6.149,6.149,0,0,0,39.222,47.6c.07.058.144.117.22.177A17.855,17.855,0,0,0,36.479,48.605Zm7.116-.063a1.04,1.04,0,0,1-.392.067,4.6,4.6,0,0,1-1.624-.491c.273-.02.523-.031.747-.031a2.868,2.868,0,0,1,.933.1C43.66,48.291,43.665,48.5,43.595,48.542Z" transform="translate(-15.323 -31.961)" fill="#ff402f"/>
    </g>
  </g>
</svg>
